G04*
G04 #@! TF.GenerationSoftware,Altium Limited,Altium Designer,22.3.1 (43)*
G04*
G04 Layer_Physical_Order=1*
G04 Layer_Color=255*
%FSLAX25Y25*%
%MOIN*%
G70*
G04*
G04 #@! TF.SameCoordinates,E818B628-65F0-44BA-8D72-483C3118F3C7*
G04*
G04*
G04 #@! TF.FilePolarity,Positive*
G04*
G01*
G75*
%ADD13R,0.07874X0.01181*%
%ADD14R,0.10827X0.04724*%
%ADD15R,0.03150X0.02992*%
%ADD16R,0.11811X0.10236*%
%ADD17R,0.02992X0.03150*%
%ADD18R,0.05512X0.03937*%
%ADD27C,0.04134*%
%ADD28C,0.06102*%
%ADD29C,0.00700*%
%ADD30C,0.01000*%
%ADD31O,0.04921X0.03150*%
%ADD32C,0.02800*%
%ADD33C,0.02500*%
%ADD34C,0.01400*%
G36*
X523766Y371140D02*
X522995Y370820D01*
X522118Y370147D01*
X522116Y370148D01*
X521409Y369226D01*
X520964Y368152D01*
X520812Y367000D01*
X520831D01*
Y356414D01*
X520812D01*
X520964Y355262D01*
X521409Y354188D01*
X522116Y353266D01*
X522118Y353267D01*
X522995Y352594D01*
X524018Y352170D01*
X525114Y352026D01*
Y352043D01*
X526809D01*
Y343569D01*
X526830Y343518D01*
X526820Y343463D01*
X526885Y343134D01*
X526916Y343088D01*
Y343032D01*
X527045Y342722D01*
X527084Y342682D01*
X527095Y342628D01*
X527282Y342348D01*
X527328Y342318D01*
X527349Y342266D01*
X527632Y341983D01*
X527683Y341962D01*
X527714Y341916D01*
X528100Y341658D01*
X528154Y341647D01*
X528193Y341608D01*
X528622Y341430D01*
X528678D01*
X528724Y341400D01*
X529118Y341321D01*
X529223Y341342D01*
X529269Y341345D01*
X529379Y341334D01*
X529724Y341078D01*
Y338192D01*
Y334255D01*
Y330318D01*
Y326381D01*
Y322444D01*
Y318507D01*
Y314559D01*
X526685D01*
Y314576D01*
X524982Y314442D01*
X523321Y314043D01*
X521744Y313389D01*
X520287Y312497D01*
X518989Y311388D01*
X519001Y311376D01*
X507166Y299542D01*
X507146Y299511D01*
X505788Y298397D01*
X504208Y297552D01*
X502492Y297032D01*
X500744Y296860D01*
X500708Y296867D01*
X488492D01*
Y296884D01*
X486790Y296750D01*
X485129Y296351D01*
X483552Y295697D01*
X482095Y294805D01*
X480797Y293696D01*
X480809Y293684D01*
X480809Y293684D01*
X479760Y292635D01*
X479740Y292605D01*
X478382Y291490D01*
X476801Y290645D01*
X475086Y290125D01*
X473338Y289953D01*
X473302Y289960D01*
X79934Y289960D01*
X79666Y290460D01*
X79883Y290784D01*
X80044Y291593D01*
X79883Y292403D01*
X79424Y293089D01*
X78738Y293548D01*
X77928Y293709D01*
X76157D01*
X75347Y293548D01*
X74661Y293089D01*
X74202Y292403D01*
X74041Y291593D01*
X74202Y290784D01*
X74419Y290460D01*
X74151Y289960D01*
X73270D01*
X72849Y290589D01*
X72163Y291048D01*
X71354Y291209D01*
X69582D01*
X68772Y291048D01*
X68086Y290589D01*
X67628Y289903D01*
X67466Y289093D01*
X67628Y288284D01*
X68086Y287598D01*
X68772Y287139D01*
X69582Y286978D01*
X71354D01*
X72163Y287139D01*
X72849Y287598D01*
X73270Y288227D01*
X74151D01*
X74419Y287727D01*
X74202Y287403D01*
X74041Y286593D01*
X74202Y285784D01*
X74661Y285098D01*
X75347Y284639D01*
X76157Y284478D01*
X77928D01*
X78738Y284639D01*
X79424Y285098D01*
X79883Y285784D01*
X80044Y286593D01*
X79883Y287403D01*
X79666Y287727D01*
X79934Y288227D01*
X473302Y288227D01*
Y288210D01*
X475004Y288344D01*
X476665Y288742D01*
X478243Y289396D01*
X479699Y290288D01*
X480998Y291398D01*
X480985Y291409D01*
X482034Y292458D01*
X482055Y292489D01*
X483412Y293603D01*
X484993Y294448D01*
X486709Y294968D01*
X488457Y295141D01*
X488492Y295133D01*
X500708D01*
Y295116D01*
X502411Y295250D01*
X504072Y295649D01*
X505649Y296303D01*
X507105Y297195D01*
X507155Y297237D01*
X507495Y296870D01*
X505760Y295135D01*
X505740Y295105D01*
X504382Y293990D01*
X502801Y293145D01*
X501086Y292625D01*
X499338Y292453D01*
X499302Y292460D01*
X489684D01*
X489656Y292528D01*
X489192Y292992D01*
X488585Y293243D01*
X487929D01*
X487322Y292992D01*
X486858Y292528D01*
X486607Y291922D01*
Y291265D01*
X486858Y290659D01*
X487322Y290195D01*
X487929Y289943D01*
X488585D01*
X489192Y290195D01*
X489656Y290659D01*
X489684Y290727D01*
X499302D01*
Y290710D01*
X501004Y290844D01*
X502665Y291243D01*
X504243Y291896D01*
X505699Y292788D01*
X506997Y293898D01*
X506986Y293910D01*
X521258Y308182D01*
X521278Y308212D01*
X522636Y309327D01*
X524217Y310172D01*
X525932Y310692D01*
X527680Y310864D01*
X527716Y310857D01*
X529724D01*
Y308664D01*
Y304440D01*
X538597Y304439D01*
X538597Y304728D01*
X538597Y304939D01*
Y308664D01*
Y312601D01*
Y316539D01*
Y320476D01*
Y324413D01*
Y328350D01*
Y332287D01*
Y336224D01*
Y341299D01*
X540089D01*
X540140Y341296D01*
X540252Y341274D01*
X540345Y341235D01*
X540440Y341172D01*
X540467Y341147D01*
X540535Y341072D01*
X540669Y340871D01*
X540757Y340661D01*
X540804Y340424D01*
X540809Y340310D01*
Y305928D01*
X540795Y305646D01*
X540683Y305081D01*
X540468Y304561D01*
X540148Y304082D01*
X539967Y303883D01*
X539644Y303590D01*
X538887Y303084D01*
X538058Y302741D01*
X537165Y302563D01*
X536716Y302541D01*
X520008D01*
X519956Y302520D01*
X519902Y302531D01*
X517970Y302147D01*
X517924Y302116D01*
X517869D01*
X516049Y301362D01*
X516010Y301323D01*
X515955Y301312D01*
X514317Y300218D01*
X514286Y300171D01*
X514235Y300150D01*
X513539Y299454D01*
X506452Y292367D01*
X505877Y291846D01*
X504577Y290977D01*
X503145Y290384D01*
X501612Y290079D01*
X500837Y290041D01*
X500515D01*
X500463Y290020D01*
X500409Y290031D01*
X500002Y289950D01*
X499957Y289919D01*
X499901D01*
X499518Y289761D01*
X499479Y289721D01*
X499425Y289711D01*
X499080Y289480D01*
X499049Y289434D01*
X498998Y289413D01*
X498404Y288819D01*
X498382Y288767D01*
X498336Y288737D01*
X497632Y287683D01*
X497622Y287629D01*
X497582Y287590D01*
X497098Y286419D01*
Y286364D01*
X497067Y286317D01*
X496820Y285075D01*
X496830Y285020D01*
X496809Y284969D01*
Y279361D01*
X496809Y279360D01*
X66694Y279360D01*
X66193Y279360D01*
X65729Y279445D01*
X65287Y279533D01*
X64518Y280047D01*
X64004Y280815D01*
X63916Y281257D01*
X63832Y281722D01*
X63832D01*
Y369278D01*
X63828Y369298D01*
X64004Y370185D01*
X64518Y370953D01*
X65287Y371467D01*
X65728Y371555D01*
X66193Y371640D01*
X66694Y371640D01*
X523666Y371640D01*
X523766Y371140D01*
D02*
G37*
G36*
X591211Y371640D02*
D01*
X591697Y371551D01*
X592118Y371467D01*
X592886Y370953D01*
X593400Y370185D01*
X593488Y369743D01*
X593573Y369278D01*
X593573Y368778D01*
X593573Y353268D01*
X593073Y353098D01*
X592584Y353734D01*
X592571Y353721D01*
X592106Y354186D01*
Y357469D01*
X585595D01*
Y352532D01*
X590877D01*
X591129Y352279D01*
X591163Y352256D01*
X591663Y351508D01*
X591839Y350626D01*
X591831Y350586D01*
Y320529D01*
X591331Y320322D01*
X591282Y320370D01*
X591231Y320392D01*
X591200Y320438D01*
X590921Y320624D01*
X590866Y320635D01*
X590827Y320674D01*
X590516Y320803D01*
X590461D01*
X590415Y320834D01*
X590376Y320842D01*
X590356Y320838D01*
X590338Y320848D01*
X589879Y320906D01*
X589845Y320896D01*
X589812Y320910D01*
X589811D01*
X589811Y320910D01*
X576557Y320910D01*
X576389Y320910D01*
X576338Y320889D01*
X576284Y320900D01*
X575954Y320834D01*
X575908Y320803D01*
X575852D01*
X575542Y320674D01*
X575503Y320635D01*
X575448Y320624D01*
X575169Y320438D01*
X575138Y320392D01*
X575087Y320370D01*
X574849Y320133D01*
X574828Y320081D01*
X574782Y320051D01*
X574595Y319771D01*
X574584Y319717D01*
X574545Y319677D01*
X574416Y319367D01*
Y319311D01*
X574385Y319265D01*
X574381Y319242D01*
X574384Y319223D01*
X574375Y319205D01*
X574314Y318731D01*
X574323Y318695D01*
X574309Y318662D01*
X574309Y318162D01*
X574309Y310135D01*
X574304Y310020D01*
X574257Y309784D01*
X574169Y309573D01*
X574035Y309372D01*
X573967Y309297D01*
X573892Y309229D01*
X573692Y309095D01*
X573481Y309008D01*
X573244Y308961D01*
X573130Y308955D01*
X571972Y308955D01*
X571804Y308955D01*
X571752Y308934D01*
X571698Y308945D01*
X571368Y308879D01*
X571322Y308849D01*
X571267D01*
X570956Y308720D01*
X570917Y308681D01*
X570862Y308670D01*
X570583Y308483D01*
X570552Y308437D01*
X570501Y308416D01*
X570263Y308178D01*
X570242Y308127D01*
X570196Y308096D01*
X570009Y307816D01*
X569998Y307762D01*
X569959Y307723D01*
X569830Y307412D01*
Y307357D01*
X569799Y307311D01*
X569734Y306981D01*
X569745Y306926D01*
X569723Y306875D01*
X569723Y306720D01*
X569718Y306606D01*
X569671Y306369D01*
X569583Y306159D01*
X569449Y305958D01*
X569381Y305883D01*
X569307Y305815D01*
X569106Y305681D01*
X568895Y305594D01*
X568658Y305547D01*
X568544Y305541D01*
X568389Y305541D01*
X568338Y305520D01*
X568284Y305531D01*
X567954Y305465D01*
X567908Y305434D01*
X567852D01*
X567542Y305306D01*
X567503Y305266D01*
X567448Y305256D01*
X567169Y305069D01*
X567138Y305023D01*
X567087Y305002D01*
X566849Y304764D01*
X566828Y304713D01*
X566782Y304682D01*
X566595Y304402D01*
X566584Y304348D01*
X566545Y304309D01*
X566416Y303998D01*
Y303942D01*
X566385Y303896D01*
X566320Y303567D01*
X566330Y303512D01*
X566309Y303461D01*
X566309Y303293D01*
Y279361D01*
X566309Y279360D01*
X549907Y279360D01*
X549407Y279860D01*
X549407Y360486D01*
X549400Y360503D01*
X549406Y360521D01*
X549392Y360742D01*
X549345Y360838D01*
X549338Y360946D01*
X549142Y361343D01*
X549062Y361415D01*
X549014Y361511D01*
X548681Y361804D01*
X548580Y361838D01*
X548499Y361910D01*
X548080Y362052D01*
X547972Y362046D01*
X547870Y362080D01*
X547667Y362067D01*
X528534D01*
X528333Y362080D01*
X528231Y362045D01*
X528124Y362052D01*
X527710Y361911D01*
X527630Y361840D01*
X527528Y361805D01*
X527200Y361517D01*
X527152Y361420D01*
X527071Y361349D01*
X526879Y360957D01*
X526872Y360849D01*
X526824Y360753D01*
X526810Y360535D01*
X526816Y360517D01*
X526809Y360500D01*
Y354082D01*
X525114D01*
X525085Y354076D01*
X524275Y354237D01*
X523588Y354696D01*
X523571Y354721D01*
X523537Y354744D01*
X523038Y355492D01*
X522862Y356374D01*
X522870Y356414D01*
Y367000D01*
X522862Y367040D01*
X523038Y367922D01*
X523537Y368671D01*
X523571Y368693D01*
X523588Y368718D01*
X524275Y369177D01*
X525085Y369338D01*
X525114Y369333D01*
X570293D01*
X570308Y369336D01*
X571019Y369194D01*
X571234Y369050D01*
X571617Y368767D01*
X571762Y368549D01*
X571813Y368293D01*
X571831D01*
Y367488D01*
X570776D01*
Y363496D01*
X574925D01*
Y367488D01*
X573870D01*
Y368293D01*
X573874D01*
X573781Y369000D01*
X573508Y369658D01*
X573074Y370224D01*
X573081Y370231D01*
X572265Y370858D01*
X571584Y371140D01*
X571683Y371640D01*
X590722D01*
X591211Y371640D01*
D02*
G37*
G36*
X548324Y361397D02*
X548657Y361105D01*
X548852Y360707D01*
X548866Y360486D01*
X548866Y279361D01*
X497350Y279361D01*
Y284969D01*
X497598Y286212D01*
X498082Y287383D01*
X498786Y288436D01*
X499381Y289030D01*
X499725Y289261D01*
X500108Y289419D01*
X500515Y289500D01*
X500850D01*
X501679Y289541D01*
X503303Y289864D01*
X504834Y290498D01*
X506211Y291418D01*
X506825Y291975D01*
X513921Y299071D01*
X513921Y299071D01*
Y299071D01*
X514618Y299767D01*
X516256Y300862D01*
X518076Y301616D01*
X520008Y302000D01*
X536729D01*
X537231Y302025D01*
X538216Y302221D01*
X539143Y302605D01*
X539978Y303163D01*
X540350Y303500D01*
X540575Y303748D01*
X540947Y304305D01*
X541203Y304923D01*
X541334Y305580D01*
X541350Y305914D01*
Y340323D01*
X541342Y340490D01*
X541277Y340819D01*
X541149Y341128D01*
X540963Y341406D01*
X540850Y341530D01*
X540773Y341600D01*
X540601Y341715D01*
X540410Y341794D01*
X540206Y341835D01*
X540103Y341840D01*
X538597D01*
Y344310D01*
X538597D01*
Y344598D01*
X529724D01*
Y342002D01*
X529223Y341852D01*
X528829Y341930D01*
X528401Y342108D01*
X528015Y342366D01*
X527732Y342649D01*
X527545Y342929D01*
X527416Y343239D01*
X527350Y343569D01*
Y352043D01*
X529724D01*
Y351972D01*
X538597D01*
Y353940D01*
Y358090D01*
X538597D01*
Y358378D01*
X529724D01*
Y354441D01*
X529724D01*
Y354082D01*
X527350D01*
Y360500D01*
X527364Y360718D01*
X527557Y361110D01*
X527885Y361399D01*
X528299Y361540D01*
X528517Y361526D01*
X547684D01*
X547905Y361540D01*
X548324Y361397D01*
D02*
G37*
G36*
X589811Y320369D02*
X589811Y320369D01*
X589812D01*
X590270Y320311D01*
X590309Y320303D01*
X590620Y320175D01*
X590900Y319988D01*
X591137Y319750D01*
X591324Y319470D01*
X591453Y319160D01*
X591518Y318830D01*
X591518Y318662D01*
X591518Y302595D01*
X591518Y302595D01*
X591518Y302427D01*
X591453Y302097D01*
X591324Y301787D01*
X591137Y301507D01*
X590900Y301269D01*
X590620Y301083D01*
X590309Y300954D01*
X589980Y300888D01*
X589811Y300888D01*
X575757D01*
X575757Y300888D01*
X575589Y300880D01*
X575261Y300815D01*
X574952Y300687D01*
X574674Y300501D01*
X574550Y300388D01*
X574437Y300264D01*
X574251Y299986D01*
X574123Y299677D01*
X574058Y299348D01*
X574050Y299181D01*
Y279361D01*
X566850D01*
Y303293D01*
X566850Y303461D01*
X566916Y303791D01*
X567045Y304101D01*
X567232Y304381D01*
X567469Y304619D01*
X567749Y304806D01*
X568060Y304934D01*
X568389Y305000D01*
X568558Y305000D01*
X568725Y305008D01*
X569053Y305073D01*
X569362Y305202D01*
X569640Y305387D01*
X569765Y305500D01*
X569877Y305624D01*
X570063Y305902D01*
X570191Y306211D01*
X570256Y306540D01*
X570265Y306707D01*
X570265Y306875D01*
X570330Y307205D01*
X570459Y307516D01*
X570646Y307795D01*
X570884Y308033D01*
X571163Y308220D01*
X571474Y308349D01*
X571804Y308414D01*
X571972Y308414D01*
X573143Y308414D01*
X573311Y308422D01*
X573639Y308488D01*
X573948Y308616D01*
X574226Y308802D01*
X574350Y308914D01*
X574463Y309038D01*
X574649Y309317D01*
X574777Y309626D01*
X574842Y309954D01*
X574850Y310121D01*
X574850Y318162D01*
X574850Y318662D01*
X574911Y319136D01*
X574916Y319160D01*
X575045Y319470D01*
X575232Y319750D01*
X575469Y319988D01*
X575749Y320175D01*
X576060Y320303D01*
X576389Y320369D01*
X576557Y320369D01*
X589811Y320369D01*
X589811Y320369D01*
D02*
G37*
%LPC*%
G36*
X77928Y366079D02*
X76157D01*
X75347Y365918D01*
X74661Y365459D01*
X74202Y364773D01*
X74041Y363963D01*
X74202Y363154D01*
X74661Y362468D01*
X75347Y362009D01*
X76157Y361848D01*
X77928D01*
X78738Y362009D01*
X79424Y362468D01*
X79883Y363154D01*
X80044Y363963D01*
X79883Y364773D01*
X79424Y365459D01*
X78738Y365918D01*
X77928Y366079D01*
D02*
G37*
G36*
X71354Y363579D02*
X69582D01*
X68772Y363418D01*
X68086Y362959D01*
X67628Y362273D01*
X67466Y361463D01*
X67628Y360654D01*
X68086Y359967D01*
X68772Y359509D01*
X69582Y359348D01*
X71354D01*
X72163Y359509D01*
X72849Y359967D01*
X73308Y360654D01*
X73469Y361463D01*
X73308Y362273D01*
X72849Y362959D01*
X72163Y363418D01*
X71354Y363579D01*
D02*
G37*
G36*
Y358579D02*
X69582D01*
X68772Y358418D01*
X68086Y357959D01*
X67628Y357273D01*
X67466Y356463D01*
X67628Y355654D01*
X68086Y354967D01*
X68772Y354509D01*
X69582Y354348D01*
X71354D01*
X72163Y354509D01*
X72849Y354967D01*
X73308Y355654D01*
X73469Y356463D01*
X73308Y357273D01*
X72849Y357959D01*
X72163Y358418D01*
X71354Y358579D01*
D02*
G37*
G36*
X77928Y356079D02*
X76157D01*
X75347Y355918D01*
X74661Y355459D01*
X74202Y354773D01*
X74041Y353963D01*
X74202Y353154D01*
X74661Y352467D01*
X75347Y352009D01*
X76157Y351848D01*
X77928D01*
X78738Y352009D01*
X79424Y352467D01*
X79883Y353154D01*
X80044Y353963D01*
X79883Y354773D01*
X79424Y355459D01*
X78738Y355918D01*
X77928Y356079D01*
D02*
G37*
G36*
Y351079D02*
X76157D01*
X75347Y350918D01*
X74661Y350459D01*
X74202Y349773D01*
X74041Y348963D01*
X74202Y348154D01*
X74661Y347467D01*
X75347Y347009D01*
X76157Y346848D01*
X77928D01*
X78738Y347009D01*
X79424Y347467D01*
X79883Y348154D01*
X80044Y348963D01*
X79883Y349773D01*
X79424Y350459D01*
X78738Y350918D01*
X77928Y351079D01*
D02*
G37*
G36*
X71354Y348579D02*
X69582D01*
X68772Y348418D01*
X68086Y347959D01*
X67628Y347273D01*
X67466Y346463D01*
X67628Y345654D01*
X68086Y344968D01*
X68772Y344509D01*
X69582Y344348D01*
X71354D01*
X72163Y344509D01*
X72849Y344968D01*
X73308Y345654D01*
X73469Y346463D01*
X73308Y347273D01*
X72849Y347959D01*
X72163Y348418D01*
X71354Y348579D01*
D02*
G37*
G36*
X77928Y341079D02*
X76157D01*
X75347Y340918D01*
X74661Y340459D01*
X74202Y339773D01*
X74041Y338963D01*
X74202Y338154D01*
X74661Y337468D01*
X75347Y337009D01*
X76157Y336848D01*
X77928D01*
X78738Y337009D01*
X79424Y337468D01*
X79883Y338154D01*
X80044Y338963D01*
X79883Y339773D01*
X79424Y340459D01*
X78738Y340918D01*
X77928Y341079D01*
D02*
G37*
G36*
X71354Y338579D02*
X69582D01*
X68772Y338418D01*
X68086Y337959D01*
X67628Y337273D01*
X67466Y336463D01*
X67628Y335654D01*
X68086Y334967D01*
X68772Y334509D01*
X69582Y334348D01*
X71354D01*
X72163Y334509D01*
X72849Y334967D01*
X73308Y335654D01*
X73469Y336463D01*
X73308Y337273D01*
X72849Y337959D01*
X72163Y338418D01*
X71354Y338579D01*
D02*
G37*
G36*
Y333579D02*
X69582D01*
X68772Y333418D01*
X68086Y332959D01*
X67628Y332273D01*
X67466Y331463D01*
X67628Y330654D01*
X68086Y329967D01*
X68772Y329509D01*
X69582Y329348D01*
X71354D01*
X72163Y329509D01*
X72849Y329967D01*
X73308Y330654D01*
X73469Y331463D01*
X73308Y332273D01*
X72849Y332959D01*
X72163Y333418D01*
X71354Y333579D01*
D02*
G37*
G36*
X77928Y331079D02*
X76157D01*
X75347Y330918D01*
X74661Y330459D01*
X74202Y329773D01*
X74041Y328963D01*
X74202Y328154D01*
X74661Y327467D01*
X75347Y327009D01*
X76157Y326848D01*
X77928D01*
X78738Y327009D01*
X79424Y327467D01*
X79883Y328154D01*
X80044Y328963D01*
X79883Y329773D01*
X79424Y330459D01*
X78738Y330918D01*
X77928Y331079D01*
D02*
G37*
G36*
Y326079D02*
X76157D01*
X75347Y325918D01*
X74661Y325459D01*
X74202Y324773D01*
X74041Y323963D01*
X74202Y323154D01*
X74661Y322467D01*
X75347Y322009D01*
X76157Y321848D01*
X77928D01*
X78738Y322009D01*
X79424Y322467D01*
X79883Y323154D01*
X80044Y323963D01*
X79883Y324773D01*
X79424Y325459D01*
X78738Y325918D01*
X77928Y326079D01*
D02*
G37*
G36*
X71354Y323579D02*
X69582D01*
X68772Y323418D01*
X68086Y322959D01*
X67628Y322273D01*
X67466Y321463D01*
X67628Y320654D01*
X68086Y319968D01*
X68772Y319509D01*
X69582Y319348D01*
X71354D01*
X72163Y319509D01*
X72849Y319968D01*
X73308Y320654D01*
X73469Y321463D01*
X73308Y322273D01*
X72849Y322959D01*
X72163Y323418D01*
X71354Y323579D01*
D02*
G37*
G36*
X77928Y313709D02*
X76157D01*
X75347Y313548D01*
X74661Y313089D01*
X74202Y312403D01*
X74041Y311593D01*
X74202Y310784D01*
X74661Y310098D01*
X75347Y309639D01*
X76157Y309478D01*
X77928D01*
X78738Y309639D01*
X79424Y310098D01*
X79883Y310784D01*
X80044Y311593D01*
X79883Y312403D01*
X79424Y313089D01*
X78738Y313548D01*
X77928Y313709D01*
D02*
G37*
G36*
X71354Y311209D02*
X69582D01*
X68772Y311048D01*
X68086Y310589D01*
X67628Y309903D01*
X67466Y309093D01*
X67628Y308284D01*
X68086Y307598D01*
X68772Y307139D01*
X69582Y306978D01*
X71354D01*
X72163Y307139D01*
X72849Y307598D01*
X73308Y308284D01*
X73469Y309093D01*
X73308Y309903D01*
X72849Y310589D01*
X72163Y311048D01*
X71354Y311209D01*
D02*
G37*
G36*
Y306209D02*
X69582D01*
X68772Y306048D01*
X68086Y305589D01*
X67628Y304903D01*
X67466Y304093D01*
X67628Y303284D01*
X68086Y302598D01*
X68772Y302139D01*
X69582Y301978D01*
X71354D01*
X72163Y302139D01*
X72849Y302598D01*
X73308Y303284D01*
X73469Y304093D01*
X73308Y304903D01*
X72849Y305589D01*
X72163Y306048D01*
X71354Y306209D01*
D02*
G37*
G36*
X77928Y303709D02*
X76157D01*
X75347Y303548D01*
X74661Y303089D01*
X74202Y302403D01*
X74041Y301593D01*
X74202Y300784D01*
X74661Y300098D01*
X75347Y299639D01*
X76157Y299478D01*
X77928D01*
X78738Y299639D01*
X79424Y300098D01*
X79883Y300784D01*
X80044Y301593D01*
X79883Y302403D01*
X79424Y303089D01*
X78738Y303548D01*
X77928Y303709D01*
D02*
G37*
G36*
Y298709D02*
X76157D01*
X75347Y298548D01*
X74661Y298089D01*
X74202Y297403D01*
X74041Y296593D01*
X74202Y295784D01*
X74661Y295098D01*
X75347Y294639D01*
X76157Y294478D01*
X77928D01*
X78738Y294639D01*
X79424Y295098D01*
X79883Y295784D01*
X80044Y296593D01*
X79883Y297403D01*
X79424Y298089D01*
X78738Y298548D01*
X77928Y298709D01*
D02*
G37*
G36*
X71354Y296209D02*
X69582D01*
X68772Y296048D01*
X68086Y295589D01*
X67628Y294903D01*
X67466Y294093D01*
X67628Y293284D01*
X68086Y292598D01*
X68772Y292139D01*
X69582Y291978D01*
X71354D01*
X72163Y292139D01*
X72849Y292598D01*
X73308Y293284D01*
X73469Y294093D01*
X73308Y294903D01*
X72849Y295589D01*
X72163Y296048D01*
X71354Y296209D01*
D02*
G37*
G36*
Y286209D02*
X69582D01*
X68772Y286048D01*
X68086Y285589D01*
X67628Y284903D01*
X67466Y284093D01*
X67628Y283284D01*
X68086Y282598D01*
X68772Y282139D01*
X69582Y281978D01*
X71354D01*
X72163Y282139D01*
X72849Y282598D01*
X73308Y283284D01*
X73469Y284093D01*
X73308Y284903D01*
X72849Y285589D01*
X72163Y286048D01*
X71354Y286209D01*
D02*
G37*
G36*
X567096Y360591D02*
X566439D01*
X565833Y360340D01*
X565369Y359876D01*
X565118Y359269D01*
Y358988D01*
X564853Y358876D01*
X564688Y358947D01*
X564390Y359203D01*
Y359363D01*
X555515D01*
Y358575D01*
X555515D01*
Y355426D01*
X555515D01*
Y354638D01*
X564390Y354636D01*
X564390Y354797D01*
X564688Y355053D01*
X564853Y355124D01*
X565118Y355012D01*
Y354731D01*
X565369Y354124D01*
X565833Y353660D01*
X566439Y353409D01*
X567096D01*
X567702Y353660D01*
X568166Y354124D01*
X568418Y354731D01*
Y355387D01*
X568166Y355993D01*
X567702Y356457D01*
X567096Y356709D01*
X566548D01*
X566458Y356855D01*
X566529Y357271D01*
X566548Y357291D01*
X567096D01*
X567702Y357542D01*
X568166Y358007D01*
X568418Y358613D01*
Y359269D01*
X568166Y359876D01*
X567702Y360340D01*
X567096Y360591D01*
D02*
G37*
G36*
X574925Y361504D02*
X570776D01*
Y357512D01*
X574925D01*
Y358488D01*
X576933D01*
Y356272D01*
X583445D01*
Y361209D01*
X576933D01*
Y360527D01*
X574925D01*
Y361504D01*
D02*
G37*
G36*
X571096Y354686D02*
X570439D01*
X569833Y354434D01*
X569369Y353970D01*
X569117Y353364D01*
Y352977D01*
X568642Y352780D01*
X567771Y352666D01*
Y352661D01*
X564390D01*
Y353169D01*
X564390D01*
Y353457D01*
X555515D01*
Y352670D01*
X555515D01*
Y349520D01*
X555515D01*
Y348732D01*
X564390Y348731D01*
X564390Y349028D01*
X564767Y349528D01*
X567771D01*
Y349523D01*
X568642Y349409D01*
X569117Y349212D01*
Y348825D01*
X569369Y348218D01*
X569833Y347754D01*
X570439Y347503D01*
X571096D01*
X571702Y347754D01*
X572166Y348218D01*
X572417Y348825D01*
Y349481D01*
X572166Y350088D01*
X571702Y350552D01*
X571096Y350803D01*
X570439D01*
X570189Y350699D01*
X569984Y350811D01*
Y351378D01*
X570189Y351490D01*
X570439Y351386D01*
X571096D01*
X571702Y351637D01*
X572166Y352101D01*
X572417Y352708D01*
Y353364D01*
X572166Y353970D01*
X571702Y354434D01*
X571096Y354686D01*
D02*
G37*
G36*
X567096Y348780D02*
X566439D01*
X565833Y348529D01*
X565369Y348065D01*
X565118Y347458D01*
Y347177D01*
X564853Y347065D01*
X564688Y347136D01*
X564390Y347392D01*
Y347552D01*
X555515D01*
Y346764D01*
X555515D01*
Y343615D01*
X555515D01*
Y342827D01*
X564390Y342825D01*
X564390Y342986D01*
X564688Y343242D01*
X564853Y343313D01*
X565118Y343201D01*
Y342919D01*
X565369Y342313D01*
X565833Y341849D01*
X566439Y341598D01*
X567096D01*
X567702Y341849D01*
X568166Y342313D01*
X568418Y342919D01*
Y343576D01*
X568166Y344182D01*
X567702Y344647D01*
X567096Y344898D01*
X566548D01*
X566458Y345044D01*
X566529Y345460D01*
X566548Y345480D01*
X567096D01*
X567702Y345731D01*
X568166Y346196D01*
X568418Y346802D01*
Y347458D01*
X568166Y348065D01*
X567702Y348529D01*
X567096Y348780D01*
D02*
G37*
G36*
X571096Y342875D02*
X570439D01*
X569833Y342623D01*
X569369Y342159D01*
X569117Y341553D01*
Y341166D01*
X568642Y340969D01*
X567771Y340855D01*
Y340850D01*
X564390D01*
Y341358D01*
X564390D01*
Y341646D01*
X555515Y341646D01*
Y340858D01*
X555515D01*
Y337709D01*
X555515D01*
Y336921D01*
X564390Y336920D01*
X564390Y337217D01*
X564767Y337717D01*
X567771D01*
Y337712D01*
X568642Y337597D01*
X569117Y337401D01*
Y337014D01*
X569369Y336407D01*
X569833Y335943D01*
X570439Y335692D01*
X571096D01*
X571702Y335943D01*
X572166Y336407D01*
X572417Y337014D01*
Y337670D01*
X572166Y338277D01*
X571702Y338741D01*
X571096Y338992D01*
X570439D01*
X570189Y338888D01*
X569984Y339000D01*
Y339567D01*
X570189Y339679D01*
X570439Y339575D01*
X571096D01*
X571702Y339826D01*
X572166Y340290D01*
X572417Y340896D01*
Y341553D01*
X572166Y342159D01*
X571702Y342623D01*
X571096Y342875D01*
D02*
G37*
G36*
X567096Y336969D02*
X566439D01*
X565833Y336718D01*
X565369Y336254D01*
X565118Y335647D01*
Y335366D01*
X564853Y335254D01*
X564688Y335325D01*
X564390Y335581D01*
Y335741D01*
X555515D01*
Y334953D01*
X555515D01*
Y331804D01*
X555515D01*
Y331016D01*
X564390Y331014D01*
X564390Y331174D01*
X564688Y331431D01*
X564853Y331502D01*
X565118Y331390D01*
Y331108D01*
X565369Y330502D01*
X565833Y330038D01*
X566439Y329787D01*
X567096D01*
X567702Y330038D01*
X568166Y330502D01*
X568418Y331108D01*
Y331765D01*
X568166Y332371D01*
X567702Y332835D01*
X567096Y333087D01*
X566548D01*
X566458Y333233D01*
X566529Y333649D01*
X566548Y333669D01*
X567096D01*
X567702Y333920D01*
X568166Y334384D01*
X568418Y334991D01*
Y335647D01*
X568166Y336254D01*
X567702Y336718D01*
X567096Y336969D01*
D02*
G37*
G36*
X571096Y331064D02*
X570439D01*
X569833Y330812D01*
X569369Y330348D01*
X569117Y329742D01*
Y329355D01*
X568642Y329158D01*
X567771Y329044D01*
Y329039D01*
X564390D01*
X564390Y329547D01*
X564390Y329547D01*
X564390Y329835D01*
X564009Y329835D01*
X555515D01*
Y329047D01*
X555515D01*
Y325898D01*
X555515D01*
Y325110D01*
X564390Y325109D01*
X564390Y325406D01*
X564767Y325906D01*
X567771D01*
Y325901D01*
X568642Y325786D01*
X569117Y325590D01*
Y325203D01*
X569369Y324597D01*
X569833Y324132D01*
X570439Y323881D01*
X571096D01*
X571702Y324132D01*
X572166Y324597D01*
X572417Y325203D01*
Y325859D01*
X572166Y326466D01*
X571702Y326930D01*
X571096Y327181D01*
X570439D01*
X570189Y327077D01*
X569984Y327188D01*
Y327756D01*
X570189Y327868D01*
X570439Y327764D01*
X571096D01*
X571702Y328015D01*
X572166Y328479D01*
X572417Y329085D01*
Y329742D01*
X572166Y330348D01*
X571702Y330812D01*
X571096Y331064D01*
D02*
G37*
G36*
X567096Y325158D02*
X566439D01*
X565833Y324907D01*
X565369Y324443D01*
X565118Y323836D01*
Y323555D01*
X564853Y323443D01*
X564688Y323514D01*
X564390Y323770D01*
Y323930D01*
X555515D01*
Y323142D01*
X555515D01*
Y319993D01*
X555515D01*
Y319205D01*
X564390Y319203D01*
X564390Y319363D01*
X564688Y319620D01*
X564853Y319691D01*
X565118Y319579D01*
Y319297D01*
X565369Y318691D01*
X565833Y318227D01*
X566439Y317976D01*
X567096D01*
X567702Y318227D01*
X568166Y318691D01*
X568418Y319297D01*
Y319954D01*
X568166Y320560D01*
X567702Y321024D01*
X567096Y321276D01*
X566548D01*
X566458Y321422D01*
X566529Y321838D01*
X566548Y321858D01*
X567096D01*
X567702Y322109D01*
X568166Y322573D01*
X568418Y323180D01*
Y323836D01*
X568166Y324443D01*
X567702Y324907D01*
X567096Y325158D01*
D02*
G37*
G36*
X571096Y319253D02*
X570439D01*
X569833Y319001D01*
X569369Y318537D01*
X569117Y317931D01*
Y317544D01*
X568642Y317347D01*
X567771Y317232D01*
Y317228D01*
X564390D01*
X564390Y317736D01*
X564390Y317736D01*
X564390Y318024D01*
X564009Y318024D01*
X555515D01*
Y317236D01*
X555515D01*
Y314087D01*
X555515D01*
Y313299D01*
X564390Y313298D01*
X564390Y313595D01*
X564767Y314095D01*
X567771D01*
Y314090D01*
X568642Y313975D01*
X569117Y313779D01*
Y313392D01*
X569369Y312785D01*
X569833Y312321D01*
X570439Y312070D01*
X571096D01*
X571702Y312321D01*
X572166Y312785D01*
X572417Y313392D01*
Y314048D01*
X572166Y314655D01*
X571702Y315119D01*
X571096Y315370D01*
X570439D01*
X570189Y315266D01*
X569984Y315377D01*
Y315945D01*
X570189Y316056D01*
X570439Y315953D01*
X571096D01*
X571702Y316204D01*
X572166Y316668D01*
X572417Y317274D01*
Y317931D01*
X572166Y318537D01*
X571702Y319001D01*
X571096Y319253D01*
D02*
G37*
G36*
X567096Y313347D02*
X566439D01*
X565833Y313096D01*
X565369Y312632D01*
X565118Y312025D01*
Y311744D01*
X564853Y311632D01*
X564688Y311703D01*
X564390Y311959D01*
X564390Y312119D01*
X564009Y312119D01*
X555515Y312119D01*
Y311331D01*
X555515D01*
Y308182D01*
X555515D01*
Y307394D01*
X564390Y307392D01*
X564390Y307552D01*
X564688Y307809D01*
X564853Y307880D01*
X565118Y307768D01*
Y307486D01*
X565369Y306880D01*
X565833Y306416D01*
X566439Y306165D01*
X567096D01*
X567702Y306416D01*
X568166Y306880D01*
X568418Y307486D01*
Y308143D01*
X568166Y308749D01*
X567702Y309213D01*
X567096Y309465D01*
X566548D01*
X566458Y309611D01*
X566529Y310027D01*
X566548Y310047D01*
X567096D01*
X567702Y310298D01*
X568166Y310762D01*
X568418Y311369D01*
Y312025D01*
X568166Y312632D01*
X567702Y313096D01*
X567096Y313347D01*
D02*
G37*
G36*
X564390Y306213D02*
X555515D01*
Y305425D01*
X564390Y305424D01*
Y306213D01*
D02*
G37*
G36*
X564390Y298338D02*
X555515D01*
Y297551D01*
X555515D01*
Y294403D01*
X555515D01*
Y293615D01*
X564390Y293614D01*
X564390Y293902D01*
X564390Y294114D01*
Y298050D01*
X564390D01*
Y298338D01*
D02*
G37*
G36*
X529724Y297355D02*
Y294598D01*
X538597Y294596D01*
X538597Y294885D01*
X538597Y295096D01*
Y297353D01*
X529724Y297355D01*
D02*
G37*
G36*
X541913Y289684D02*
X540978D01*
X540074Y289442D01*
X539265Y288975D01*
X538603Y288314D01*
X538136Y287504D01*
X537894Y286601D01*
Y285665D01*
X538136Y284762D01*
X538603Y283953D01*
X539265Y283291D01*
X540074Y282824D01*
X540978Y282582D01*
X541913D01*
X542816Y282824D01*
X543626Y283291D01*
X544287Y283953D01*
X544754Y284762D01*
X544996Y285665D01*
Y286601D01*
X544754Y287504D01*
X544287Y288314D01*
X543626Y288975D01*
X542816Y289442D01*
X541913Y289684D01*
D02*
G37*
%LPD*%
D13*
X534161Y360936D02*
D03*
Y358968D02*
D03*
Y356999D02*
D03*
Y355031D02*
D03*
Y353062D02*
D03*
Y351094D02*
D03*
Y349125D02*
D03*
Y347157D02*
D03*
Y345188D02*
D03*
Y343220D02*
D03*
Y341251D02*
D03*
Y339283D02*
D03*
Y337314D02*
D03*
Y335346D02*
D03*
Y333377D02*
D03*
Y331409D02*
D03*
Y329440D02*
D03*
Y327472D02*
D03*
Y325503D02*
D03*
Y323535D02*
D03*
Y321566D02*
D03*
Y319598D02*
D03*
Y317629D02*
D03*
Y315661D02*
D03*
Y313692D02*
D03*
Y311724D02*
D03*
Y309755D02*
D03*
Y307787D02*
D03*
Y295975D02*
D03*
Y294007D02*
D03*
Y292038D02*
D03*
X559952Y361921D02*
D03*
Y359953D02*
D03*
Y357984D02*
D03*
Y356016D02*
D03*
Y354047D02*
D03*
Y352079D02*
D03*
Y350110D02*
D03*
Y348142D02*
D03*
Y346173D02*
D03*
Y306803D02*
D03*
D03*
Y344205D02*
D03*
Y342236D02*
D03*
Y340268D02*
D03*
Y338299D02*
D03*
Y336331D02*
D03*
Y334362D02*
D03*
Y332394D02*
D03*
Y330425D02*
D03*
Y328457D02*
D03*
Y326488D02*
D03*
Y324520D02*
D03*
Y322551D02*
D03*
Y320583D02*
D03*
Y318614D02*
D03*
Y316646D02*
D03*
Y314677D02*
D03*
Y312709D02*
D03*
Y310740D02*
D03*
Y308772D02*
D03*
Y296960D02*
D03*
X534161Y305818D02*
D03*
Y290070D02*
D03*
X559952Y294993D02*
D03*
Y293023D02*
D03*
Y291053D02*
D03*
Y289086D02*
D03*
D14*
X559951Y284752D02*
D03*
Y366248D02*
D03*
D15*
X572850Y359508D02*
D03*
Y365492D02*
D03*
D16*
X583850Y338598D02*
D03*
Y313402D02*
D03*
D17*
X576842Y287500D02*
D03*
X570858D02*
D03*
X589843Y296500D02*
D03*
X583858D02*
D03*
X576842D02*
D03*
X570858D02*
D03*
X583858Y287500D02*
D03*
X589843D02*
D03*
D18*
X580189Y358740D02*
D03*
Y351260D02*
D03*
X588850Y355000D02*
D03*
D27*
X541445Y364873D02*
D03*
D28*
Y286133D02*
D03*
D29*
X566358Y308224D02*
G03*
X564350Y309056I-2007J-2007D01*
G01*
X560639D02*
G03*
X559952Y308772I0J-970D01*
G01*
X564350Y310456D02*
G03*
X566358Y311287I0J2839D01*
G01*
X559952Y310740D02*
G03*
X560639Y310456I686J686D01*
G01*
X560639Y314961D02*
G03*
X559952Y314677I0J-970D01*
G01*
X570767Y313720D02*
G03*
X567771Y314961I-2997J-2997D01*
G01*
X559952Y316646D02*
G03*
X560639Y316361I686J686D01*
G01*
X567771D02*
G03*
X570767Y317603I0J4238D01*
G01*
X566358Y320035D02*
G03*
X564350Y320867I-2007J-2007D01*
G01*
X560639D02*
G03*
X559952Y320583I0J-970D01*
G01*
X564350Y322267D02*
G03*
X566358Y323098I0J2839D01*
G01*
X559952Y322551D02*
G03*
X560639Y322267I686J686D01*
G01*
X560639Y326772D02*
G03*
X559952Y326488I0J-970D01*
G01*
X570767Y325531D02*
G03*
X567771Y326772I-2997J-2997D01*
G01*
Y328172D02*
G03*
X570767Y329414I0J4238D01*
G01*
X559952Y328457D02*
G03*
X560639Y328172I686J686D01*
G01*
Y332678D02*
G03*
X559952Y332394I0J-970D01*
G01*
X566358Y331846D02*
G03*
X564350Y332678I-2007J-2007D01*
G01*
X559952Y334362D02*
G03*
X560639Y334078I686J686D01*
G01*
X564350D02*
G03*
X566358Y334909I0J2839D01*
G01*
X560639Y338583D02*
G03*
X559952Y338299I0J-970D01*
G01*
X570767Y337342D02*
G03*
X567771Y338583I-2997J-2997D01*
G01*
Y339983D02*
G03*
X570767Y341225I0J4238D01*
G01*
X559952Y340268D02*
G03*
X560639Y339983I686J686D01*
G01*
X566358Y343657D02*
G03*
X564350Y344489I-2007J-2007D01*
G01*
X560639D02*
G03*
X559952Y344205I0J-970D01*
G01*
X564350Y345889D02*
G03*
X566358Y346720I0J2839D01*
G01*
X559952Y346173D02*
G03*
X560639Y345889I686J686D01*
G01*
X560639Y350394D02*
G03*
X559952Y350110I0J-970D01*
G01*
X570767Y349153D02*
G03*
X567771Y350394I-2997J-2997D01*
G01*
X559952Y352079D02*
G03*
X560639Y351794I686J686D01*
G01*
X567771D02*
G03*
X570767Y353036I0J4238D01*
G01*
X566358Y355468D02*
G03*
X564350Y356300I-2007J-2007D01*
G01*
X560639D02*
G03*
X559952Y356016I0J-970D01*
G01*
X564350Y357700D02*
G03*
X566358Y358531I0J2839D01*
G01*
X559952Y357984D02*
G03*
X560639Y357700I686J686D01*
G01*
X527716Y311724D02*
G03*
X520645Y308795I0J-10000D01*
G01*
X499302Y291593D02*
G03*
X506373Y294522I0J10000D01*
G01*
X526685Y313692D02*
G03*
X519614Y310763I0J-10000D01*
G01*
X500708Y296000D02*
G03*
X507779Y298929I0J10000D01*
G01*
X488492Y296000D02*
G03*
X481422Y293071I0J-10000D01*
G01*
X473302Y289093D02*
G03*
X480373Y292022I0J10000D01*
G01*
X580189Y358740D02*
G03*
X578336Y359508I-1853J-1853D01*
G01*
X560639Y309056D02*
X564350D01*
X566358Y308224D02*
X566768Y307815D01*
X566358Y311287D02*
X566768Y311697D01*
X560639Y310456D02*
X564350D01*
X560639Y314961D02*
X567771D01*
X560639Y316361D02*
X567771D01*
X560639Y320867D02*
X564350D01*
X566358Y320035D02*
X566768Y319626D01*
X566358Y323098D02*
X566768Y323508D01*
X560639Y322267D02*
X564350D01*
X560639Y326772D02*
X567771D01*
X560639Y328172D02*
X567771D01*
X560639Y332678D02*
X564350D01*
X566358Y331846D02*
X566768Y331437D01*
X566358Y334909D02*
X566768Y335319D01*
X560639Y334078D02*
X564350D01*
X560639Y338583D02*
X567771D01*
X560639Y339983D02*
X567771D01*
X560639Y344489D02*
X564350D01*
X566358Y343657D02*
X566768Y343248D01*
X566358Y346720D02*
X566768Y347130D01*
X560639Y345889D02*
X564350D01*
X560639Y350394D02*
X567771D01*
X560639Y351794D02*
X567771D01*
X560639Y356300D02*
X564350D01*
X566358Y355468D02*
X566768Y355059D01*
X566358Y358531D02*
X566768Y358941D01*
X560639Y357700D02*
X564350D01*
X527716Y311724D02*
X534161D01*
X506373Y294522D02*
X520645Y308795D01*
X488257Y291593D02*
X499302D01*
X526685Y313692D02*
X534161D01*
X507779Y298929D02*
X519614Y310763D01*
X488492Y296000D02*
X500708D01*
X488492D02*
X488492D01*
X480373Y292022D02*
X481422Y293071D01*
X71255Y289093D02*
X473302Y289093D01*
D30*
X589922Y296579D02*
G03*
X592850Y303650I-7071J7071D01*
G01*
Y350586D02*
G03*
X591850Y353000I-3414J0D01*
G01*
X590557Y354293D02*
G03*
X588850Y355000I-1707J-1707D01*
G01*
X572350Y369500D02*
G03*
X570293Y370352I-2057J-2057D01*
G01*
X572850Y368293D02*
G03*
X572350Y369500I-1707J0D01*
G01*
X525114Y370352D02*
G03*
X522850Y369414I0J-3202D01*
G01*
D02*
G03*
X521850Y367000I2414J-2414D01*
G01*
X522850Y354000D02*
G03*
X525114Y353062I2264J2264D01*
G01*
X521850Y356414D02*
G03*
X522850Y354000I3414J0D01*
G01*
X576842Y296500D02*
X583858D01*
X576842Y287500D02*
X583858D01*
X589843Y296500D02*
X589922Y296579D01*
X589843Y287500D02*
X589843Y287500D01*
Y296500D01*
X592850Y303650D02*
Y350586D01*
X590557Y354293D02*
X591850Y353000D01*
X572850Y359508D02*
X578336D01*
X525114Y370352D02*
X570293D01*
X572850Y365492D02*
Y368293D01*
X525114Y353062D02*
X534161D01*
X521850Y356414D02*
Y367000D01*
D31*
X70468Y309093D02*
D03*
X77043Y318963D02*
D03*
Y353963D02*
D03*
Y363963D02*
D03*
Y358963D02*
D03*
Y348963D02*
D03*
Y328963D02*
D03*
Y343963D02*
D03*
Y338963D02*
D03*
Y333963D02*
D03*
Y323963D02*
D03*
Y291593D02*
D03*
Y311593D02*
D03*
Y306593D02*
D03*
Y301593D02*
D03*
Y296593D02*
D03*
X70468Y284093D02*
D03*
X77043Y286593D02*
D03*
X70468Y289093D02*
D03*
Y304093D02*
D03*
Y299093D02*
D03*
Y294093D02*
D03*
Y321463D02*
D03*
Y326463D02*
D03*
Y314093D02*
D03*
Y366463D02*
D03*
Y361463D02*
D03*
Y356463D02*
D03*
Y351463D02*
D03*
Y346463D02*
D03*
Y341463D02*
D03*
Y336463D02*
D03*
Y331463D02*
D03*
D32*
X96055Y298200D02*
D03*
X83555Y368400D02*
D03*
X96055D02*
D03*
X333555D02*
D03*
X346055D02*
D03*
Y363100D02*
D03*
X333555D02*
D03*
X283555D02*
D03*
X258555D02*
D03*
X271055D02*
D03*
X233555D02*
D03*
X246055D02*
D03*
X221055D02*
D03*
X233555Y368400D02*
D03*
X221055D02*
D03*
X258555D02*
D03*
X246055D02*
D03*
X283555D02*
D03*
X271055D02*
D03*
X296055Y363100D02*
D03*
X308555D02*
D03*
X296055Y368400D02*
D03*
X308555D02*
D03*
X321055Y363100D02*
D03*
Y368400D02*
D03*
X346055Y303500D02*
D03*
X333555D02*
D03*
X346055Y298200D02*
D03*
X333555D02*
D03*
X321055Y303500D02*
D03*
X308555D02*
D03*
X321055Y298200D02*
D03*
X308555D02*
D03*
X283555Y303500D02*
D03*
X296055D02*
D03*
X258555D02*
D03*
X271055D02*
D03*
X233555D02*
D03*
X246055D02*
D03*
X221055D02*
D03*
X233555Y298200D02*
D03*
X221055D02*
D03*
X258555D02*
D03*
X246055D02*
D03*
X283555D02*
D03*
X271055D02*
D03*
X296055D02*
D03*
X421350D02*
D03*
X446350D02*
D03*
X433850D02*
D03*
X471350D02*
D03*
X458850D02*
D03*
X396350D02*
D03*
X408850D02*
D03*
X371350D02*
D03*
X383850D02*
D03*
X208555D02*
D03*
X358850D02*
D03*
X183555D02*
D03*
X196055D02*
D03*
X158555D02*
D03*
X171055D02*
D03*
X133555D02*
D03*
X146055D02*
D03*
X121055D02*
D03*
X108555D02*
D03*
Y303500D02*
D03*
X121055D02*
D03*
X133555D02*
D03*
X158555D02*
D03*
X146055D02*
D03*
X183555D02*
D03*
X171055D02*
D03*
X208555D02*
D03*
X196055D02*
D03*
X371350D02*
D03*
X358850D02*
D03*
X396350D02*
D03*
X383850D02*
D03*
X421350D02*
D03*
X408850D02*
D03*
X471350D02*
D03*
X483850D02*
D03*
X446350D02*
D03*
X458850D02*
D03*
X433850D02*
D03*
X496350D02*
D03*
X108555Y363100D02*
D03*
X121055D02*
D03*
X133555D02*
D03*
X158555D02*
D03*
X146055D02*
D03*
X183555D02*
D03*
X171055D02*
D03*
X208555D02*
D03*
X196055D02*
D03*
X371350D02*
D03*
X358850D02*
D03*
X396350D02*
D03*
X383850D02*
D03*
X421350D02*
D03*
X408850D02*
D03*
X471350D02*
D03*
X483850D02*
D03*
X446350D02*
D03*
X458850D02*
D03*
X433850D02*
D03*
X496350D02*
D03*
X508850D02*
D03*
Y368400D02*
D03*
X496350D02*
D03*
X433850D02*
D03*
X458850D02*
D03*
X446350D02*
D03*
X483850D02*
D03*
X471350D02*
D03*
X408850D02*
D03*
X421350D02*
D03*
X383850D02*
D03*
X396350D02*
D03*
X358850D02*
D03*
X371350D02*
D03*
X196055D02*
D03*
X208555D02*
D03*
X171055D02*
D03*
X183555D02*
D03*
X146055D02*
D03*
X158555D02*
D03*
X133555D02*
D03*
X121055D02*
D03*
X108555D02*
D03*
D33*
X566768Y311697D02*
D03*
Y307815D02*
D03*
Y358941D02*
D03*
Y355059D02*
D03*
X570767Y353036D02*
D03*
Y349153D02*
D03*
Y341225D02*
D03*
Y337342D02*
D03*
X566768Y343248D02*
D03*
Y347130D02*
D03*
Y335319D02*
D03*
Y331437D02*
D03*
X570767Y329414D02*
D03*
Y325531D02*
D03*
X566768Y319626D02*
D03*
Y323508D02*
D03*
X570767Y313720D02*
D03*
Y317603D02*
D03*
X488257Y291593D02*
D03*
D34*
X525114Y360850D02*
D03*
X549776Y367150D02*
D03*
X545776D02*
D03*
X545926Y364150D02*
D03*
X549926D02*
D03*
X532964D02*
D03*
X528964D02*
D03*
X536964D02*
D03*
X525114Y367150D02*
D03*
Y364000D02*
D03*
X537114Y367150D02*
D03*
X529114D02*
D03*
X533114D02*
D03*
X585850Y361000D02*
D03*
X589850D02*
D03*
Y365000D02*
D03*
X581850D02*
D03*
X585850D02*
D03*
X577850D02*
D03*
X585850Y369000D02*
D03*
X581850D02*
D03*
X577850D02*
D03*
X589850D02*
D03*
X587850Y347250D02*
D03*
X575850D02*
D03*
X579850D02*
D03*
X583850D02*
D03*
X527350Y291000D02*
D03*
Y294750D02*
D03*
Y298500D02*
D03*
X535350Y283500D02*
D03*
Y287250D02*
D03*
X527350Y283500D02*
D03*
X531350D02*
D03*
Y287250D02*
D03*
X527350D02*
D03*
X503350D02*
D03*
X507350D02*
D03*
X515350D02*
D03*
X519350D02*
D03*
X511350D02*
D03*
X523350D02*
D03*
X503350Y283500D02*
D03*
X499350D02*
D03*
X511350D02*
D03*
X507350D02*
D03*
X511350Y291000D02*
D03*
X515350Y294750D02*
D03*
X519350D02*
D03*
X523350Y298500D02*
D03*
Y283500D02*
D03*
X515350D02*
D03*
X519350D02*
D03*
Y291000D02*
D03*
X515350D02*
D03*
X519350Y298500D02*
D03*
X523350Y294750D02*
D03*
Y291000D02*
D03*
X570350Y281000D02*
D03*
X572550D02*
D03*
X568150D02*
D03*
X572550Y283200D02*
D03*
X570350D02*
D03*
X568150D02*
D03*
Y292000D02*
D03*
X570350D02*
D03*
X572550D02*
D03*
Y300800D02*
D03*
X570350D02*
D03*
X568150D02*
D03*
M02*
