G04*
G04 #@! TF.GenerationSoftware,Altium Limited,Altium Designer,22.3.1 (43)*
G04*
G04 Layer_Color=255*
%FSLAX25Y25*%
%MOIN*%
G70*
G04*
G04 #@! TF.SameCoordinates,E818B628-65F0-44BA-8D72-483C3118F3C7*
G04*
G04*
G04 #@! TF.FilePolarity,Positive*
G04*
G01*
G75*
%ADD13R,0.07874X0.01181*%
%ADD14R,0.10827X0.04724*%
%ADD15R,0.03150X0.02992*%
%ADD16R,0.11811X0.10236*%
%ADD17R,0.02992X0.03150*%
%ADD18R,0.05512X0.03937*%
%ADD27C,0.04134*%
%ADD28C,0.06102*%
%ADD31O,0.04921X0.03150*%
D13*
X534161Y360936D02*
D03*
Y358968D02*
D03*
Y356999D02*
D03*
Y355031D02*
D03*
Y353062D02*
D03*
Y351094D02*
D03*
Y349125D02*
D03*
Y347157D02*
D03*
Y345188D02*
D03*
Y343220D02*
D03*
Y341251D02*
D03*
Y339283D02*
D03*
Y337314D02*
D03*
Y335346D02*
D03*
Y333377D02*
D03*
Y331409D02*
D03*
Y329440D02*
D03*
Y327472D02*
D03*
Y325503D02*
D03*
Y323535D02*
D03*
Y321566D02*
D03*
Y319598D02*
D03*
Y317629D02*
D03*
Y315661D02*
D03*
Y313692D02*
D03*
Y311724D02*
D03*
Y309755D02*
D03*
Y307787D02*
D03*
Y295975D02*
D03*
Y294007D02*
D03*
Y292038D02*
D03*
X559952Y361921D02*
D03*
Y359953D02*
D03*
Y357984D02*
D03*
Y356016D02*
D03*
Y354047D02*
D03*
Y352079D02*
D03*
Y350110D02*
D03*
Y348142D02*
D03*
Y346173D02*
D03*
Y306803D02*
D03*
D03*
Y344205D02*
D03*
Y342236D02*
D03*
Y340268D02*
D03*
Y338299D02*
D03*
Y336331D02*
D03*
Y334362D02*
D03*
Y332394D02*
D03*
Y330425D02*
D03*
Y328457D02*
D03*
Y326488D02*
D03*
Y324520D02*
D03*
Y322551D02*
D03*
Y320583D02*
D03*
Y318614D02*
D03*
Y316646D02*
D03*
Y314677D02*
D03*
Y312709D02*
D03*
Y310740D02*
D03*
Y308772D02*
D03*
Y296960D02*
D03*
X534161Y305818D02*
D03*
Y290070D02*
D03*
X559952Y294993D02*
D03*
Y293023D02*
D03*
Y291053D02*
D03*
Y289086D02*
D03*
D14*
X559951Y284752D02*
D03*
Y366248D02*
D03*
D15*
X572850Y359508D02*
D03*
Y365492D02*
D03*
D16*
X583850Y338598D02*
D03*
Y313402D02*
D03*
D17*
X576842Y287500D02*
D03*
X570858D02*
D03*
X589843Y296500D02*
D03*
X583858D02*
D03*
X576842D02*
D03*
X570858D02*
D03*
X583858Y287500D02*
D03*
X589843D02*
D03*
D18*
X580189Y358740D02*
D03*
Y351260D02*
D03*
X588850Y355000D02*
D03*
D27*
X541445Y364873D02*
D03*
D28*
Y286133D02*
D03*
D31*
X70468Y309093D02*
D03*
X77043Y318963D02*
D03*
Y353963D02*
D03*
Y363963D02*
D03*
Y358963D02*
D03*
Y348963D02*
D03*
Y328963D02*
D03*
Y343963D02*
D03*
Y338963D02*
D03*
Y333963D02*
D03*
Y323963D02*
D03*
Y291593D02*
D03*
Y311593D02*
D03*
Y306593D02*
D03*
Y301593D02*
D03*
Y296593D02*
D03*
X70468Y284093D02*
D03*
X77043Y286593D02*
D03*
X70468Y289093D02*
D03*
Y304093D02*
D03*
Y299093D02*
D03*
Y294093D02*
D03*
Y321463D02*
D03*
Y326463D02*
D03*
Y314093D02*
D03*
Y366463D02*
D03*
Y361463D02*
D03*
Y356463D02*
D03*
Y351463D02*
D03*
Y346463D02*
D03*
Y341463D02*
D03*
Y336463D02*
D03*
Y331463D02*
D03*
M02*
