G04*
G04 #@! TF.GenerationSoftware,Altium Limited,Altium Designer,22.3.1 (43)*
G04*
G04 Layer_Color=2752767*
%FSLAX25Y25*%
%MOIN*%
G70*
G04*
G04 #@! TF.SameCoordinates,E818B628-65F0-44BA-8D72-483C3118F3C7*
G04*
G04*
G04 #@! TF.FilePolarity,Positive*
G04*
G01*
G75*
%ADD36C,0.00200*%
%ADD37C,0.00267*%
D36*
X70455Y308293D02*
Y309893D01*
X72055D01*
Y308293D01*
X70455D01*
X75455Y318163D02*
Y319763D01*
X77055D01*
Y318163D01*
X75455D01*
Y353163D02*
Y354763D01*
X77055D01*
Y353163D01*
X75455D01*
Y363163D02*
Y364763D01*
X77055D01*
Y363163D01*
X75455D01*
Y358163D02*
Y359763D01*
X77055D01*
Y358163D01*
X75455D01*
Y348163D02*
Y349763D01*
X77055D01*
Y348163D01*
X75455D01*
Y328163D02*
Y329763D01*
X77055D01*
Y328163D01*
X75455D01*
Y343163D02*
Y344763D01*
X77055D01*
Y343163D01*
X75455D01*
Y338163D02*
Y339763D01*
X77055D01*
Y338163D01*
X75455D01*
Y333163D02*
Y334763D01*
X77055D01*
Y333163D01*
X75455D01*
Y323163D02*
Y324763D01*
X77055D01*
Y323163D01*
X75455D01*
Y290793D02*
Y292393D01*
X77055D01*
Y290793D01*
X75455D01*
Y310793D02*
Y312393D01*
X77055D01*
Y310793D01*
X75455D01*
Y305793D02*
Y307393D01*
X77055D01*
Y305793D01*
X75455D01*
Y300793D02*
Y302393D01*
X77055D01*
Y300793D01*
X75455D01*
Y295793D02*
Y297393D01*
X77055D01*
Y295793D01*
X75455D01*
X70455Y283293D02*
Y284893D01*
X72055D01*
Y283293D01*
X70455D01*
X75455Y285793D02*
Y287393D01*
X77055D01*
Y285793D01*
X75455D01*
X70455Y288293D02*
Y289893D01*
X72055D01*
Y288293D01*
X70455D01*
Y303293D02*
Y304893D01*
X72055D01*
Y303293D01*
X70455D01*
Y298293D02*
Y299893D01*
X72055D01*
Y298293D01*
X70455D01*
Y293293D02*
Y294893D01*
X72055D01*
Y293293D01*
X70455D01*
Y320663D02*
Y322263D01*
X72055D01*
Y320663D01*
X70455D01*
Y325663D02*
Y327263D01*
X72055D01*
Y325663D01*
X70455D01*
Y313293D02*
Y314893D01*
X72055D01*
Y313293D01*
X70455D01*
Y365663D02*
Y367263D01*
X72055D01*
Y365663D01*
X70455D01*
Y360663D02*
Y362263D01*
X72055D01*
Y360663D01*
X70455D01*
Y355663D02*
Y357263D01*
X72055D01*
Y355663D01*
X70455D01*
Y350663D02*
Y352263D01*
X72055D01*
Y350663D01*
X70455D01*
Y345663D02*
Y347263D01*
X72055D01*
Y345663D01*
X70455D01*
Y340663D02*
Y342263D01*
X72055D01*
Y340663D01*
X70455D01*
Y335663D02*
Y337263D01*
X72055D01*
Y335663D01*
X70455D01*
Y330663D02*
Y332263D01*
X72055D01*
Y330663D01*
X70455D01*
X541445Y285333D02*
X540645Y286933D01*
X542245D01*
X541445Y285333D01*
X96055Y297400D02*
X96455Y297800D01*
X96855D01*
X96455Y298200D01*
X96855Y298600D01*
X96455D01*
X96055Y299000D01*
X95655Y298600D01*
X95255D01*
X95655Y298200D01*
X95255Y297800D01*
X95655D01*
X96055Y297400D01*
X83555Y367600D02*
X83955Y368000D01*
X84355D01*
X83955Y368400D01*
X84355Y368800D01*
X83955D01*
X83555Y369200D01*
X83155Y368800D01*
X82755D01*
X83155Y368400D01*
X82755Y368000D01*
X83155D01*
X83555Y367600D01*
X96055D02*
X96455Y368000D01*
X96855D01*
X96455Y368400D01*
X96855Y368800D01*
X96455D01*
X96055Y369200D01*
X95655Y368800D01*
X95255D01*
X95655Y368400D01*
X95255Y368000D01*
X95655D01*
X96055Y367600D01*
X333555D02*
X333955Y368000D01*
X334355D01*
X333955Y368400D01*
X334355Y368800D01*
X333955D01*
X333555Y369200D01*
X333155Y368800D01*
X332755D01*
X333155Y368400D01*
X332755Y368000D01*
X333155D01*
X333555Y367600D01*
X346055D02*
X346455Y368000D01*
X346855D01*
X346455Y368400D01*
X346855Y368800D01*
X346455D01*
X346055Y369200D01*
X345655Y368800D01*
X345255D01*
X345655Y368400D01*
X345255Y368000D01*
X345655D01*
X346055Y367600D01*
Y362300D02*
X346455Y362700D01*
X346855D01*
X346455Y363100D01*
X346855Y363500D01*
X346455D01*
X346055Y363900D01*
X345655Y363500D01*
X345255D01*
X345655Y363100D01*
X345255Y362700D01*
X345655D01*
X346055Y362300D01*
X333555D02*
X333955Y362700D01*
X334355D01*
X333955Y363100D01*
X334355Y363500D01*
X333955D01*
X333555Y363900D01*
X333155Y363500D01*
X332755D01*
X333155Y363100D01*
X332755Y362700D01*
X333155D01*
X333555Y362300D01*
X283555D02*
X283955Y362700D01*
X284355D01*
X283955Y363100D01*
X284355Y363500D01*
X283955D01*
X283555Y363900D01*
X283155Y363500D01*
X282755D01*
X283155Y363100D01*
X282755Y362700D01*
X283155D01*
X283555Y362300D01*
X258555D02*
X258955Y362700D01*
X259355D01*
X258955Y363100D01*
X259355Y363500D01*
X258955D01*
X258555Y363900D01*
X258155Y363500D01*
X257755D01*
X258155Y363100D01*
X257755Y362700D01*
X258155D01*
X258555Y362300D01*
X271055D02*
X271455Y362700D01*
X271855D01*
X271455Y363100D01*
X271855Y363500D01*
X271455D01*
X271055Y363900D01*
X270655Y363500D01*
X270255D01*
X270655Y363100D01*
X270255Y362700D01*
X270655D01*
X271055Y362300D01*
X233555D02*
X233955Y362700D01*
X234355D01*
X233955Y363100D01*
X234355Y363500D01*
X233955D01*
X233555Y363900D01*
X233155Y363500D01*
X232755D01*
X233155Y363100D01*
X232755Y362700D01*
X233155D01*
X233555Y362300D01*
X246055D02*
X246455Y362700D01*
X246855D01*
X246455Y363100D01*
X246855Y363500D01*
X246455D01*
X246055Y363900D01*
X245655Y363500D01*
X245255D01*
X245655Y363100D01*
X245255Y362700D01*
X245655D01*
X246055Y362300D01*
X221055D02*
X221455Y362700D01*
X221855D01*
X221455Y363100D01*
X221855Y363500D01*
X221455D01*
X221055Y363900D01*
X220655Y363500D01*
X220255D01*
X220655Y363100D01*
X220255Y362700D01*
X220655D01*
X221055Y362300D01*
X233555Y367600D02*
X233955Y368000D01*
X234355D01*
X233955Y368400D01*
X234355Y368800D01*
X233955D01*
X233555Y369200D01*
X233155Y368800D01*
X232755D01*
X233155Y368400D01*
X232755Y368000D01*
X233155D01*
X233555Y367600D01*
X221055D02*
X221455Y368000D01*
X221855D01*
X221455Y368400D01*
X221855Y368800D01*
X221455D01*
X221055Y369200D01*
X220655Y368800D01*
X220255D01*
X220655Y368400D01*
X220255Y368000D01*
X220655D01*
X221055Y367600D01*
X258555D02*
X258955Y368000D01*
X259355D01*
X258955Y368400D01*
X259355Y368800D01*
X258955D01*
X258555Y369200D01*
X258155Y368800D01*
X257755D01*
X258155Y368400D01*
X257755Y368000D01*
X258155D01*
X258555Y367600D01*
X246055D02*
X246455Y368000D01*
X246855D01*
X246455Y368400D01*
X246855Y368800D01*
X246455D01*
X246055Y369200D01*
X245655Y368800D01*
X245255D01*
X245655Y368400D01*
X245255Y368000D01*
X245655D01*
X246055Y367600D01*
X283555D02*
X283955Y368000D01*
X284355D01*
X283955Y368400D01*
X284355Y368800D01*
X283955D01*
X283555Y369200D01*
X283155Y368800D01*
X282755D01*
X283155Y368400D01*
X282755Y368000D01*
X283155D01*
X283555Y367600D01*
X271055D02*
X271455Y368000D01*
X271855D01*
X271455Y368400D01*
X271855Y368800D01*
X271455D01*
X271055Y369200D01*
X270655Y368800D01*
X270255D01*
X270655Y368400D01*
X270255Y368000D01*
X270655D01*
X271055Y367600D01*
X296055Y362300D02*
X296455Y362700D01*
X296855D01*
X296455Y363100D01*
X296855Y363500D01*
X296455D01*
X296055Y363900D01*
X295655Y363500D01*
X295255D01*
X295655Y363100D01*
X295255Y362700D01*
X295655D01*
X296055Y362300D01*
X308555D02*
X308955Y362700D01*
X309355D01*
X308955Y363100D01*
X309355Y363500D01*
X308955D01*
X308555Y363900D01*
X308155Y363500D01*
X307755D01*
X308155Y363100D01*
X307755Y362700D01*
X308155D01*
X308555Y362300D01*
X296055Y367600D02*
X296455Y368000D01*
X296855D01*
X296455Y368400D01*
X296855Y368800D01*
X296455D01*
X296055Y369200D01*
X295655Y368800D01*
X295255D01*
X295655Y368400D01*
X295255Y368000D01*
X295655D01*
X296055Y367600D01*
X308555D02*
X308955Y368000D01*
X309355D01*
X308955Y368400D01*
X309355Y368800D01*
X308955D01*
X308555Y369200D01*
X308155Y368800D01*
X307755D01*
X308155Y368400D01*
X307755Y368000D01*
X308155D01*
X308555Y367600D01*
X321055Y362300D02*
X321455Y362700D01*
X321855D01*
X321455Y363100D01*
X321855Y363500D01*
X321455D01*
X321055Y363900D01*
X320655Y363500D01*
X320255D01*
X320655Y363100D01*
X320255Y362700D01*
X320655D01*
X321055Y362300D01*
Y367600D02*
X321455Y368000D01*
X321855D01*
X321455Y368400D01*
X321855Y368800D01*
X321455D01*
X321055Y369200D01*
X320655Y368800D01*
X320255D01*
X320655Y368400D01*
X320255Y368000D01*
X320655D01*
X321055Y367600D01*
X346055Y302700D02*
X346455Y303100D01*
X346855D01*
X346455Y303500D01*
X346855Y303900D01*
X346455D01*
X346055Y304300D01*
X345655Y303900D01*
X345255D01*
X345655Y303500D01*
X345255Y303100D01*
X345655D01*
X346055Y302700D01*
X333555D02*
X333955Y303100D01*
X334355D01*
X333955Y303500D01*
X334355Y303900D01*
X333955D01*
X333555Y304300D01*
X333155Y303900D01*
X332755D01*
X333155Y303500D01*
X332755Y303100D01*
X333155D01*
X333555Y302700D01*
X346055Y297400D02*
X346455Y297800D01*
X346855D01*
X346455Y298200D01*
X346855Y298600D01*
X346455D01*
X346055Y299000D01*
X345655Y298600D01*
X345255D01*
X345655Y298200D01*
X345255Y297800D01*
X345655D01*
X346055Y297400D01*
X333555D02*
X333955Y297800D01*
X334355D01*
X333955Y298200D01*
X334355Y298600D01*
X333955D01*
X333555Y299000D01*
X333155Y298600D01*
X332755D01*
X333155Y298200D01*
X332755Y297800D01*
X333155D01*
X333555Y297400D01*
X321055Y302700D02*
X321455Y303100D01*
X321855D01*
X321455Y303500D01*
X321855Y303900D01*
X321455D01*
X321055Y304300D01*
X320655Y303900D01*
X320255D01*
X320655Y303500D01*
X320255Y303100D01*
X320655D01*
X321055Y302700D01*
X308555D02*
X308955Y303100D01*
X309355D01*
X308955Y303500D01*
X309355Y303900D01*
X308955D01*
X308555Y304300D01*
X308155Y303900D01*
X307755D01*
X308155Y303500D01*
X307755Y303100D01*
X308155D01*
X308555Y302700D01*
X321055Y297400D02*
X321455Y297800D01*
X321855D01*
X321455Y298200D01*
X321855Y298600D01*
X321455D01*
X321055Y299000D01*
X320655Y298600D01*
X320255D01*
X320655Y298200D01*
X320255Y297800D01*
X320655D01*
X321055Y297400D01*
X308555D02*
X308955Y297800D01*
X309355D01*
X308955Y298200D01*
X309355Y298600D01*
X308955D01*
X308555Y299000D01*
X308155Y298600D01*
X307755D01*
X308155Y298200D01*
X307755Y297800D01*
X308155D01*
X308555Y297400D01*
X283555Y302700D02*
X283955Y303100D01*
X284355D01*
X283955Y303500D01*
X284355Y303900D01*
X283955D01*
X283555Y304300D01*
X283155Y303900D01*
X282755D01*
X283155Y303500D01*
X282755Y303100D01*
X283155D01*
X283555Y302700D01*
X296055D02*
X296455Y303100D01*
X296855D01*
X296455Y303500D01*
X296855Y303900D01*
X296455D01*
X296055Y304300D01*
X295655Y303900D01*
X295255D01*
X295655Y303500D01*
X295255Y303100D01*
X295655D01*
X296055Y302700D01*
X258555D02*
X258955Y303100D01*
X259355D01*
X258955Y303500D01*
X259355Y303900D01*
X258955D01*
X258555Y304300D01*
X258155Y303900D01*
X257755D01*
X258155Y303500D01*
X257755Y303100D01*
X258155D01*
X258555Y302700D01*
X271055D02*
X271455Y303100D01*
X271855D01*
X271455Y303500D01*
X271855Y303900D01*
X271455D01*
X271055Y304300D01*
X270655Y303900D01*
X270255D01*
X270655Y303500D01*
X270255Y303100D01*
X270655D01*
X271055Y302700D01*
X233555D02*
X233955Y303100D01*
X234355D01*
X233955Y303500D01*
X234355Y303900D01*
X233955D01*
X233555Y304300D01*
X233155Y303900D01*
X232755D01*
X233155Y303500D01*
X232755Y303100D01*
X233155D01*
X233555Y302700D01*
X246055D02*
X246455Y303100D01*
X246855D01*
X246455Y303500D01*
X246855Y303900D01*
X246455D01*
X246055Y304300D01*
X245655Y303900D01*
X245255D01*
X245655Y303500D01*
X245255Y303100D01*
X245655D01*
X246055Y302700D01*
X221055D02*
X221455Y303100D01*
X221855D01*
X221455Y303500D01*
X221855Y303900D01*
X221455D01*
X221055Y304300D01*
X220655Y303900D01*
X220255D01*
X220655Y303500D01*
X220255Y303100D01*
X220655D01*
X221055Y302700D01*
X233555Y297400D02*
X233955Y297800D01*
X234355D01*
X233955Y298200D01*
X234355Y298600D01*
X233955D01*
X233555Y299000D01*
X233155Y298600D01*
X232755D01*
X233155Y298200D01*
X232755Y297800D01*
X233155D01*
X233555Y297400D01*
X221055D02*
X221455Y297800D01*
X221855D01*
X221455Y298200D01*
X221855Y298600D01*
X221455D01*
X221055Y299000D01*
X220655Y298600D01*
X220255D01*
X220655Y298200D01*
X220255Y297800D01*
X220655D01*
X221055Y297400D01*
X258555D02*
X258955Y297800D01*
X259355D01*
X258955Y298200D01*
X259355Y298600D01*
X258955D01*
X258555Y299000D01*
X258155Y298600D01*
X257755D01*
X258155Y298200D01*
X257755Y297800D01*
X258155D01*
X258555Y297400D01*
X246055D02*
X246455Y297800D01*
X246855D01*
X246455Y298200D01*
X246855Y298600D01*
X246455D01*
X246055Y299000D01*
X245655Y298600D01*
X245255D01*
X245655Y298200D01*
X245255Y297800D01*
X245655D01*
X246055Y297400D01*
X283555D02*
X283955Y297800D01*
X284355D01*
X283955Y298200D01*
X284355Y298600D01*
X283955D01*
X283555Y299000D01*
X283155Y298600D01*
X282755D01*
X283155Y298200D01*
X282755Y297800D01*
X283155D01*
X283555Y297400D01*
X271055D02*
X271455Y297800D01*
X271855D01*
X271455Y298200D01*
X271855Y298600D01*
X271455D01*
X271055Y299000D01*
X270655Y298600D01*
X270255D01*
X270655Y298200D01*
X270255Y297800D01*
X270655D01*
X271055Y297400D01*
X296055D02*
X296455Y297800D01*
X296855D01*
X296455Y298200D01*
X296855Y298600D01*
X296455D01*
X296055Y299000D01*
X295655Y298600D01*
X295255D01*
X295655Y298200D01*
X295255Y297800D01*
X295655D01*
X296055Y297400D01*
X421350D02*
X421750Y297800D01*
X422150D01*
X421750Y298200D01*
X422150Y298600D01*
X421750D01*
X421350Y299000D01*
X420950Y298600D01*
X420550D01*
X420950Y298200D01*
X420550Y297800D01*
X420950D01*
X421350Y297400D01*
X446350D02*
X446750Y297800D01*
X447150D01*
X446750Y298200D01*
X447150Y298600D01*
X446750D01*
X446350Y299000D01*
X445950Y298600D01*
X445550D01*
X445950Y298200D01*
X445550Y297800D01*
X445950D01*
X446350Y297400D01*
X433850D02*
X434250Y297800D01*
X434650D01*
X434250Y298200D01*
X434650Y298600D01*
X434250D01*
X433850Y299000D01*
X433450Y298600D01*
X433050D01*
X433450Y298200D01*
X433050Y297800D01*
X433450D01*
X433850Y297400D01*
X471350D02*
X471750Y297800D01*
X472150D01*
X471750Y298200D01*
X472150Y298600D01*
X471750D01*
X471350Y299000D01*
X470950Y298600D01*
X470550D01*
X470950Y298200D01*
X470550Y297800D01*
X470950D01*
X471350Y297400D01*
X458850D02*
X459250Y297800D01*
X459650D01*
X459250Y298200D01*
X459650Y298600D01*
X459250D01*
X458850Y299000D01*
X458450Y298600D01*
X458050D01*
X458450Y298200D01*
X458050Y297800D01*
X458450D01*
X458850Y297400D01*
X396350D02*
X396750Y297800D01*
X397150D01*
X396750Y298200D01*
X397150Y298600D01*
X396750D01*
X396350Y299000D01*
X395950Y298600D01*
X395550D01*
X395950Y298200D01*
X395550Y297800D01*
X395950D01*
X396350Y297400D01*
X408850D02*
X409250Y297800D01*
X409650D01*
X409250Y298200D01*
X409650Y298600D01*
X409250D01*
X408850Y299000D01*
X408450Y298600D01*
X408050D01*
X408450Y298200D01*
X408050Y297800D01*
X408450D01*
X408850Y297400D01*
X371350D02*
X371750Y297800D01*
X372150D01*
X371750Y298200D01*
X372150Y298600D01*
X371750D01*
X371350Y299000D01*
X370950Y298600D01*
X370550D01*
X370950Y298200D01*
X370550Y297800D01*
X370950D01*
X371350Y297400D01*
X383850D02*
X384250Y297800D01*
X384650D01*
X384250Y298200D01*
X384650Y298600D01*
X384250D01*
X383850Y299000D01*
X383450Y298600D01*
X383050D01*
X383450Y298200D01*
X383050Y297800D01*
X383450D01*
X383850Y297400D01*
X208555D02*
X208955Y297800D01*
X209355D01*
X208955Y298200D01*
X209355Y298600D01*
X208955D01*
X208555Y299000D01*
X208155Y298600D01*
X207755D01*
X208155Y298200D01*
X207755Y297800D01*
X208155D01*
X208555Y297400D01*
X358850D02*
X359250Y297800D01*
X359650D01*
X359250Y298200D01*
X359650Y298600D01*
X359250D01*
X358850Y299000D01*
X358450Y298600D01*
X358050D01*
X358450Y298200D01*
X358050Y297800D01*
X358450D01*
X358850Y297400D01*
X183555D02*
X183955Y297800D01*
X184355D01*
X183955Y298200D01*
X184355Y298600D01*
X183955D01*
X183555Y299000D01*
X183155Y298600D01*
X182755D01*
X183155Y298200D01*
X182755Y297800D01*
X183155D01*
X183555Y297400D01*
X196055D02*
X196455Y297800D01*
X196855D01*
X196455Y298200D01*
X196855Y298600D01*
X196455D01*
X196055Y299000D01*
X195655Y298600D01*
X195255D01*
X195655Y298200D01*
X195255Y297800D01*
X195655D01*
X196055Y297400D01*
X158555D02*
X158955Y297800D01*
X159355D01*
X158955Y298200D01*
X159355Y298600D01*
X158955D01*
X158555Y299000D01*
X158155Y298600D01*
X157755D01*
X158155Y298200D01*
X157755Y297800D01*
X158155D01*
X158555Y297400D01*
X171055D02*
X171455Y297800D01*
X171855D01*
X171455Y298200D01*
X171855Y298600D01*
X171455D01*
X171055Y299000D01*
X170655Y298600D01*
X170255D01*
X170655Y298200D01*
X170255Y297800D01*
X170655D01*
X171055Y297400D01*
X133555D02*
X133955Y297800D01*
X134355D01*
X133955Y298200D01*
X134355Y298600D01*
X133955D01*
X133555Y299000D01*
X133155Y298600D01*
X132755D01*
X133155Y298200D01*
X132755Y297800D01*
X133155D01*
X133555Y297400D01*
X146055D02*
X146455Y297800D01*
X146855D01*
X146455Y298200D01*
X146855Y298600D01*
X146455D01*
X146055Y299000D01*
X145655Y298600D01*
X145255D01*
X145655Y298200D01*
X145255Y297800D01*
X145655D01*
X146055Y297400D01*
X121055D02*
X121455Y297800D01*
X121855D01*
X121455Y298200D01*
X121855Y298600D01*
X121455D01*
X121055Y299000D01*
X120655Y298600D01*
X120255D01*
X120655Y298200D01*
X120255Y297800D01*
X120655D01*
X121055Y297400D01*
X108555D02*
X108955Y297800D01*
X109355D01*
X108955Y298200D01*
X109355Y298600D01*
X108955D01*
X108555Y299000D01*
X108155Y298600D01*
X107755D01*
X108155Y298200D01*
X107755Y297800D01*
X108155D01*
X108555Y297400D01*
Y302700D02*
X108955Y303100D01*
X109355D01*
X108955Y303500D01*
X109355Y303900D01*
X108955D01*
X108555Y304300D01*
X108155Y303900D01*
X107755D01*
X108155Y303500D01*
X107755Y303100D01*
X108155D01*
X108555Y302700D01*
X121055D02*
X121455Y303100D01*
X121855D01*
X121455Y303500D01*
X121855Y303900D01*
X121455D01*
X121055Y304300D01*
X120655Y303900D01*
X120255D01*
X120655Y303500D01*
X120255Y303100D01*
X120655D01*
X121055Y302700D01*
X133555D02*
X133955Y303100D01*
X134355D01*
X133955Y303500D01*
X134355Y303900D01*
X133955D01*
X133555Y304300D01*
X133155Y303900D01*
X132755D01*
X133155Y303500D01*
X132755Y303100D01*
X133155D01*
X133555Y302700D01*
X158555D02*
X158955Y303100D01*
X159355D01*
X158955Y303500D01*
X159355Y303900D01*
X158955D01*
X158555Y304300D01*
X158155Y303900D01*
X157755D01*
X158155Y303500D01*
X157755Y303100D01*
X158155D01*
X158555Y302700D01*
X146055D02*
X146455Y303100D01*
X146855D01*
X146455Y303500D01*
X146855Y303900D01*
X146455D01*
X146055Y304300D01*
X145655Y303900D01*
X145255D01*
X145655Y303500D01*
X145255Y303100D01*
X145655D01*
X146055Y302700D01*
X183555D02*
X183955Y303100D01*
X184355D01*
X183955Y303500D01*
X184355Y303900D01*
X183955D01*
X183555Y304300D01*
X183155Y303900D01*
X182755D01*
X183155Y303500D01*
X182755Y303100D01*
X183155D01*
X183555Y302700D01*
X171055D02*
X171455Y303100D01*
X171855D01*
X171455Y303500D01*
X171855Y303900D01*
X171455D01*
X171055Y304300D01*
X170655Y303900D01*
X170255D01*
X170655Y303500D01*
X170255Y303100D01*
X170655D01*
X171055Y302700D01*
X208555D02*
X208955Y303100D01*
X209355D01*
X208955Y303500D01*
X209355Y303900D01*
X208955D01*
X208555Y304300D01*
X208155Y303900D01*
X207755D01*
X208155Y303500D01*
X207755Y303100D01*
X208155D01*
X208555Y302700D01*
X196055D02*
X196455Y303100D01*
X196855D01*
X196455Y303500D01*
X196855Y303900D01*
X196455D01*
X196055Y304300D01*
X195655Y303900D01*
X195255D01*
X195655Y303500D01*
X195255Y303100D01*
X195655D01*
X196055Y302700D01*
X371350D02*
X371750Y303100D01*
X372150D01*
X371750Y303500D01*
X372150Y303900D01*
X371750D01*
X371350Y304300D01*
X370950Y303900D01*
X370550D01*
X370950Y303500D01*
X370550Y303100D01*
X370950D01*
X371350Y302700D01*
X358850D02*
X359250Y303100D01*
X359650D01*
X359250Y303500D01*
X359650Y303900D01*
X359250D01*
X358850Y304300D01*
X358450Y303900D01*
X358050D01*
X358450Y303500D01*
X358050Y303100D01*
X358450D01*
X358850Y302700D01*
X396350D02*
X396750Y303100D01*
X397150D01*
X396750Y303500D01*
X397150Y303900D01*
X396750D01*
X396350Y304300D01*
X395950Y303900D01*
X395550D01*
X395950Y303500D01*
X395550Y303100D01*
X395950D01*
X396350Y302700D01*
X383850D02*
X384250Y303100D01*
X384650D01*
X384250Y303500D01*
X384650Y303900D01*
X384250D01*
X383850Y304300D01*
X383450Y303900D01*
X383050D01*
X383450Y303500D01*
X383050Y303100D01*
X383450D01*
X383850Y302700D01*
X421350D02*
X421750Y303100D01*
X422150D01*
X421750Y303500D01*
X422150Y303900D01*
X421750D01*
X421350Y304300D01*
X420950Y303900D01*
X420550D01*
X420950Y303500D01*
X420550Y303100D01*
X420950D01*
X421350Y302700D01*
X408850D02*
X409250Y303100D01*
X409650D01*
X409250Y303500D01*
X409650Y303900D01*
X409250D01*
X408850Y304300D01*
X408450Y303900D01*
X408050D01*
X408450Y303500D01*
X408050Y303100D01*
X408450D01*
X408850Y302700D01*
X471350D02*
X471750Y303100D01*
X472150D01*
X471750Y303500D01*
X472150Y303900D01*
X471750D01*
X471350Y304300D01*
X470950Y303900D01*
X470550D01*
X470950Y303500D01*
X470550Y303100D01*
X470950D01*
X471350Y302700D01*
X483850D02*
X484250Y303100D01*
X484650D01*
X484250Y303500D01*
X484650Y303900D01*
X484250D01*
X483850Y304300D01*
X483450Y303900D01*
X483050D01*
X483450Y303500D01*
X483050Y303100D01*
X483450D01*
X483850Y302700D01*
X446350D02*
X446750Y303100D01*
X447150D01*
X446750Y303500D01*
X447150Y303900D01*
X446750D01*
X446350Y304300D01*
X445950Y303900D01*
X445550D01*
X445950Y303500D01*
X445550Y303100D01*
X445950D01*
X446350Y302700D01*
X458850D02*
X459250Y303100D01*
X459650D01*
X459250Y303500D01*
X459650Y303900D01*
X459250D01*
X458850Y304300D01*
X458450Y303900D01*
X458050D01*
X458450Y303500D01*
X458050Y303100D01*
X458450D01*
X458850Y302700D01*
X433850D02*
X434250Y303100D01*
X434650D01*
X434250Y303500D01*
X434650Y303900D01*
X434250D01*
X433850Y304300D01*
X433450Y303900D01*
X433050D01*
X433450Y303500D01*
X433050Y303100D01*
X433450D01*
X433850Y302700D01*
X496350D02*
X496750Y303100D01*
X497150D01*
X496750Y303500D01*
X497150Y303900D01*
X496750D01*
X496350Y304300D01*
X495950Y303900D01*
X495550D01*
X495950Y303500D01*
X495550Y303100D01*
X495950D01*
X496350Y302700D01*
X108555Y362300D02*
X108955Y362700D01*
X109355D01*
X108955Y363100D01*
X109355Y363500D01*
X108955D01*
X108555Y363900D01*
X108155Y363500D01*
X107755D01*
X108155Y363100D01*
X107755Y362700D01*
X108155D01*
X108555Y362300D01*
X121055D02*
X121455Y362700D01*
X121855D01*
X121455Y363100D01*
X121855Y363500D01*
X121455D01*
X121055Y363900D01*
X120655Y363500D01*
X120255D01*
X120655Y363100D01*
X120255Y362700D01*
X120655D01*
X121055Y362300D01*
X133555D02*
X133955Y362700D01*
X134355D01*
X133955Y363100D01*
X134355Y363500D01*
X133955D01*
X133555Y363900D01*
X133155Y363500D01*
X132755D01*
X133155Y363100D01*
X132755Y362700D01*
X133155D01*
X133555Y362300D01*
X158555D02*
X158955Y362700D01*
X159355D01*
X158955Y363100D01*
X159355Y363500D01*
X158955D01*
X158555Y363900D01*
X158155Y363500D01*
X157755D01*
X158155Y363100D01*
X157755Y362700D01*
X158155D01*
X158555Y362300D01*
X146055D02*
X146455Y362700D01*
X146855D01*
X146455Y363100D01*
X146855Y363500D01*
X146455D01*
X146055Y363900D01*
X145655Y363500D01*
X145255D01*
X145655Y363100D01*
X145255Y362700D01*
X145655D01*
X146055Y362300D01*
X183555D02*
X183955Y362700D01*
X184355D01*
X183955Y363100D01*
X184355Y363500D01*
X183955D01*
X183555Y363900D01*
X183155Y363500D01*
X182755D01*
X183155Y363100D01*
X182755Y362700D01*
X183155D01*
X183555Y362300D01*
X171055D02*
X171455Y362700D01*
X171855D01*
X171455Y363100D01*
X171855Y363500D01*
X171455D01*
X171055Y363900D01*
X170655Y363500D01*
X170255D01*
X170655Y363100D01*
X170255Y362700D01*
X170655D01*
X171055Y362300D01*
X208555D02*
X208955Y362700D01*
X209355D01*
X208955Y363100D01*
X209355Y363500D01*
X208955D01*
X208555Y363900D01*
X208155Y363500D01*
X207755D01*
X208155Y363100D01*
X207755Y362700D01*
X208155D01*
X208555Y362300D01*
X196055D02*
X196455Y362700D01*
X196855D01*
X196455Y363100D01*
X196855Y363500D01*
X196455D01*
X196055Y363900D01*
X195655Y363500D01*
X195255D01*
X195655Y363100D01*
X195255Y362700D01*
X195655D01*
X196055Y362300D01*
X371350D02*
X371750Y362700D01*
X372150D01*
X371750Y363100D01*
X372150Y363500D01*
X371750D01*
X371350Y363900D01*
X370950Y363500D01*
X370550D01*
X370950Y363100D01*
X370550Y362700D01*
X370950D01*
X371350Y362300D01*
X358850D02*
X359250Y362700D01*
X359650D01*
X359250Y363100D01*
X359650Y363500D01*
X359250D01*
X358850Y363900D01*
X358450Y363500D01*
X358050D01*
X358450Y363100D01*
X358050Y362700D01*
X358450D01*
X358850Y362300D01*
X396350D02*
X396750Y362700D01*
X397150D01*
X396750Y363100D01*
X397150Y363500D01*
X396750D01*
X396350Y363900D01*
X395950Y363500D01*
X395550D01*
X395950Y363100D01*
X395550Y362700D01*
X395950D01*
X396350Y362300D01*
X383850D02*
X384250Y362700D01*
X384650D01*
X384250Y363100D01*
X384650Y363500D01*
X384250D01*
X383850Y363900D01*
X383450Y363500D01*
X383050D01*
X383450Y363100D01*
X383050Y362700D01*
X383450D01*
X383850Y362300D01*
X421350D02*
X421750Y362700D01*
X422150D01*
X421750Y363100D01*
X422150Y363500D01*
X421750D01*
X421350Y363900D01*
X420950Y363500D01*
X420550D01*
X420950Y363100D01*
X420550Y362700D01*
X420950D01*
X421350Y362300D01*
X408850D02*
X409250Y362700D01*
X409650D01*
X409250Y363100D01*
X409650Y363500D01*
X409250D01*
X408850Y363900D01*
X408450Y363500D01*
X408050D01*
X408450Y363100D01*
X408050Y362700D01*
X408450D01*
X408850Y362300D01*
X471350D02*
X471750Y362700D01*
X472150D01*
X471750Y363100D01*
X472150Y363500D01*
X471750D01*
X471350Y363900D01*
X470950Y363500D01*
X470550D01*
X470950Y363100D01*
X470550Y362700D01*
X470950D01*
X471350Y362300D01*
X483850D02*
X484250Y362700D01*
X484650D01*
X484250Y363100D01*
X484650Y363500D01*
X484250D01*
X483850Y363900D01*
X483450Y363500D01*
X483050D01*
X483450Y363100D01*
X483050Y362700D01*
X483450D01*
X483850Y362300D01*
X446350D02*
X446750Y362700D01*
X447150D01*
X446750Y363100D01*
X447150Y363500D01*
X446750D01*
X446350Y363900D01*
X445950Y363500D01*
X445550D01*
X445950Y363100D01*
X445550Y362700D01*
X445950D01*
X446350Y362300D01*
X458850D02*
X459250Y362700D01*
X459650D01*
X459250Y363100D01*
X459650Y363500D01*
X459250D01*
X458850Y363900D01*
X458450Y363500D01*
X458050D01*
X458450Y363100D01*
X458050Y362700D01*
X458450D01*
X458850Y362300D01*
X433850D02*
X434250Y362700D01*
X434650D01*
X434250Y363100D01*
X434650Y363500D01*
X434250D01*
X433850Y363900D01*
X433450Y363500D01*
X433050D01*
X433450Y363100D01*
X433050Y362700D01*
X433450D01*
X433850Y362300D01*
X496350D02*
X496750Y362700D01*
X497150D01*
X496750Y363100D01*
X497150Y363500D01*
X496750D01*
X496350Y363900D01*
X495950Y363500D01*
X495550D01*
X495950Y363100D01*
X495550Y362700D01*
X495950D01*
X496350Y362300D01*
X508850D02*
X509250Y362700D01*
X509650D01*
X509250Y363100D01*
X509650Y363500D01*
X509250D01*
X508850Y363900D01*
X508450Y363500D01*
X508050D01*
X508450Y363100D01*
X508050Y362700D01*
X508450D01*
X508850Y362300D01*
Y367600D02*
X509250Y368000D01*
X509650D01*
X509250Y368400D01*
X509650Y368800D01*
X509250D01*
X508850Y369200D01*
X508450Y368800D01*
X508050D01*
X508450Y368400D01*
X508050Y368000D01*
X508450D01*
X508850Y367600D01*
X496350D02*
X496750Y368000D01*
X497150D01*
X496750Y368400D01*
X497150Y368800D01*
X496750D01*
X496350Y369200D01*
X495950Y368800D01*
X495550D01*
X495950Y368400D01*
X495550Y368000D01*
X495950D01*
X496350Y367600D01*
X433850D02*
X434250Y368000D01*
X434650D01*
X434250Y368400D01*
X434650Y368800D01*
X434250D01*
X433850Y369200D01*
X433450Y368800D01*
X433050D01*
X433450Y368400D01*
X433050Y368000D01*
X433450D01*
X433850Y367600D01*
X458850D02*
X459250Y368000D01*
X459650D01*
X459250Y368400D01*
X459650Y368800D01*
X459250D01*
X458850Y369200D01*
X458450Y368800D01*
X458050D01*
X458450Y368400D01*
X458050Y368000D01*
X458450D01*
X458850Y367600D01*
X446350D02*
X446750Y368000D01*
X447150D01*
X446750Y368400D01*
X447150Y368800D01*
X446750D01*
X446350Y369200D01*
X445950Y368800D01*
X445550D01*
X445950Y368400D01*
X445550Y368000D01*
X445950D01*
X446350Y367600D01*
X483850D02*
X484250Y368000D01*
X484650D01*
X484250Y368400D01*
X484650Y368800D01*
X484250D01*
X483850Y369200D01*
X483450Y368800D01*
X483050D01*
X483450Y368400D01*
X483050Y368000D01*
X483450D01*
X483850Y367600D01*
X471350D02*
X471750Y368000D01*
X472150D01*
X471750Y368400D01*
X472150Y368800D01*
X471750D01*
X471350Y369200D01*
X470950Y368800D01*
X470550D01*
X470950Y368400D01*
X470550Y368000D01*
X470950D01*
X471350Y367600D01*
X408850D02*
X409250Y368000D01*
X409650D01*
X409250Y368400D01*
X409650Y368800D01*
X409250D01*
X408850Y369200D01*
X408450Y368800D01*
X408050D01*
X408450Y368400D01*
X408050Y368000D01*
X408450D01*
X408850Y367600D01*
X421350D02*
X421750Y368000D01*
X422150D01*
X421750Y368400D01*
X422150Y368800D01*
X421750D01*
X421350Y369200D01*
X420950Y368800D01*
X420550D01*
X420950Y368400D01*
X420550Y368000D01*
X420950D01*
X421350Y367600D01*
X383850D02*
X384250Y368000D01*
X384650D01*
X384250Y368400D01*
X384650Y368800D01*
X384250D01*
X383850Y369200D01*
X383450Y368800D01*
X383050D01*
X383450Y368400D01*
X383050Y368000D01*
X383450D01*
X383850Y367600D01*
X396350D02*
X396750Y368000D01*
X397150D01*
X396750Y368400D01*
X397150Y368800D01*
X396750D01*
X396350Y369200D01*
X395950Y368800D01*
X395550D01*
X395950Y368400D01*
X395550Y368000D01*
X395950D01*
X396350Y367600D01*
X358850D02*
X359250Y368000D01*
X359650D01*
X359250Y368400D01*
X359650Y368800D01*
X359250D01*
X358850Y369200D01*
X358450Y368800D01*
X358050D01*
X358450Y368400D01*
X358050Y368000D01*
X358450D01*
X358850Y367600D01*
X371350D02*
X371750Y368000D01*
X372150D01*
X371750Y368400D01*
X372150Y368800D01*
X371750D01*
X371350Y369200D01*
X370950Y368800D01*
X370550D01*
X370950Y368400D01*
X370550Y368000D01*
X370950D01*
X371350Y367600D01*
X196055D02*
X196455Y368000D01*
X196855D01*
X196455Y368400D01*
X196855Y368800D01*
X196455D01*
X196055Y369200D01*
X195655Y368800D01*
X195255D01*
X195655Y368400D01*
X195255Y368000D01*
X195655D01*
X196055Y367600D01*
X208555D02*
X208955Y368000D01*
X209355D01*
X208955Y368400D01*
X209355Y368800D01*
X208955D01*
X208555Y369200D01*
X208155Y368800D01*
X207755D01*
X208155Y368400D01*
X207755Y368000D01*
X208155D01*
X208555Y367600D01*
X171055D02*
X171455Y368000D01*
X171855D01*
X171455Y368400D01*
X171855Y368800D01*
X171455D01*
X171055Y369200D01*
X170655Y368800D01*
X170255D01*
X170655Y368400D01*
X170255Y368000D01*
X170655D01*
X171055Y367600D01*
X183555D02*
X183955Y368000D01*
X184355D01*
X183955Y368400D01*
X184355Y368800D01*
X183955D01*
X183555Y369200D01*
X183155Y368800D01*
X182755D01*
X183155Y368400D01*
X182755Y368000D01*
X183155D01*
X183555Y367600D01*
X146055D02*
X146455Y368000D01*
X146855D01*
X146455Y368400D01*
X146855Y368800D01*
X146455D01*
X146055Y369200D01*
X145655Y368800D01*
X145255D01*
X145655Y368400D01*
X145255Y368000D01*
X145655D01*
X146055Y367600D01*
X158555D02*
X158955Y368000D01*
X159355D01*
X158955Y368400D01*
X159355Y368800D01*
X158955D01*
X158555Y369200D01*
X158155Y368800D01*
X157755D01*
X158155Y368400D01*
X157755Y368000D01*
X158155D01*
X158555Y367600D01*
X133555D02*
X133955Y368000D01*
X134355D01*
X133955Y368400D01*
X134355Y368800D01*
X133955D01*
X133555Y369200D01*
X133155Y368800D01*
X132755D01*
X133155Y368400D01*
X132755Y368000D01*
X133155D01*
X133555Y367600D01*
X121055D02*
X121455Y368000D01*
X121855D01*
X121455Y368400D01*
X121855Y368800D01*
X121455D01*
X121055Y369200D01*
X120655Y368800D01*
X120255D01*
X120655Y368400D01*
X120255Y368000D01*
X120655D01*
X121055Y367600D01*
X108555D02*
X108955Y368000D01*
X109355D01*
X108955Y368400D01*
X109355Y368800D01*
X108955D01*
X108555Y369200D01*
X108155Y368800D01*
X107755D01*
X108155Y368400D01*
X107755Y368000D01*
X108155D01*
X108555Y367600D01*
X565968Y310897D02*
X566367Y311697D01*
X565968Y312497D01*
X566768Y312097D01*
X567567Y312497D01*
X567168Y311697D01*
X567567Y310897D01*
X566768Y311297D01*
X565968Y310897D01*
Y307015D02*
X566367Y307815D01*
X565968Y308615D01*
X566768Y308215D01*
X567567Y308615D01*
X567168Y307815D01*
X567567Y307015D01*
X566768Y307415D01*
X565968Y307015D01*
Y358141D02*
X566367Y358941D01*
X565968Y359741D01*
X566768Y359341D01*
X567567Y359741D01*
X567168Y358941D01*
X567567Y358141D01*
X566768Y358541D01*
X565968Y358141D01*
Y354259D02*
X566367Y355059D01*
X565968Y355859D01*
X566768Y355459D01*
X567567Y355859D01*
X567168Y355059D01*
X567567Y354259D01*
X566768Y354659D01*
X565968Y354259D01*
X569968Y352236D02*
X570367Y353036D01*
X569968Y353836D01*
X570767Y353436D01*
X571567Y353836D01*
X571168Y353036D01*
X571567Y352236D01*
X570767Y352636D01*
X569968Y352236D01*
Y348353D02*
X570367Y349153D01*
X569968Y349953D01*
X570767Y349553D01*
X571567Y349953D01*
X571168Y349153D01*
X571567Y348353D01*
X570767Y348753D01*
X569968Y348353D01*
Y340425D02*
X570367Y341225D01*
X569968Y342025D01*
X570767Y341625D01*
X571567Y342025D01*
X571168Y341225D01*
X571567Y340425D01*
X570767Y340825D01*
X569968Y340425D01*
Y336542D02*
X570367Y337342D01*
X569968Y338142D01*
X570767Y337742D01*
X571567Y338142D01*
X571168Y337342D01*
X571567Y336542D01*
X570767Y336942D01*
X569968Y336542D01*
X565968Y342448D02*
X566367Y343248D01*
X565968Y344048D01*
X566768Y343648D01*
X567567Y344048D01*
X567168Y343248D01*
X567567Y342448D01*
X566768Y342848D01*
X565968Y342448D01*
Y346330D02*
X566367Y347130D01*
X565968Y347930D01*
X566768Y347530D01*
X567567Y347930D01*
X567168Y347130D01*
X567567Y346330D01*
X566768Y346730D01*
X565968Y346330D01*
Y334519D02*
X566367Y335319D01*
X565968Y336119D01*
X566768Y335719D01*
X567567Y336119D01*
X567168Y335319D01*
X567567Y334519D01*
X566768Y334919D01*
X565968Y334519D01*
Y330637D02*
X566367Y331437D01*
X565968Y332237D01*
X566768Y331837D01*
X567567Y332237D01*
X567168Y331437D01*
X567567Y330637D01*
X566768Y331037D01*
X565968Y330637D01*
X569968Y328614D02*
X570367Y329414D01*
X569968Y330214D01*
X570767Y329814D01*
X571567Y330214D01*
X571168Y329414D01*
X571567Y328614D01*
X570767Y329014D01*
X569968Y328614D01*
Y324731D02*
X570367Y325531D01*
X569968Y326331D01*
X570767Y325931D01*
X571567Y326331D01*
X571168Y325531D01*
X571567Y324731D01*
X570767Y325131D01*
X569968Y324731D01*
X565968Y318826D02*
X566367Y319626D01*
X565968Y320426D01*
X566768Y320026D01*
X567567Y320426D01*
X567168Y319626D01*
X567567Y318826D01*
X566768Y319226D01*
X565968Y318826D01*
Y322708D02*
X566367Y323508D01*
X565968Y324308D01*
X566768Y323908D01*
X567567Y324308D01*
X567168Y323508D01*
X567567Y322708D01*
X566768Y323108D01*
X565968Y322708D01*
X569968Y312920D02*
X570367Y313720D01*
X569968Y314520D01*
X570767Y314120D01*
X571567Y314520D01*
X571168Y313720D01*
X571567Y312920D01*
X570767Y313320D01*
X569968Y312920D01*
Y316803D02*
X570367Y317603D01*
X569968Y318403D01*
X570767Y318003D01*
X571567Y318403D01*
X571168Y317603D01*
X571567Y316803D01*
X570767Y317203D01*
X569968Y316803D01*
X524314Y360050D02*
X524715Y360850D01*
X524314Y361650D01*
X525114Y361250D01*
X525914Y361650D01*
X525515Y360850D01*
X525914Y360050D01*
X525114Y360450D01*
X524314Y360050D01*
X548976Y366350D02*
X549376Y367150D01*
X548976Y367950D01*
X549776Y367550D01*
X550576Y367950D01*
X550176Y367150D01*
X550576Y366350D01*
X549776Y366750D01*
X548976Y366350D01*
X544976D02*
X545376Y367150D01*
X544976Y367950D01*
X545776Y367550D01*
X546576Y367950D01*
X546176Y367150D01*
X546576Y366350D01*
X545776Y366750D01*
X544976Y366350D01*
X545126Y363350D02*
X545526Y364150D01*
X545126Y364950D01*
X545926Y364550D01*
X546726Y364950D01*
X546326Y364150D01*
X546726Y363350D01*
X545926Y363750D01*
X545126Y363350D01*
X549126D02*
X549526Y364150D01*
X549126Y364950D01*
X549926Y364550D01*
X550726Y364950D01*
X550326Y364150D01*
X550726Y363350D01*
X549926Y363750D01*
X549126Y363350D01*
X532164D02*
X532564Y364150D01*
X532164Y364950D01*
X532964Y364550D01*
X533764Y364950D01*
X533364Y364150D01*
X533764Y363350D01*
X532964Y363750D01*
X532164Y363350D01*
X528164D02*
X528564Y364150D01*
X528164Y364950D01*
X528964Y364550D01*
X529764Y364950D01*
X529364Y364150D01*
X529764Y363350D01*
X528964Y363750D01*
X528164Y363350D01*
X536164D02*
X536564Y364150D01*
X536164Y364950D01*
X536964Y364550D01*
X537764Y364950D01*
X537364Y364150D01*
X537764Y363350D01*
X536964Y363750D01*
X536164Y363350D01*
X524314Y366350D02*
X524715Y367150D01*
X524314Y367950D01*
X525114Y367550D01*
X525914Y367950D01*
X525515Y367150D01*
X525914Y366350D01*
X525114Y366750D01*
X524314Y366350D01*
Y363200D02*
X524715Y364000D01*
X524314Y364800D01*
X525114Y364400D01*
X525914Y364800D01*
X525515Y364000D01*
X525914Y363200D01*
X525114Y363600D01*
X524314Y363200D01*
X536314Y366350D02*
X536715Y367150D01*
X536314Y367950D01*
X537114Y367550D01*
X537915Y367950D01*
X537514Y367150D01*
X537915Y366350D01*
X537114Y366750D01*
X536314Y366350D01*
X528314D02*
X528715Y367150D01*
X528314Y367950D01*
X529114Y367550D01*
X529915Y367950D01*
X529515Y367150D01*
X529915Y366350D01*
X529114Y366750D01*
X528314Y366350D01*
X532314D02*
X532715Y367150D01*
X532314Y367950D01*
X533114Y367550D01*
X533915Y367950D01*
X533514Y367150D01*
X533915Y366350D01*
X533114Y366750D01*
X532314Y366350D01*
X585050Y360200D02*
X585450Y361000D01*
X585050Y361800D01*
X585850Y361400D01*
X586650Y361800D01*
X586250Y361000D01*
X586650Y360200D01*
X585850Y360600D01*
X585050Y360200D01*
X589050D02*
X589450Y361000D01*
X589050Y361800D01*
X589850Y361400D01*
X590650Y361800D01*
X590250Y361000D01*
X590650Y360200D01*
X589850Y360600D01*
X589050Y360200D01*
Y364200D02*
X589450Y365000D01*
X589050Y365800D01*
X589850Y365400D01*
X590650Y365800D01*
X590250Y365000D01*
X590650Y364200D01*
X589850Y364600D01*
X589050Y364200D01*
X581050D02*
X581450Y365000D01*
X581050Y365800D01*
X581850Y365400D01*
X582650Y365800D01*
X582250Y365000D01*
X582650Y364200D01*
X581850Y364600D01*
X581050Y364200D01*
X585050D02*
X585450Y365000D01*
X585050Y365800D01*
X585850Y365400D01*
X586650Y365800D01*
X586250Y365000D01*
X586650Y364200D01*
X585850Y364600D01*
X585050Y364200D01*
X577050D02*
X577450Y365000D01*
X577050Y365800D01*
X577850Y365400D01*
X578650Y365800D01*
X578250Y365000D01*
X578650Y364200D01*
X577850Y364600D01*
X577050Y364200D01*
X585050Y368200D02*
X585450Y369000D01*
X585050Y369800D01*
X585850Y369400D01*
X586650Y369800D01*
X586250Y369000D01*
X586650Y368200D01*
X585850Y368600D01*
X585050Y368200D01*
X581050D02*
X581450Y369000D01*
X581050Y369800D01*
X581850Y369400D01*
X582650Y369800D01*
X582250Y369000D01*
X582650Y368200D01*
X581850Y368600D01*
X581050Y368200D01*
X577050D02*
X577450Y369000D01*
X577050Y369800D01*
X577850Y369400D01*
X578650Y369800D01*
X578250Y369000D01*
X578650Y368200D01*
X577850Y368600D01*
X577050Y368200D01*
X589050D02*
X589450Y369000D01*
X589050Y369800D01*
X589850Y369400D01*
X590650Y369800D01*
X590250Y369000D01*
X590650Y368200D01*
X589850Y368600D01*
X589050Y368200D01*
X587050Y346450D02*
X587450Y347250D01*
X587050Y348050D01*
X587850Y347650D01*
X588650Y348050D01*
X588250Y347250D01*
X588650Y346450D01*
X587850Y346850D01*
X587050Y346450D01*
X575050D02*
X575450Y347250D01*
X575050Y348050D01*
X575850Y347650D01*
X576650Y348050D01*
X576250Y347250D01*
X576650Y346450D01*
X575850Y346850D01*
X575050Y346450D01*
X579050D02*
X579450Y347250D01*
X579050Y348050D01*
X579850Y347650D01*
X580650Y348050D01*
X580250Y347250D01*
X580650Y346450D01*
X579850Y346850D01*
X579050Y346450D01*
X583050D02*
X583450Y347250D01*
X583050Y348050D01*
X583850Y347650D01*
X584650Y348050D01*
X584250Y347250D01*
X584650Y346450D01*
X583850Y346850D01*
X583050Y346450D01*
X526550Y290200D02*
X526950Y291000D01*
X526550Y291800D01*
X527350Y291400D01*
X528150Y291800D01*
X527750Y291000D01*
X528150Y290200D01*
X527350Y290600D01*
X526550Y290200D01*
Y293950D02*
X526950Y294750D01*
X526550Y295550D01*
X527350Y295150D01*
X528150Y295550D01*
X527750Y294750D01*
X528150Y293950D01*
X527350Y294350D01*
X526550Y293950D01*
Y297700D02*
X526950Y298500D01*
X526550Y299300D01*
X527350Y298900D01*
X528150Y299300D01*
X527750Y298500D01*
X528150Y297700D01*
X527350Y298100D01*
X526550Y297700D01*
X534550Y282700D02*
X534950Y283500D01*
X534550Y284300D01*
X535350Y283900D01*
X536150Y284300D01*
X535750Y283500D01*
X536150Y282700D01*
X535350Y283100D01*
X534550Y282700D01*
Y286450D02*
X534950Y287250D01*
X534550Y288050D01*
X535350Y287650D01*
X536150Y288050D01*
X535750Y287250D01*
X536150Y286450D01*
X535350Y286850D01*
X534550Y286450D01*
X526550Y282700D02*
X526950Y283500D01*
X526550Y284300D01*
X527350Y283900D01*
X528150Y284300D01*
X527750Y283500D01*
X528150Y282700D01*
X527350Y283100D01*
X526550Y282700D01*
X530550D02*
X530950Y283500D01*
X530550Y284300D01*
X531350Y283900D01*
X532150Y284300D01*
X531750Y283500D01*
X532150Y282700D01*
X531350Y283100D01*
X530550Y282700D01*
Y286450D02*
X530950Y287250D01*
X530550Y288050D01*
X531350Y287650D01*
X532150Y288050D01*
X531750Y287250D01*
X532150Y286450D01*
X531350Y286850D01*
X530550Y286450D01*
X526550D02*
X526950Y287250D01*
X526550Y288050D01*
X527350Y287650D01*
X528150Y288050D01*
X527750Y287250D01*
X528150Y286450D01*
X527350Y286850D01*
X526550Y286450D01*
X502550D02*
X502950Y287250D01*
X502550Y288050D01*
X503350Y287650D01*
X504150Y288050D01*
X503750Y287250D01*
X504150Y286450D01*
X503350Y286850D01*
X502550Y286450D01*
X506550D02*
X506950Y287250D01*
X506550Y288050D01*
X507350Y287650D01*
X508150Y288050D01*
X507750Y287250D01*
X508150Y286450D01*
X507350Y286850D01*
X506550Y286450D01*
X514550D02*
X514950Y287250D01*
X514550Y288050D01*
X515350Y287650D01*
X516150Y288050D01*
X515750Y287250D01*
X516150Y286450D01*
X515350Y286850D01*
X514550Y286450D01*
X518550D02*
X518950Y287250D01*
X518550Y288050D01*
X519350Y287650D01*
X520150Y288050D01*
X519750Y287250D01*
X520150Y286450D01*
X519350Y286850D01*
X518550Y286450D01*
X510550D02*
X510950Y287250D01*
X510550Y288050D01*
X511350Y287650D01*
X512150Y288050D01*
X511750Y287250D01*
X512150Y286450D01*
X511350Y286850D01*
X510550Y286450D01*
X522550D02*
X522950Y287250D01*
X522550Y288050D01*
X523350Y287650D01*
X524150Y288050D01*
X523750Y287250D01*
X524150Y286450D01*
X523350Y286850D01*
X522550Y286450D01*
X502550Y282700D02*
X502950Y283500D01*
X502550Y284300D01*
X503350Y283900D01*
X504150Y284300D01*
X503750Y283500D01*
X504150Y282700D01*
X503350Y283100D01*
X502550Y282700D01*
X498550D02*
X498950Y283500D01*
X498550Y284300D01*
X499350Y283900D01*
X500150Y284300D01*
X499750Y283500D01*
X500150Y282700D01*
X499350Y283100D01*
X498550Y282700D01*
X510550D02*
X510950Y283500D01*
X510550Y284300D01*
X511350Y283900D01*
X512150Y284300D01*
X511750Y283500D01*
X512150Y282700D01*
X511350Y283100D01*
X510550Y282700D01*
X506550D02*
X506950Y283500D01*
X506550Y284300D01*
X507350Y283900D01*
X508150Y284300D01*
X507750Y283500D01*
X508150Y282700D01*
X507350Y283100D01*
X506550Y282700D01*
X510550Y290200D02*
X510950Y291000D01*
X510550Y291800D01*
X511350Y291400D01*
X512150Y291800D01*
X511750Y291000D01*
X512150Y290200D01*
X511350Y290600D01*
X510550Y290200D01*
X514550Y293950D02*
X514950Y294750D01*
X514550Y295550D01*
X515350Y295150D01*
X516150Y295550D01*
X515750Y294750D01*
X516150Y293950D01*
X515350Y294350D01*
X514550Y293950D01*
X518550D02*
X518950Y294750D01*
X518550Y295550D01*
X519350Y295150D01*
X520150Y295550D01*
X519750Y294750D01*
X520150Y293950D01*
X519350Y294350D01*
X518550Y293950D01*
X522550Y297700D02*
X522950Y298500D01*
X522550Y299300D01*
X523350Y298900D01*
X524150Y299300D01*
X523750Y298500D01*
X524150Y297700D01*
X523350Y298100D01*
X522550Y297700D01*
Y282700D02*
X522950Y283500D01*
X522550Y284300D01*
X523350Y283900D01*
X524150Y284300D01*
X523750Y283500D01*
X524150Y282700D01*
X523350Y283100D01*
X522550Y282700D01*
X514550D02*
X514950Y283500D01*
X514550Y284300D01*
X515350Y283900D01*
X516150Y284300D01*
X515750Y283500D01*
X516150Y282700D01*
X515350Y283100D01*
X514550Y282700D01*
X518550D02*
X518950Y283500D01*
X518550Y284300D01*
X519350Y283900D01*
X520150Y284300D01*
X519750Y283500D01*
X520150Y282700D01*
X519350Y283100D01*
X518550Y282700D01*
Y290200D02*
X518950Y291000D01*
X518550Y291800D01*
X519350Y291400D01*
X520150Y291800D01*
X519750Y291000D01*
X520150Y290200D01*
X519350Y290600D01*
X518550Y290200D01*
X514550D02*
X514950Y291000D01*
X514550Y291800D01*
X515350Y291400D01*
X516150Y291800D01*
X515750Y291000D01*
X516150Y290200D01*
X515350Y290600D01*
X514550Y290200D01*
X518550Y297700D02*
X518950Y298500D01*
X518550Y299300D01*
X519350Y298900D01*
X520150Y299300D01*
X519750Y298500D01*
X520150Y297700D01*
X519350Y298100D01*
X518550Y297700D01*
X522550Y293950D02*
X522950Y294750D01*
X522550Y295550D01*
X523350Y295150D01*
X524150Y295550D01*
X523750Y294750D01*
X524150Y293950D01*
X523350Y294350D01*
X522550Y293950D01*
Y290200D02*
X522950Y291000D01*
X522550Y291800D01*
X523350Y291400D01*
X524150Y291800D01*
X523750Y291000D01*
X524150Y290200D01*
X523350Y290600D01*
X522550Y290200D01*
X569550Y280200D02*
X569950Y281000D01*
X569550Y281800D01*
X570350Y281400D01*
X571150Y281800D01*
X570750Y281000D01*
X571150Y280200D01*
X570350Y280600D01*
X569550Y280200D01*
X571750D02*
X572150Y281000D01*
X571750Y281800D01*
X572550Y281400D01*
X573350Y281800D01*
X572950Y281000D01*
X573350Y280200D01*
X572550Y280600D01*
X571750Y280200D01*
X567350D02*
X567750Y281000D01*
X567350Y281800D01*
X568150Y281400D01*
X568950Y281800D01*
X568550Y281000D01*
X568950Y280200D01*
X568150Y280600D01*
X567350Y280200D01*
X571750Y282400D02*
X572150Y283200D01*
X571750Y284000D01*
X572550Y283600D01*
X573350Y284000D01*
X572950Y283200D01*
X573350Y282400D01*
X572550Y282800D01*
X571750Y282400D01*
X569550D02*
X569950Y283200D01*
X569550Y284000D01*
X570350Y283600D01*
X571150Y284000D01*
X570750Y283200D01*
X571150Y282400D01*
X570350Y282800D01*
X569550Y282400D01*
X567350D02*
X567750Y283200D01*
X567350Y284000D01*
X568150Y283600D01*
X568950Y284000D01*
X568550Y283200D01*
X568950Y282400D01*
X568150Y282800D01*
X567350Y282400D01*
Y291200D02*
X567750Y292000D01*
X567350Y292800D01*
X568150Y292400D01*
X568950Y292800D01*
X568550Y292000D01*
X568950Y291200D01*
X568150Y291600D01*
X567350Y291200D01*
X569550D02*
X569950Y292000D01*
X569550Y292800D01*
X570350Y292400D01*
X571150Y292800D01*
X570750Y292000D01*
X571150Y291200D01*
X570350Y291600D01*
X569550Y291200D01*
X571750D02*
X572150Y292000D01*
X571750Y292800D01*
X572550Y292400D01*
X573350Y292800D01*
X572950Y292000D01*
X573350Y291200D01*
X572550Y291600D01*
X571750Y291200D01*
Y300000D02*
X572150Y300800D01*
X571750Y301600D01*
X572550Y301200D01*
X573350Y301600D01*
X572950Y300800D01*
X573350Y300000D01*
X572550Y300400D01*
X571750Y300000D01*
X569550D02*
X569950Y300800D01*
X569550Y301600D01*
X570350Y301200D01*
X571150Y301600D01*
X570750Y300800D01*
X571150Y300000D01*
X570350Y300400D01*
X569550Y300000D01*
X567350D02*
X567750Y300800D01*
X567350Y301600D01*
X568150Y301200D01*
X568950Y301600D01*
X568550Y300800D01*
X568950Y300000D01*
X568150Y300400D01*
X567350Y300000D01*
X487457Y290793D02*
X487857Y291593D01*
X487457Y292393D01*
X488257Y291993D01*
X489057Y292393D01*
X488657Y291593D01*
X489057Y290793D01*
X488257Y291193D01*
X487457Y290793D01*
D37*
X542245Y364873D02*
G03*
X542245Y364873I-800J0D01*
G01*
M02*
