G04*
G04 #@! TF.GenerationSoftware,Altium Limited,Altium Designer,22.3.1 (43)*
G04*
G04 Layer_Color=128*
%FSLAX25Y25*%
%MOIN*%
G70*
G04*
G04 #@! TF.SameCoordinates,E818B628-65F0-44BA-8D72-483C3118F3C7*
G04*
G04*
G04 #@! TF.FilePolarity,Positive*
G04*
G01*
G75*
%ADD36C,0.00200*%
D36*
X70074Y309093D02*
X72436D01*
X71255Y307912D02*
Y310275D01*
X75074Y318963D02*
X77436D01*
X76255Y317782D02*
Y320145D01*
X75074Y353963D02*
X77436D01*
X76255Y352782D02*
Y355145D01*
X75074Y363963D02*
X77436D01*
X76255Y362782D02*
Y365144D01*
X75074Y358963D02*
X77436D01*
X76255Y357782D02*
Y360144D01*
X75074Y348963D02*
X77436D01*
X76255Y347782D02*
Y350145D01*
X75074Y328963D02*
X77436D01*
X76255Y327782D02*
Y330145D01*
X75074Y343963D02*
X77436D01*
X76255Y342782D02*
Y345145D01*
X75074Y338963D02*
X77436D01*
X76255Y337782D02*
Y340144D01*
X75074Y333963D02*
X77436D01*
X76255Y332782D02*
Y335144D01*
X75074Y323963D02*
X77436D01*
X76255Y322782D02*
Y325145D01*
X75074Y291593D02*
X77436D01*
X76255Y290412D02*
Y292775D01*
X75074Y311593D02*
X77436D01*
X76255Y310412D02*
Y312774D01*
X75074Y306593D02*
X77436D01*
X76255Y305412D02*
Y307774D01*
X75074Y301593D02*
X77436D01*
X76255Y300412D02*
Y302775D01*
X75074Y296593D02*
X77436D01*
X76255Y295412D02*
Y297775D01*
X70074Y284093D02*
X72436D01*
X71255Y282912D02*
Y285275D01*
X75074Y286593D02*
X77436D01*
X76255Y285412D02*
Y287774D01*
X70074Y289093D02*
X72436D01*
X71255Y287912D02*
Y290275D01*
X70074Y304093D02*
X72436D01*
X71255Y302912D02*
Y305275D01*
X70074Y299093D02*
X72436D01*
X71255Y297912D02*
Y300274D01*
X70074Y294093D02*
X72436D01*
X71255Y292912D02*
Y295274D01*
X70074Y321463D02*
X72436D01*
X71255Y320282D02*
Y322644D01*
X70074Y326463D02*
X72436D01*
X71255Y325282D02*
Y327644D01*
X70074Y314093D02*
X72436D01*
X71255Y312912D02*
Y315275D01*
X70074Y366463D02*
X72436D01*
X71255Y365282D02*
Y367645D01*
X70074Y361463D02*
X72436D01*
X71255Y360282D02*
Y362645D01*
X70074Y356463D02*
X72436D01*
X71255Y355282D02*
Y357645D01*
X70074Y351463D02*
X72436D01*
X71255Y350282D02*
Y352644D01*
X70074Y346463D02*
X72436D01*
X71255Y345282D02*
Y347644D01*
X70074Y341463D02*
X72436D01*
X71255Y340282D02*
Y342645D01*
X70074Y336463D02*
X72436D01*
X71255Y335282D02*
Y337645D01*
X70074Y331463D02*
X72436D01*
X71255Y330282D02*
Y332645D01*
X539378Y364873D02*
X543512D01*
X541445Y362806D02*
Y366940D01*
X538394Y286133D02*
X544496D01*
X541445Y283082D02*
Y289184D01*
X94655Y298200D02*
X97455D01*
X96055Y296800D02*
Y299600D01*
X82155Y368400D02*
X84955D01*
X83555Y367000D02*
Y369800D01*
X94655Y368400D02*
X97455D01*
X96055Y367000D02*
Y369800D01*
X332155Y368400D02*
X334955D01*
X333555Y367000D02*
Y369800D01*
X344655Y368400D02*
X347455D01*
X346055Y367000D02*
Y369800D01*
X344655Y363100D02*
X347455D01*
X346055Y361700D02*
Y364500D01*
X332155Y363100D02*
X334955D01*
X333555Y361700D02*
Y364500D01*
X282155Y363100D02*
X284955D01*
X283555Y361700D02*
Y364500D01*
X257155Y363100D02*
X259955D01*
X258555Y361700D02*
Y364500D01*
X269655Y363100D02*
X272455D01*
X271055Y361700D02*
Y364500D01*
X232155Y363100D02*
X234955D01*
X233555Y361700D02*
Y364500D01*
X244655Y363100D02*
X247455D01*
X246055Y361700D02*
Y364500D01*
X219655Y363100D02*
X222455D01*
X221055Y361700D02*
Y364500D01*
X232155Y368400D02*
X234955D01*
X233555Y367000D02*
Y369800D01*
X219655Y368400D02*
X222455D01*
X221055Y367000D02*
Y369800D01*
X257155Y368400D02*
X259955D01*
X258555Y367000D02*
Y369800D01*
X244655Y368400D02*
X247455D01*
X246055Y367000D02*
Y369800D01*
X282155Y368400D02*
X284955D01*
X283555Y367000D02*
Y369800D01*
X269655Y368400D02*
X272455D01*
X271055Y367000D02*
Y369800D01*
X294655Y363100D02*
X297455D01*
X296055Y361700D02*
Y364500D01*
X307155Y363100D02*
X309955D01*
X308555Y361700D02*
Y364500D01*
X294655Y368400D02*
X297455D01*
X296055Y367000D02*
Y369800D01*
X307155Y368400D02*
X309955D01*
X308555Y367000D02*
Y369800D01*
X319655Y363100D02*
X322455D01*
X321055Y361700D02*
Y364500D01*
X319655Y368400D02*
X322455D01*
X321055Y367000D02*
Y369800D01*
X344655Y303500D02*
X347455D01*
X346055Y302100D02*
Y304900D01*
X332155Y303500D02*
X334955D01*
X333555Y302100D02*
Y304900D01*
X344655Y298200D02*
X347455D01*
X346055Y296800D02*
Y299600D01*
X332155Y298200D02*
X334955D01*
X333555Y296800D02*
Y299600D01*
X319655Y303500D02*
X322455D01*
X321055Y302100D02*
Y304900D01*
X307155Y303500D02*
X309955D01*
X308555Y302100D02*
Y304900D01*
X319655Y298200D02*
X322455D01*
X321055Y296800D02*
Y299600D01*
X307155Y298200D02*
X309955D01*
X308555Y296800D02*
Y299600D01*
X282155Y303500D02*
X284955D01*
X283555Y302100D02*
Y304900D01*
X294655Y303500D02*
X297455D01*
X296055Y302100D02*
Y304900D01*
X257155Y303500D02*
X259955D01*
X258555Y302100D02*
Y304900D01*
X269655Y303500D02*
X272455D01*
X271055Y302100D02*
Y304900D01*
X232155Y303500D02*
X234955D01*
X233555Y302100D02*
Y304900D01*
X244655Y303500D02*
X247455D01*
X246055Y302100D02*
Y304900D01*
X219655Y303500D02*
X222455D01*
X221055Y302100D02*
Y304900D01*
X232155Y298200D02*
X234955D01*
X233555Y296800D02*
Y299600D01*
X219655Y298200D02*
X222455D01*
X221055Y296800D02*
Y299600D01*
X257155Y298200D02*
X259955D01*
X258555Y296800D02*
Y299600D01*
X244655Y298200D02*
X247455D01*
X246055Y296800D02*
Y299600D01*
X282155Y298200D02*
X284955D01*
X283555Y296800D02*
Y299600D01*
X269655Y298200D02*
X272455D01*
X271055Y296800D02*
Y299600D01*
X294655Y298200D02*
X297455D01*
X296055Y296800D02*
Y299600D01*
X419950Y298200D02*
X422750D01*
X421350Y296800D02*
Y299600D01*
X444950Y298200D02*
X447750D01*
X446350Y296800D02*
Y299600D01*
X432450Y298200D02*
X435250D01*
X433850Y296800D02*
Y299600D01*
X469950Y298200D02*
X472750D01*
X471350Y296800D02*
Y299600D01*
X457450Y298200D02*
X460250D01*
X458850Y296800D02*
Y299600D01*
X394950Y298200D02*
X397750D01*
X396350Y296800D02*
Y299600D01*
X407450Y298200D02*
X410250D01*
X408850Y296800D02*
Y299600D01*
X369950Y298200D02*
X372750D01*
X371350Y296800D02*
Y299600D01*
X382450Y298200D02*
X385250D01*
X383850Y296800D02*
Y299600D01*
X207155Y298200D02*
X209955D01*
X208555Y296800D02*
Y299600D01*
X357450Y298200D02*
X360250D01*
X358850Y296800D02*
Y299600D01*
X182155Y298200D02*
X184955D01*
X183555Y296800D02*
Y299600D01*
X194655Y298200D02*
X197455D01*
X196055Y296800D02*
Y299600D01*
X157155Y298200D02*
X159955D01*
X158555Y296800D02*
Y299600D01*
X169655Y298200D02*
X172455D01*
X171055Y296800D02*
Y299600D01*
X132155Y298200D02*
X134955D01*
X133555Y296800D02*
Y299600D01*
X144655Y298200D02*
X147455D01*
X146055Y296800D02*
Y299600D01*
X119655Y298200D02*
X122455D01*
X121055Y296800D02*
Y299600D01*
X107155Y298200D02*
X109955D01*
X108555Y296800D02*
Y299600D01*
X107155Y303500D02*
X109955D01*
X108555Y302100D02*
Y304900D01*
X119655Y303500D02*
X122455D01*
X121055Y302100D02*
Y304900D01*
X132155Y303500D02*
X134955D01*
X133555Y302100D02*
Y304900D01*
X157155Y303500D02*
X159955D01*
X158555Y302100D02*
Y304900D01*
X144655Y303500D02*
X147455D01*
X146055Y302100D02*
Y304900D01*
X182155Y303500D02*
X184955D01*
X183555Y302100D02*
Y304900D01*
X169655Y303500D02*
X172455D01*
X171055Y302100D02*
Y304900D01*
X207155Y303500D02*
X209955D01*
X208555Y302100D02*
Y304900D01*
X194655Y303500D02*
X197455D01*
X196055Y302100D02*
Y304900D01*
X369950Y303500D02*
X372750D01*
X371350Y302100D02*
Y304900D01*
X357450Y303500D02*
X360250D01*
X358850Y302100D02*
Y304900D01*
X394950Y303500D02*
X397750D01*
X396350Y302100D02*
Y304900D01*
X382450Y303500D02*
X385250D01*
X383850Y302100D02*
Y304900D01*
X419950Y303500D02*
X422750D01*
X421350Y302100D02*
Y304900D01*
X407450Y303500D02*
X410250D01*
X408850Y302100D02*
Y304900D01*
X469950Y303500D02*
X472750D01*
X471350Y302100D02*
Y304900D01*
X482450Y303500D02*
X485250D01*
X483850Y302100D02*
Y304900D01*
X444950Y303500D02*
X447750D01*
X446350Y302100D02*
Y304900D01*
X457450Y303500D02*
X460250D01*
X458850Y302100D02*
Y304900D01*
X432450Y303500D02*
X435250D01*
X433850Y302100D02*
Y304900D01*
X494950Y303500D02*
X497750D01*
X496350Y302100D02*
Y304900D01*
X107155Y363100D02*
X109955D01*
X108555Y361700D02*
Y364500D01*
X119655Y363100D02*
X122455D01*
X121055Y361700D02*
Y364500D01*
X132155Y363100D02*
X134955D01*
X133555Y361700D02*
Y364500D01*
X157155Y363100D02*
X159955D01*
X158555Y361700D02*
Y364500D01*
X144655Y363100D02*
X147455D01*
X146055Y361700D02*
Y364500D01*
X182155Y363100D02*
X184955D01*
X183555Y361700D02*
Y364500D01*
X169655Y363100D02*
X172455D01*
X171055Y361700D02*
Y364500D01*
X207155Y363100D02*
X209955D01*
X208555Y361700D02*
Y364500D01*
X194655Y363100D02*
X197455D01*
X196055Y361700D02*
Y364500D01*
X369950Y363100D02*
X372750D01*
X371350Y361700D02*
Y364500D01*
X357450Y363100D02*
X360250D01*
X358850Y361700D02*
Y364500D01*
X394950Y363100D02*
X397750D01*
X396350Y361700D02*
Y364500D01*
X382450Y363100D02*
X385250D01*
X383850Y361700D02*
Y364500D01*
X419950Y363100D02*
X422750D01*
X421350Y361700D02*
Y364500D01*
X407450Y363100D02*
X410250D01*
X408850Y361700D02*
Y364500D01*
X469950Y363100D02*
X472750D01*
X471350Y361700D02*
Y364500D01*
X482450Y363100D02*
X485250D01*
X483850Y361700D02*
Y364500D01*
X444950Y363100D02*
X447750D01*
X446350Y361700D02*
Y364500D01*
X457450Y363100D02*
X460250D01*
X458850Y361700D02*
Y364500D01*
X432450Y363100D02*
X435250D01*
X433850Y361700D02*
Y364500D01*
X494950Y363100D02*
X497750D01*
X496350Y361700D02*
Y364500D01*
X507450Y363100D02*
X510250D01*
X508850Y361700D02*
Y364500D01*
X507450Y368400D02*
X510250D01*
X508850Y367000D02*
Y369800D01*
X494950Y368400D02*
X497750D01*
X496350Y367000D02*
Y369800D01*
X432450Y368400D02*
X435250D01*
X433850Y367000D02*
Y369800D01*
X457450Y368400D02*
X460250D01*
X458850Y367000D02*
Y369800D01*
X444950Y368400D02*
X447750D01*
X446350Y367000D02*
Y369800D01*
X482450Y368400D02*
X485250D01*
X483850Y367000D02*
Y369800D01*
X469950Y368400D02*
X472750D01*
X471350Y367000D02*
Y369800D01*
X407450Y368400D02*
X410250D01*
X408850Y367000D02*
Y369800D01*
X419950Y368400D02*
X422750D01*
X421350Y367000D02*
Y369800D01*
X382450Y368400D02*
X385250D01*
X383850Y367000D02*
Y369800D01*
X394950Y368400D02*
X397750D01*
X396350Y367000D02*
Y369800D01*
X357450Y368400D02*
X360250D01*
X358850Y367000D02*
Y369800D01*
X369950Y368400D02*
X372750D01*
X371350Y367000D02*
Y369800D01*
X194655Y368400D02*
X197455D01*
X196055Y367000D02*
Y369800D01*
X207155Y368400D02*
X209955D01*
X208555Y367000D02*
Y369800D01*
X169655Y368400D02*
X172455D01*
X171055Y367000D02*
Y369800D01*
X182155Y368400D02*
X184955D01*
X183555Y367000D02*
Y369800D01*
X144655Y368400D02*
X147455D01*
X146055Y367000D02*
Y369800D01*
X157155Y368400D02*
X159955D01*
X158555Y367000D02*
Y369800D01*
X132155Y368400D02*
X134955D01*
X133555Y367000D02*
Y369800D01*
X119655Y368400D02*
X122455D01*
X121055Y367000D02*
Y369800D01*
X107155Y368400D02*
X109955D01*
X108555Y367000D02*
Y369800D01*
X566068Y311697D02*
X567467D01*
X566768Y310997D02*
Y312397D01*
X566068Y307815D02*
X567467D01*
X566768Y307115D02*
Y308515D01*
X566068Y358941D02*
X567467D01*
X566768Y358241D02*
Y359641D01*
X566068Y355059D02*
X567467D01*
X566768Y354359D02*
Y355759D01*
X570068Y353036D02*
X571467D01*
X570767Y352336D02*
Y353736D01*
X570068Y349153D02*
X571467D01*
X570767Y348453D02*
Y349853D01*
X570068Y341225D02*
X571467D01*
X570767Y340525D02*
Y341925D01*
X570068Y337342D02*
X571467D01*
X570767Y336642D02*
Y338042D01*
X566068Y343248D02*
X567467D01*
X566768Y342548D02*
Y343948D01*
X566068Y347130D02*
X567467D01*
X566768Y346430D02*
Y347830D01*
X566068Y335319D02*
X567467D01*
X566768Y334619D02*
Y336019D01*
X566068Y331437D02*
X567467D01*
X566768Y330737D02*
Y332137D01*
X570068Y329414D02*
X571467D01*
X570767Y328714D02*
Y330114D01*
X570068Y325531D02*
X571467D01*
X570767Y324831D02*
Y326231D01*
X566068Y319626D02*
X567467D01*
X566768Y318926D02*
Y320326D01*
X566068Y323508D02*
X567467D01*
X566768Y322808D02*
Y324208D01*
X570068Y313720D02*
X571467D01*
X570767Y313020D02*
Y314420D01*
X570068Y317603D02*
X571467D01*
X570767Y316903D02*
Y318303D01*
X524414Y360850D02*
X525814D01*
X525114Y360150D02*
Y361550D01*
X549076Y367150D02*
X550476D01*
X549776Y366450D02*
Y367850D01*
X545076Y367150D02*
X546476D01*
X545776Y366450D02*
Y367850D01*
X545226Y364150D02*
X546626D01*
X545926Y363450D02*
Y364850D01*
X549226Y364150D02*
X550626D01*
X549926Y363450D02*
Y364850D01*
X532264Y364150D02*
X533664D01*
X532964Y363450D02*
Y364850D01*
X528264Y364150D02*
X529664D01*
X528964Y363450D02*
Y364850D01*
X536264Y364150D02*
X537664D01*
X536964Y363450D02*
Y364850D01*
X524414Y367150D02*
X525814D01*
X525114Y366450D02*
Y367850D01*
X524414Y364000D02*
X525814D01*
X525114Y363300D02*
Y364700D01*
X536414Y367150D02*
X537815D01*
X537114Y366450D02*
Y367850D01*
X528414Y367150D02*
X529814D01*
X529114Y366450D02*
Y367850D01*
X532414Y367150D02*
X533814D01*
X533114Y366450D02*
Y367850D01*
X585150Y361000D02*
X586550D01*
X585850Y360300D02*
Y361700D01*
X589150Y361000D02*
X590550D01*
X589850Y360300D02*
Y361700D01*
X589150Y365000D02*
X590550D01*
X589850Y364300D02*
Y365700D01*
X581150Y365000D02*
X582550D01*
X581850Y364300D02*
Y365700D01*
X585150Y365000D02*
X586550D01*
X585850Y364300D02*
Y365700D01*
X577150Y365000D02*
X578550D01*
X577850Y364300D02*
Y365700D01*
X585150Y369000D02*
X586550D01*
X585850Y368300D02*
Y369700D01*
X581150Y369000D02*
X582550D01*
X581850Y368300D02*
Y369700D01*
X577150Y369000D02*
X578550D01*
X577850Y368300D02*
Y369700D01*
X589150Y369000D02*
X590550D01*
X589850Y368300D02*
Y369700D01*
X587150Y347250D02*
X588550D01*
X587850Y346550D02*
Y347950D01*
X575150Y347250D02*
X576550D01*
X575850Y346550D02*
Y347950D01*
X579150Y347250D02*
X580550D01*
X579850Y346550D02*
Y347950D01*
X583150Y347250D02*
X584550D01*
X583850Y346550D02*
Y347950D01*
X526650Y291000D02*
X528050D01*
X527350Y290300D02*
Y291700D01*
X526650Y294750D02*
X528050D01*
X527350Y294050D02*
Y295450D01*
X526650Y298500D02*
X528050D01*
X527350Y297800D02*
Y299200D01*
X534650Y283500D02*
X536050D01*
X535350Y282800D02*
Y284200D01*
X534650Y287250D02*
X536050D01*
X535350Y286550D02*
Y287950D01*
X526650Y283500D02*
X528050D01*
X527350Y282800D02*
Y284200D01*
X530650Y283500D02*
X532050D01*
X531350Y282800D02*
Y284200D01*
X530650Y287250D02*
X532050D01*
X531350Y286550D02*
Y287950D01*
X526650Y287250D02*
X528050D01*
X527350Y286550D02*
Y287950D01*
X502650Y287250D02*
X504050D01*
X503350Y286550D02*
Y287950D01*
X506650Y287250D02*
X508050D01*
X507350Y286550D02*
Y287950D01*
X514650Y287250D02*
X516050D01*
X515350Y286550D02*
Y287950D01*
X518650Y287250D02*
X520050D01*
X519350Y286550D02*
Y287950D01*
X510650Y287250D02*
X512050D01*
X511350Y286550D02*
Y287950D01*
X522650Y287250D02*
X524050D01*
X523350Y286550D02*
Y287950D01*
X502650Y283500D02*
X504050D01*
X503350Y282800D02*
Y284200D01*
X498650Y283500D02*
X500050D01*
X499350Y282800D02*
Y284200D01*
X510650Y283500D02*
X512050D01*
X511350Y282800D02*
Y284200D01*
X506650Y283500D02*
X508050D01*
X507350Y282800D02*
Y284200D01*
X510650Y291000D02*
X512050D01*
X511350Y290300D02*
Y291700D01*
X514650Y294750D02*
X516050D01*
X515350Y294050D02*
Y295450D01*
X518650Y294750D02*
X520050D01*
X519350Y294050D02*
Y295450D01*
X522650Y298500D02*
X524050D01*
X523350Y297800D02*
Y299200D01*
X522650Y283500D02*
X524050D01*
X523350Y282800D02*
Y284200D01*
X514650Y283500D02*
X516050D01*
X515350Y282800D02*
Y284200D01*
X518650Y283500D02*
X520050D01*
X519350Y282800D02*
Y284200D01*
X518650Y291000D02*
X520050D01*
X519350Y290300D02*
Y291700D01*
X514650Y291000D02*
X516050D01*
X515350Y290300D02*
Y291700D01*
X518650Y298500D02*
X520050D01*
X519350Y297800D02*
Y299200D01*
X522650Y294750D02*
X524050D01*
X523350Y294050D02*
Y295450D01*
X522650Y291000D02*
X524050D01*
X523350Y290300D02*
Y291700D01*
X569650Y281000D02*
X571050D01*
X570350Y280300D02*
Y281700D01*
X571850Y281000D02*
X573250D01*
X572550Y280300D02*
Y281700D01*
X567450Y281000D02*
X568850D01*
X568150Y280300D02*
Y281700D01*
X571850Y283200D02*
X573250D01*
X572550Y282500D02*
Y283900D01*
X569650Y283200D02*
X571050D01*
X570350Y282500D02*
Y283900D01*
X567450Y283200D02*
X568850D01*
X568150Y282500D02*
Y283900D01*
X567450Y292000D02*
X568850D01*
X568150Y291300D02*
Y292700D01*
X569650Y292000D02*
X571050D01*
X570350Y291300D02*
Y292700D01*
X571850Y292000D02*
X573250D01*
X572550Y291300D02*
Y292700D01*
X571850Y300800D02*
X573250D01*
X572550Y300100D02*
Y301500D01*
X569650Y300800D02*
X571050D01*
X570350Y300100D02*
Y301500D01*
X567450Y300800D02*
X568850D01*
X568150Y300100D02*
Y301500D01*
X487557Y291593D02*
X488957D01*
X488257Y290893D02*
Y292293D01*
M02*
