M48
;Layer_Color=9474304
;FILE_FORMAT=2:5
INCH,LZ
;TYPE=PLATED
T1F00S00C0.01400
T2F00S00C0.02362
T3F00S00C0.02800
;TYPE=NON_PLATED
T4F00S00C0.04134
T5F00S00C0.06102
%
T01
X0488257Y0291593
X049935Y02835
X050335
Y028725
X050735
Y02835
X051135
Y028725
Y0291
X051535
Y028725
Y02835
X051935
Y028725
Y0291
Y029475
Y02985
X052335
Y029475
Y0291
Y028725
Y02835
X052735
Y028725
Y0291
Y029475
Y02985
X053135Y028725
Y02835
X053535
Y028725
X051535Y029475
X056815Y0292
X057035
X057255
Y02832
Y0281
X057035
X056815
Y02832
X057035
Y03008
X057255
X056815
X0566768Y0307815
Y0311697
X0570767Y031372
Y0317603
X0566768Y0319626
Y0323508
X0570767Y0325531
Y0329414
X0566768Y0331437
Y0335319
X0570767Y0337342
Y0341225
X0566768Y0343248
Y034713
X0570767Y0349153
Y0353036
X0566768Y0355059
Y0358941
X057785Y0365
X058185
X058585
Y0361
X058985
Y0365
Y0369
X058585
X058185
X057785
X057585Y034725
X057985
X058385
X058785
X0549926Y036415
X0549776Y036715
X0545776
X0545926Y036415
X0536964
X0537114Y036715
X0533114
X0532964Y036415
X0528964
X0529114Y036715
X0525114
Y0364
Y036085
T02
X0071255Y0284093
Y0289093
Y0294093
Y0299093
Y0304093
Y0309093
X0076255Y0311593
Y0306593
Y0301593
Y0296593
Y0291593
Y0286593
Y0318963
Y0323963
Y0328963
Y0333963
Y0338963
Y0343963
Y0348963
Y0353963
Y0358963
Y0363963
X0071255Y0366463
Y0361463
Y0356463
Y0351463
Y0346463
Y0341463
Y0336463
Y0331463
Y0326463
Y0321463
Y0314093
T03
X047135Y02982
Y03035
X048385
X049635
X045885
Y02982
X044635
Y03035
X043385
Y02982
X042135
Y03035
X040885
Y02982
X039635
Y03035
X038385
Y02982
X037135
Y03035
X035885
Y02982
X0346055
Y03035
X0333555
Y02982
X0321055
Y03035
X0308555
Y02982
X0296055
Y03035
X0283555
Y02982
X0271055
Y03035
X0258555
Y02982
X0246055
Y03035
X0233555
Y02982
X0221055
Y03035
X0208555
Y02982
X0196055
Y03035
X0183555
Y02982
X0171055
Y03035
X0158555
Y02982
X0146055
Y03035
X0133555
Y02982
X0121055
Y03035
X0108555
Y02982
X0096055
Y03684
X0083555
X0108555
Y03631
X0121055
Y03684
X0133555
Y03631
X0146055
Y03684
X0158555
Y03631
X0171055
Y03684
X0183555
Y03631
X0196055
Y03684
X0208555
Y03631
X0221055
Y03684
X0233555
Y03631
X0246055
Y03684
X0258555
Y03631
X0271055
Y03684
X0283555
Y03631
X0296055
Y03684
X0308555
Y03631
X0321055
Y03684
X0333555
Y03631
X0346055
Y03684
X035885
Y03631
X037135
Y03684
X038385
Y03631
X039635
Y03684
X040885
Y03631
X042135
Y03684
X043385
Y03631
X044635
Y03684
X045885
Y03631
X047135
Y03684
X048385
Y03631
X049635
Y03684
X050885
Y03631
T04
X0541445Y0364873
T05
X0541445Y0286133
M30
