G04*
G04 #@! TF.GenerationSoftware,Altium Limited,Altium Designer,22.3.1 (43)*
G04*
G04 Layer_Color=16711935*
%FSLAX25Y25*%
%MOIN*%
G70*
G04*
G04 #@! TF.SameCoordinates,698DBC82-D8F4-4E88-83ED-E0681CBDB87E*
G04*
G04*
G04 #@! TF.FilePolarity,Positive*
G04*
G01*
G75*
%ADD27C,0.00394*%
D27*
X11417Y60669D02*
G03*
X11417Y65787I122J2559D01*
G01*
X11811Y78188D02*
G03*
X15748Y82126I-0J3937D01*
G01*
X116327Y56634D02*
G03*
X120879Y56634I2276J0D01*
G01*
X123879Y93409D02*
G03*
X120879Y90409I0J-3000D01*
G01*
X134916Y90409D02*
G03*
X131916Y93409I-3000J0D01*
G01*
X131916Y-13142D02*
G03*
X134916Y-10142I0J3000D01*
G01*
X120879D02*
G03*
X123879Y-13142I3000J0D01*
G01*
X120879Y21634D02*
G03*
X116327Y21634I-2276J0D01*
G01*
X15748Y-3937D02*
G03*
X11811Y-0I-3937J-0D01*
G01*
X0Y0D02*
Y60669D01*
X11417Y60669D01*
X0Y65787D02*
X11417Y65787D01*
X0Y65787D02*
Y78188D01*
X11811D01*
X15748Y82126D02*
X15748Y93409D01*
X94103Y93409D01*
X116327Y71186D01*
X116327Y56634D02*
X116327Y71186D01*
X120879Y56634D02*
Y90409D01*
X123879Y93409D02*
X131916Y93409D01*
X134916Y-10142D02*
Y90409D01*
X123879Y-13142D02*
X131916D01*
X120879Y-10142D02*
Y21634D01*
X116327Y9082D02*
Y21634D01*
X94103Y-13142D02*
X116327Y9082D01*
X15748Y-13142D02*
X94103Y-13142D01*
X15748Y-3937D02*
X15748Y-13142D01*
X0Y0D02*
X11811Y-0D01*
M02*
