G04*
G04 #@! TF.GenerationSoftware,Altium Limited,Altium Designer,22.3.1 (43)*
G04*
G04 Layer_Physical_Order=1*
G04 Layer_Color=255*
%FSLAX25Y25*%
%MOIN*%
G70*
G04*
G04 #@! TF.SameCoordinates,698DBC82-D8F4-4E88-83ED-E0681CBDB87E*
G04*
G04*
G04 #@! TF.FilePolarity,Positive*
G04*
G01*
G75*
%ADD13R,0.01575X0.01575*%
%ADD14R,0.07874X0.01181*%
%ADD20C,0.00700*%
%ADD21O,0.04921X0.03150*%
%ADD22O,0.20866X0.20866*%
%ADD23C,0.01400*%
G36*
X55614Y70809D02*
X55605Y70875D01*
X55580Y70933D01*
X55538Y70985D01*
X55479Y71030D01*
X55404Y71068D01*
X55312Y71099D01*
X55202Y71123D01*
X55076Y71141D01*
X54934Y71151D01*
X54774Y71154D01*
Y71854D01*
X54934Y71858D01*
X55202Y71886D01*
X55312Y71910D01*
X55404Y71941D01*
X55479Y71979D01*
X55538Y72024D01*
X55580Y72075D01*
X55605Y72134D01*
X55614Y72200D01*
Y70809D01*
D02*
G37*
G36*
X49044Y68297D02*
X49035Y68362D01*
X49010Y68419D01*
X48968Y68466D01*
X48909Y68505D01*
X48834Y68535D01*
X48742Y68557D01*
X48633Y68569D01*
X48508Y68573D01*
X48366Y68568D01*
X48207Y68554D01*
X48200Y69260D01*
X48359Y69281D01*
X48628Y69338D01*
X48737Y69374D01*
X48829Y69415D01*
X48904Y69461D01*
X48962Y69512D01*
X49004Y69568D01*
X49029Y69629D01*
X49037Y69695D01*
X49044Y68297D01*
D02*
G37*
G36*
X49046Y63293D02*
X49037Y63358D01*
X49011Y63415D01*
X48969Y63463D01*
X48910Y63502D01*
X48835Y63532D01*
X48742Y63554D01*
X48634Y63567D01*
X48508Y63571D01*
X48366Y63567D01*
X48207Y63554D01*
X48199Y64259D01*
X48359Y64279D01*
X48627Y64334D01*
X48735Y64370D01*
X48827Y64411D01*
X48902Y64456D01*
X48961Y64507D01*
X49002Y64563D01*
X49027Y64624D01*
X49035Y64690D01*
X49046Y63293D01*
D02*
G37*
G36*
X55614Y60809D02*
X55605Y60875D01*
X55580Y60933D01*
X55538Y60985D01*
X55479Y61030D01*
X55404Y61068D01*
X55312Y61099D01*
X55202Y61123D01*
X55076Y61141D01*
X54934Y61151D01*
X54774Y61154D01*
Y61854D01*
X54934Y61858D01*
X55202Y61885D01*
X55312Y61910D01*
X55404Y61941D01*
X55479Y61979D01*
X55538Y62024D01*
X55580Y62076D01*
X55605Y62134D01*
X55614Y62200D01*
Y60809D01*
D02*
G37*
G36*
Y55809D02*
X55605Y55875D01*
X55580Y55933D01*
X55538Y55985D01*
X55479Y56030D01*
X55404Y56068D01*
X55312Y56099D01*
X55202Y56123D01*
X55076Y56141D01*
X54934Y56151D01*
X54774Y56154D01*
Y56854D01*
X54934Y56858D01*
X55202Y56885D01*
X55312Y56910D01*
X55404Y56941D01*
X55479Y56979D01*
X55538Y57024D01*
X55580Y57076D01*
X55605Y57134D01*
X55614Y57200D01*
Y55809D01*
D02*
G37*
G36*
X9345Y56176D02*
X9366Y56116D01*
X9401Y56063D01*
X9450Y56018D01*
X9513Y55980D01*
X9590Y55948D01*
X9681Y55924D01*
X9786Y55906D01*
X9905Y55896D01*
X10038Y55892D01*
Y55192D01*
X9905Y55193D01*
X9366Y55228D01*
X9345Y55237D01*
X9338Y55248D01*
Y56242D01*
X9345Y56176D01*
D02*
G37*
G36*
X123879Y92699D02*
X131416Y92699D01*
X131916Y92699D01*
X132381Y92614D01*
X132795Y92532D01*
X133541Y92034D01*
X134039Y91289D01*
X134120Y90878D01*
X134206Y90409D01*
X134206Y90409D01*
X134206Y89921D01*
Y-10142D01*
X134210Y-10161D01*
X134039Y-11021D01*
X133541Y-11766D01*
X132795Y-12264D01*
X131936Y-12435D01*
X131916Y-12431D01*
X123879D01*
X123859Y-12435D01*
X123000Y-12264D01*
X122255Y-11766D01*
X121756Y-11021D01*
X121586Y-10161D01*
X121590Y-10142D01*
Y21634D01*
X121601D01*
X121499Y22411D01*
X121200Y23134D01*
X120723Y23755D01*
X120102Y24231D01*
X119379Y24531D01*
X118603Y24633D01*
X117827Y24531D01*
X117103Y24231D01*
X116482Y23755D01*
X116006Y23134D01*
X115706Y22411D01*
X115604Y21634D01*
X115616D01*
Y9376D01*
X93809Y-12431D01*
X16459Y-12431D01*
X16459Y-4437D01*
X16485Y-3937D01*
X16485D01*
X16326Y-2728D01*
X15859Y-1600D01*
X15116Y-632D01*
X14148Y110D01*
X13021Y577D01*
X12296Y673D01*
X11811Y736D01*
X11322Y710D01*
X10650Y710D01*
X10350Y1086D01*
Y2086D01*
X5413D01*
Y3267D01*
X10350D01*
Y4055D01*
X5413D01*
Y5236D01*
X10350D01*
Y6031D01*
X15945D01*
Y6028D01*
X16868Y5907D01*
X17497Y5647D01*
X17607Y5586D01*
X17731Y5511D01*
X17788Y5472D01*
X17793Y5456D01*
X17778Y5420D01*
X17796Y5380D01*
Y4310D01*
X22890D01*
Y5380D01*
X22907Y5420D01*
X22893Y5456D01*
X22896Y5468D01*
X23086Y5590D01*
X23189Y5647D01*
X23818Y5907D01*
X24741Y6028D01*
Y6031D01*
X35638D01*
Y6031D01*
X36977Y5899D01*
X38264Y5509D01*
X39450Y4875D01*
X40476Y4032D01*
X40477Y4009D01*
Y4009D01*
X41805Y2875D01*
X43294Y1963D01*
X44907Y1295D01*
X46605Y887D01*
X48317Y752D01*
X48338Y743D01*
X48442Y742D01*
X48534Y736D01*
X48934Y138D01*
X49620Y-320D01*
X50429Y-481D01*
X52201D01*
X53011Y-320D01*
X53697Y138D01*
X54156Y825D01*
X54317Y1634D01*
X54156Y2444D01*
X53939Y2768D01*
X54207Y3268D01*
X54707D01*
X54762Y3243D01*
X54908Y3240D01*
X55020Y3232D01*
X55107Y3220D01*
X55122Y3217D01*
X55509Y2639D01*
X56195Y2180D01*
X57004Y2019D01*
X58776D01*
X59585Y2180D01*
X60272Y2639D01*
X60730Y3325D01*
X60891Y4134D01*
X60730Y4944D01*
X60272Y5630D01*
X59585Y6089D01*
X58776Y6250D01*
X57004D01*
X56195Y6089D01*
X55509Y5630D01*
X55122Y5052D01*
X55116Y5051D01*
X54900Y5029D01*
X54762Y5026D01*
X54707Y5001D01*
X45690D01*
X45681Y4999D01*
X44597Y5142D01*
X43578Y5564D01*
X43094Y5936D01*
X42728Y6260D01*
X42728Y6260D01*
X41208Y7507D01*
X39475Y8433D01*
X37594Y9004D01*
X35638Y9196D01*
Y9165D01*
X24741D01*
Y9167D01*
X23818Y9289D01*
X23189Y9549D01*
X23079Y9610D01*
X22955Y9685D01*
X22897Y9724D01*
X22893Y9740D01*
X22907Y9776D01*
X22890Y9816D01*
Y10885D01*
X17796D01*
Y9816D01*
X17778Y9776D01*
X17793Y9740D01*
X17789Y9727D01*
X17600Y9606D01*
X17497Y9549D01*
X16868Y9289D01*
X15945Y9167D01*
Y9165D01*
X10350D01*
Y9960D01*
X5413D01*
Y11141D01*
X10350D01*
Y11937D01*
X39987D01*
Y11931D01*
X40528Y11823D01*
X40976Y11524D01*
X40977Y11509D01*
Y11509D01*
X42305Y10375D01*
X43794Y9463D01*
X45407Y8795D01*
X47105Y8387D01*
X48845Y8250D01*
Y8268D01*
X54707D01*
X54762Y8243D01*
X54908Y8240D01*
X55020Y8232D01*
X55107Y8220D01*
X55122Y8217D01*
X55509Y7638D01*
X56195Y7180D01*
X57004Y7019D01*
X58776D01*
X59585Y7180D01*
X60272Y7638D01*
X60730Y8325D01*
X60891Y9134D01*
X60730Y9944D01*
X60272Y10630D01*
X59585Y11089D01*
X58776Y11250D01*
X57004D01*
X56195Y11089D01*
X55509Y10630D01*
X55122Y10052D01*
X55116Y10051D01*
X54900Y10028D01*
X54762Y10025D01*
X54707Y10001D01*
X54207D01*
X53939Y10501D01*
X54156Y10825D01*
X54317Y11634D01*
X54156Y12444D01*
X53697Y13130D01*
X53011Y13589D01*
X52201Y13750D01*
X50429D01*
X49620Y13589D01*
X48934Y13130D01*
X48547Y12552D01*
X48541Y12551D01*
X48325Y12528D01*
X48188Y12526D01*
X48132Y12501D01*
X46190D01*
X46181Y12499D01*
X45097Y12642D01*
X44078Y13064D01*
X43591Y13438D01*
X43221Y13753D01*
X43221Y13753D01*
X42274Y14480D01*
X41171Y14937D01*
X39987Y15093D01*
Y15070D01*
X10350D01*
Y15866D01*
X5413D01*
Y17047D01*
X10350D01*
Y17842D01*
X15945D01*
Y17840D01*
X16868Y17718D01*
X17497Y17458D01*
X17607Y17398D01*
X17731Y17322D01*
X17788Y17283D01*
X17793Y17267D01*
X17778Y17231D01*
X17796Y17191D01*
Y16122D01*
X22890D01*
Y17191D01*
X22907Y17231D01*
X22893Y17267D01*
X22896Y17279D01*
X23086Y17401D01*
X23189Y17458D01*
X23818Y17718D01*
X24741Y17840D01*
Y17842D01*
X39603D01*
Y17824D01*
X39897Y17765D01*
X40147Y17598D01*
X40150Y17602D01*
X41106Y16817D01*
X42197Y16234D01*
X43380Y15875D01*
X44611Y15754D01*
Y15768D01*
X48132D01*
X48188Y15743D01*
X48333Y15740D01*
X48445Y15732D01*
X48532Y15720D01*
X48547Y15717D01*
X48934Y15139D01*
X49620Y14680D01*
X50429Y14519D01*
X52201D01*
X53011Y14680D01*
X53697Y15139D01*
X54156Y15825D01*
X54317Y16634D01*
X54156Y17444D01*
X53939Y17768D01*
X54207Y18268D01*
X54707D01*
X54762Y18243D01*
X54908Y18240D01*
X55020Y18232D01*
X55107Y18220D01*
X55122Y18217D01*
X55509Y17639D01*
X56195Y17180D01*
X57004Y17019D01*
X58776D01*
X59585Y17180D01*
X60272Y17639D01*
X60730Y18325D01*
X60891Y19134D01*
X60730Y19944D01*
X60272Y20630D01*
X59585Y21089D01*
X58776Y21250D01*
X57004D01*
X56195Y21089D01*
X55509Y20630D01*
X55122Y20052D01*
X55116Y20051D01*
X54900Y20029D01*
X54762Y20026D01*
X54707Y20001D01*
X43775D01*
Y20019D01*
X43640Y20046D01*
X43228Y20260D01*
X43228Y20260D01*
X42400Y20814D01*
X41423Y21008D01*
Y20976D01*
X24741D01*
Y20978D01*
X23818Y21100D01*
X23189Y21360D01*
X23079Y21420D01*
X22955Y21496D01*
X22897Y21535D01*
X22893Y21551D01*
X22907Y21587D01*
X22890Y21627D01*
Y22696D01*
X17796D01*
Y21627D01*
X17778Y21587D01*
X17793Y21551D01*
X17789Y21539D01*
X17600Y21417D01*
X17497Y21360D01*
X16868Y21100D01*
X15945Y20978D01*
Y20976D01*
X10350D01*
Y21771D01*
X5413D01*
Y22952D01*
X10350D01*
Y23748D01*
X39606D01*
Y23727D01*
X40746Y23877D01*
X41808Y24317D01*
X42720Y25017D01*
X42720Y25017D01*
X43098Y25312D01*
X43515Y25591D01*
X44444Y25775D01*
X44483Y25768D01*
X48132D01*
X48188Y25743D01*
X48333Y25740D01*
X48445Y25732D01*
X48532Y25720D01*
X48547Y25717D01*
X48934Y25139D01*
X49620Y24680D01*
X50429Y24519D01*
X52201D01*
X53011Y24680D01*
X53697Y25139D01*
X54156Y25825D01*
X54317Y26634D01*
X54156Y27444D01*
X53939Y27768D01*
X54207Y28268D01*
X54707D01*
X54762Y28243D01*
X54908Y28240D01*
X55020Y28232D01*
X55107Y28220D01*
X55122Y28217D01*
X55509Y27639D01*
X56195Y27180D01*
X57004Y27019D01*
X58776D01*
X59585Y27180D01*
X60272Y27639D01*
X60730Y28325D01*
X60891Y29134D01*
X60730Y29944D01*
X60272Y30630D01*
X59585Y31089D01*
X58776Y31250D01*
X57004D01*
X56195Y31089D01*
X55509Y30630D01*
X55122Y30052D01*
X55116Y30051D01*
X54900Y30028D01*
X54762Y30026D01*
X54707Y30001D01*
X47138D01*
Y30030D01*
X45298Y29849D01*
X43529Y29312D01*
X41899Y28440D01*
X40470Y27268D01*
Y27268D01*
X40467Y27243D01*
X40081Y26985D01*
X39606Y26891D01*
Y26881D01*
X10350D01*
Y27677D01*
X5413D01*
Y28858D01*
X10350D01*
Y29653D01*
X15945D01*
Y29651D01*
X16868Y29529D01*
X17497Y29269D01*
X17607Y29208D01*
X17731Y29133D01*
X17788Y29094D01*
X17793Y29078D01*
X17778Y29042D01*
X17796Y29002D01*
Y27933D01*
X22890D01*
Y29002D01*
X22907Y29042D01*
X22893Y29078D01*
X22896Y29090D01*
X23086Y29212D01*
X23189Y29269D01*
X23818Y29529D01*
X24741Y29651D01*
Y29653D01*
X38171D01*
Y29639D01*
X39425Y29763D01*
X40630Y30128D01*
X41742Y30722D01*
X42716Y31521D01*
Y31521D01*
X42716Y31534D01*
X43606Y32265D01*
X44630Y32812D01*
X45741Y33149D01*
X46897Y33263D01*
Y33268D01*
X54707D01*
X54762Y33243D01*
X54908Y33240D01*
X55020Y33232D01*
X55107Y33220D01*
X55122Y33217D01*
X55509Y32638D01*
X56195Y32180D01*
X57004Y32019D01*
X58776D01*
X59585Y32180D01*
X60272Y32638D01*
X60730Y33325D01*
X60891Y34134D01*
X60730Y34944D01*
X60272Y35630D01*
X59585Y36089D01*
X58776Y36250D01*
X57004D01*
X56195Y36089D01*
X55509Y35630D01*
X55122Y35052D01*
X55116Y35051D01*
X54900Y35028D01*
X54762Y35026D01*
X54707Y35001D01*
X54207D01*
X53939Y35501D01*
X54156Y35825D01*
X54317Y36634D01*
X54156Y37444D01*
X53697Y38130D01*
X53011Y38589D01*
X52201Y38750D01*
X50429D01*
X49620Y38589D01*
X48934Y38130D01*
X48531Y37528D01*
X48506Y37520D01*
X48288Y37482D01*
X48149Y37469D01*
X48062Y37423D01*
X47403Y37371D01*
X45528Y36921D01*
X43746Y36183D01*
X42102Y35175D01*
X40636Y33923D01*
X40636Y33923D01*
X40275Y33589D01*
X39808Y33231D01*
X39018Y32904D01*
X38171Y32792D01*
Y32787D01*
X24741D01*
Y32789D01*
X23818Y32911D01*
X23189Y33171D01*
X23079Y33231D01*
X22955Y33307D01*
X22897Y33346D01*
X22893Y33362D01*
X22907Y33398D01*
X22890Y33438D01*
Y34507D01*
X17796D01*
Y33438D01*
X17778Y33398D01*
X17793Y33362D01*
X17789Y33349D01*
X17600Y33228D01*
X17497Y33171D01*
X16868Y32911D01*
X15945Y32789D01*
Y32787D01*
X10350D01*
Y33582D01*
X5413D01*
Y34763D01*
X10350D01*
Y35559D01*
X34321D01*
Y35539D01*
X36179Y35685D01*
X37992Y36120D01*
X39713Y36833D01*
X41302Y37807D01*
X42720Y39018D01*
Y39018D01*
X42721Y39038D01*
X43606Y39765D01*
X44630Y40312D01*
X45741Y40649D01*
X46897Y40763D01*
Y40768D01*
X48132D01*
X48188Y40743D01*
X48333Y40740D01*
X48445Y40732D01*
X48532Y40720D01*
X48547Y40717D01*
X48934Y40139D01*
X49620Y39680D01*
X50429Y39519D01*
X52201D01*
X53011Y39680D01*
X53697Y40139D01*
X54156Y40825D01*
X54317Y41634D01*
X54156Y42444D01*
X53939Y42768D01*
X54207Y43268D01*
X54707D01*
X54762Y43243D01*
X54908Y43240D01*
X55020Y43232D01*
X55107Y43220D01*
X55122Y43217D01*
X55509Y42638D01*
X56195Y42180D01*
X57004Y42019D01*
X58776D01*
X59585Y42180D01*
X60272Y42638D01*
X60730Y43325D01*
X60891Y44134D01*
X60730Y44944D01*
X60272Y45630D01*
X59585Y46089D01*
X58776Y46250D01*
X57004D01*
X56195Y46089D01*
X55509Y45630D01*
X55122Y45052D01*
X55116Y45051D01*
X54900Y45028D01*
X54762Y45026D01*
X54707Y45001D01*
X49325D01*
Y45022D01*
X47403Y44871D01*
X45528Y44421D01*
X43746Y43683D01*
X42102Y42676D01*
X40636Y41423D01*
X40636Y41423D01*
X40285Y41067D01*
X39173Y40155D01*
X37663Y39348D01*
X36025Y38851D01*
X34351Y38686D01*
X34321Y38692D01*
X10350D01*
Y39488D01*
X5413D01*
Y40669D01*
X10350D01*
Y41464D01*
X15945D01*
Y41462D01*
X16868Y41340D01*
X17497Y41080D01*
X17607Y41019D01*
X17731Y40944D01*
X17788Y40905D01*
X17793Y40889D01*
X17778Y40853D01*
X17796Y40813D01*
Y39744D01*
X22890D01*
Y40813D01*
X22907Y40853D01*
X22893Y40889D01*
X22896Y40901D01*
X23086Y41023D01*
X23189Y41080D01*
X23818Y41340D01*
X24741Y41462D01*
Y41464D01*
X27057D01*
Y41443D01*
X28980Y41594D01*
X30854Y42044D01*
X32636Y42782D01*
X34280Y43790D01*
X35746Y45042D01*
X35746Y45042D01*
X36085Y45411D01*
X42706Y52032D01*
X42706Y52031D01*
X43488Y52631D01*
X44399Y53008D01*
X45376Y53137D01*
Y53138D01*
X48132D01*
X48188Y53113D01*
X48333Y53110D01*
X48445Y53102D01*
X48532Y53090D01*
X48547Y53087D01*
X48934Y52509D01*
X49620Y52050D01*
X50429Y51889D01*
X52201D01*
X53011Y52050D01*
X53697Y52509D01*
X54156Y53195D01*
X54317Y54004D01*
X54156Y54814D01*
X53939Y55138D01*
X54207Y55638D01*
X54707D01*
X54762Y55613D01*
X54908Y55610D01*
X55020Y55602D01*
X55107Y55590D01*
X55122Y55587D01*
X55509Y55009D01*
X56195Y54550D01*
X57004Y54389D01*
X58776D01*
X59585Y54550D01*
X60272Y55009D01*
X60730Y55695D01*
X60891Y56504D01*
X60730Y57314D01*
X60272Y58000D01*
X59585Y58459D01*
X58776Y58620D01*
X57004D01*
X56195Y58459D01*
X55509Y58000D01*
X55122Y57422D01*
X55116Y57421D01*
X54900Y57398D01*
X54762Y57395D01*
X54707Y57371D01*
X48031D01*
Y57387D01*
X46361Y57256D01*
X44731Y56865D01*
X43182Y56223D01*
X41753Y55347D01*
X40478Y54259D01*
X40490Y54247D01*
X33516Y47273D01*
X33495Y47242D01*
X32137Y46128D01*
X30556Y45283D01*
X28841Y44763D01*
X27093Y44590D01*
X27057Y44598D01*
X24741D01*
Y44600D01*
X23818Y44722D01*
X23189Y44982D01*
X23079Y45042D01*
X22955Y45118D01*
X22897Y45157D01*
X22893Y45173D01*
X22907Y45209D01*
X22890Y45249D01*
Y46318D01*
X17796D01*
Y45249D01*
X17778Y45209D01*
X17793Y45173D01*
X17789Y45160D01*
X17600Y45039D01*
X17497Y44982D01*
X16868Y44722D01*
X15945Y44600D01*
Y44598D01*
X10350D01*
Y45393D01*
X5413D01*
Y46574D01*
X10350D01*
Y47370D01*
X26463D01*
Y47349D01*
X28385Y47500D01*
X30260Y47950D01*
X32041Y48688D01*
X33685Y49695D01*
X35152Y50948D01*
X35152Y50948D01*
X35490Y51316D01*
X42706Y58532D01*
X42708Y58535D01*
X43795Y59427D01*
X45038Y60092D01*
X46387Y60501D01*
X47786Y60639D01*
X47790Y60638D01*
X54707D01*
X54762Y60613D01*
X54908Y60610D01*
X55020Y60602D01*
X55107Y60590D01*
X55122Y60587D01*
X55509Y60009D01*
X56195Y59550D01*
X57004Y59389D01*
X58776D01*
X59585Y59550D01*
X60272Y60009D01*
X60730Y60695D01*
X60891Y61504D01*
X60730Y62314D01*
X60272Y63000D01*
X59585Y63459D01*
X58776Y63620D01*
X57004D01*
X56195Y63459D01*
X55509Y63000D01*
X55122Y62422D01*
X55116Y62421D01*
X54900Y62398D01*
X54762Y62396D01*
X54707Y62371D01*
X54207D01*
X53939Y62871D01*
X54156Y63195D01*
X54317Y64004D01*
X54156Y64814D01*
X53697Y65500D01*
X53011Y65959D01*
X52201Y66120D01*
X50429D01*
X49620Y65959D01*
X48934Y65500D01*
X48510Y64866D01*
X48487Y64858D01*
X48270Y64813D01*
X48131Y64796D01*
X48077Y64765D01*
X47772Y64741D01*
X45898Y64291D01*
X44116Y63553D01*
X42472Y62546D01*
X41006Y61293D01*
X41021Y61278D01*
X32921Y53178D01*
X32901Y53148D01*
X31543Y52034D01*
X29962Y51188D01*
X28247Y50668D01*
X26499Y50496D01*
X26463Y50503D01*
X10350D01*
Y51299D01*
X5413D01*
Y52480D01*
X10350D01*
Y53275D01*
X25868D01*
Y53254D01*
X27790Y53405D01*
X29665Y53856D01*
X31447Y54593D01*
X33091Y55601D01*
X34557Y56853D01*
X34557Y56853D01*
X34896Y57222D01*
X43137Y65463D01*
X43157Y65493D01*
X44515Y66607D01*
X46095Y67452D01*
X47811Y67973D01*
X48250Y68016D01*
X48254Y68015D01*
X48399Y68028D01*
X48509Y68032D01*
X48586Y68029D01*
X48662Y67915D01*
X48663Y67912D01*
X48664Y67912D01*
X48934Y67509D01*
X49620Y67050D01*
X50429Y66889D01*
X52201D01*
X53011Y67050D01*
X53697Y67509D01*
X54156Y68195D01*
X54317Y69004D01*
X54156Y69814D01*
X53939Y70138D01*
X54207Y70638D01*
X54707D01*
X54762Y70613D01*
X54908Y70610D01*
X55020Y70602D01*
X55107Y70590D01*
X55122Y70587D01*
X55509Y70009D01*
X56195Y69550D01*
X57004Y69389D01*
X58776D01*
X59585Y69550D01*
X60272Y70009D01*
X60730Y70695D01*
X60891Y71504D01*
X60730Y72314D01*
X60272Y73000D01*
X59585Y73459D01*
X58776Y73620D01*
X57004D01*
X56195Y73459D01*
X55509Y73000D01*
X55122Y72422D01*
X55116Y72421D01*
X54900Y72399D01*
X54762Y72395D01*
X54707Y72371D01*
X54207D01*
X53939Y72871D01*
X54156Y73195D01*
X54317Y74004D01*
X54156Y74814D01*
X53697Y75500D01*
X53011Y75959D01*
X52201Y76120D01*
X50429D01*
X49620Y75959D01*
X48934Y75500D01*
X48475Y74814D01*
X48314Y74004D01*
X48475Y73195D01*
X48777Y72743D01*
X48776Y72644D01*
X48574Y72193D01*
X46898Y71791D01*
X45116Y71053D01*
X43472Y70046D01*
X42006Y68793D01*
X42021Y68778D01*
X32326Y59084D01*
X32306Y59053D01*
X30948Y57939D01*
X29368Y57094D01*
X27652Y56574D01*
X25904Y56402D01*
X25868Y56409D01*
X10350D01*
Y57204D01*
X5413D01*
Y58385D01*
X10350D01*
Y59385D01*
X10350D01*
Y59959D01*
X11407D01*
X11539Y59941D01*
X12390Y60053D01*
X13183Y60382D01*
X13863Y60904D01*
X14386Y61585D01*
X14714Y62378D01*
X14826Y63228D01*
X14714Y64079D01*
X14386Y64872D01*
X13863Y65552D01*
X13183Y66075D01*
X12390Y66403D01*
X11539Y66515D01*
X11407Y66498D01*
X10350D01*
Y68980D01*
X10347Y68982D01*
Y69981D01*
X10350Y69984D01*
X10350Y70481D01*
Y70983D01*
X5413D01*
Y72165D01*
X10350D01*
Y72952D01*
X5413D01*
Y74133D01*
X10350D01*
Y74921D01*
X5413D01*
Y76102D01*
X10350D01*
Y77478D01*
X11811D01*
Y77452D01*
X13021Y77611D01*
X14148Y78078D01*
X15116Y78821D01*
X15859Y79789D01*
X16326Y80916D01*
X16421Y81641D01*
X16485Y82125D01*
X16485Y82126D01*
X16459Y82615D01*
X16459Y92699D01*
X93809Y92699D01*
X115616Y70891D01*
X115616Y56634D01*
X115604D01*
X115706Y55858D01*
X116006Y55135D01*
X116482Y54514D01*
X117103Y54037D01*
X117827Y53738D01*
X118603Y53636D01*
X119379Y53738D01*
X120102Y54037D01*
X120723Y54514D01*
X121200Y55135D01*
X121499Y55858D01*
X121601Y56634D01*
X121589D01*
Y90409D01*
X121586Y90429D01*
X121756Y91289D01*
X122255Y92034D01*
X123000Y92532D01*
X123859Y92703D01*
X123879Y92699D01*
D02*
G37*
G36*
X10038Y53792D02*
X9905Y53789D01*
X9786Y53778D01*
X9681Y53761D01*
X9590Y53736D01*
X9513Y53705D01*
X9450Y53666D01*
X9401Y53621D01*
X9366Y53568D01*
X9345Y53509D01*
X9338Y53442D01*
Y54436D01*
X9345Y54447D01*
X9366Y54456D01*
X9401Y54465D01*
X9450Y54472D01*
X9590Y54483D01*
X9905Y54492D01*
X10038Y54492D01*
Y53792D01*
D02*
G37*
G36*
X49039Y53309D02*
X49031Y53375D01*
X49005Y53433D01*
X48963Y53485D01*
X48905Y53530D01*
X48829Y53568D01*
X48737Y53599D01*
X48628Y53623D01*
X48502Y53641D01*
X48359Y53651D01*
X48199Y53654D01*
Y54354D01*
X48359Y54358D01*
X48628Y54386D01*
X48737Y54410D01*
X48829Y54441D01*
X48905Y54479D01*
X48963Y54524D01*
X49005Y54576D01*
X49031Y54634D01*
X49039Y54700D01*
Y53309D01*
D02*
G37*
G36*
X9345Y50270D02*
X9366Y50210D01*
X9401Y50158D01*
X9450Y50112D01*
X9513Y50074D01*
X9590Y50042D01*
X9681Y50018D01*
X9786Y50001D01*
X9905Y49990D01*
X10038Y49986D01*
Y49286D01*
X9905Y49287D01*
X9366Y49322D01*
X9345Y49332D01*
X9338Y49342D01*
Y50336D01*
X9345Y50270D01*
D02*
G37*
G36*
X10038Y47886D02*
X9905Y47883D01*
X9786Y47872D01*
X9681Y47855D01*
X9590Y47831D01*
X9513Y47799D01*
X9450Y47760D01*
X9401Y47715D01*
X9366Y47662D01*
X9345Y47603D01*
X9338Y47537D01*
Y48531D01*
X9345Y48541D01*
X9366Y48551D01*
X9401Y48559D01*
X9450Y48566D01*
X9590Y48578D01*
X9905Y48586D01*
X10038Y48586D01*
Y47886D01*
D02*
G37*
G36*
X19515Y44268D02*
X19451Y44304D01*
X19369Y44323D01*
X19270Y44326D01*
X19154Y44314D01*
X19022Y44284D01*
X18872Y44239D01*
X18706Y44178D01*
X18321Y44006D01*
X18104Y43896D01*
X17705Y44479D01*
X17877Y44573D01*
X18147Y44747D01*
X18246Y44827D01*
X18319Y44901D01*
X18369Y44971D01*
X18393Y45036D01*
X18393Y45096D01*
X18369Y45151D01*
X18320Y45202D01*
X19515Y44268D01*
D02*
G37*
G36*
X22317Y45151D02*
X22293Y45096D01*
X22293Y45036D01*
X22317Y44971D01*
X22367Y44901D01*
X22440Y44827D01*
X22539Y44747D01*
X22662Y44663D01*
X22809Y44573D01*
X22981Y44479D01*
X22582Y43896D01*
X22364Y44006D01*
X21814Y44239D01*
X21664Y44284D01*
X21531Y44314D01*
X21416Y44326D01*
X21317Y44323D01*
X21235Y44304D01*
X21170Y44268D01*
X22366Y45202D01*
X22317Y45151D01*
D02*
G37*
G36*
X55614Y43439D02*
X55605Y43505D01*
X55580Y43563D01*
X55538Y43615D01*
X55479Y43660D01*
X55404Y43698D01*
X55312Y43729D01*
X55202Y43753D01*
X55076Y43771D01*
X54934Y43781D01*
X54774Y43784D01*
Y44484D01*
X54934Y44488D01*
X55202Y44515D01*
X55312Y44540D01*
X55404Y44571D01*
X55479Y44609D01*
X55538Y44654D01*
X55580Y44706D01*
X55605Y44764D01*
X55614Y44830D01*
Y43439D01*
D02*
G37*
G36*
X9345Y44365D02*
X9366Y44305D01*
X9401Y44252D01*
X9450Y44207D01*
X9513Y44168D01*
X9590Y44137D01*
X9681Y44113D01*
X9786Y44095D01*
X9905Y44085D01*
X10038Y44081D01*
Y43381D01*
X9905Y43382D01*
X9366Y43417D01*
X9345Y43426D01*
X9338Y43437D01*
Y44431D01*
X9345Y44365D01*
D02*
G37*
G36*
X22981Y41583D02*
X22809Y41489D01*
X22539Y41315D01*
X22440Y41235D01*
X22367Y41161D01*
X22317Y41091D01*
X22293Y41026D01*
X22293Y40966D01*
X22317Y40911D01*
X22366Y40860D01*
X21170Y41794D01*
X21235Y41758D01*
X21317Y41739D01*
X21416Y41736D01*
X21531Y41748D01*
X21664Y41778D01*
X21814Y41823D01*
X21980Y41884D01*
X22364Y42056D01*
X22582Y42167D01*
X22981Y41583D01*
D02*
G37*
G36*
X10038Y41981D02*
X9905Y41978D01*
X9786Y41967D01*
X9681Y41949D01*
X9590Y41925D01*
X9513Y41894D01*
X9450Y41855D01*
X9401Y41809D01*
X9366Y41757D01*
X9345Y41697D01*
X9338Y41631D01*
Y42625D01*
X9345Y42636D01*
X9366Y42645D01*
X9401Y42654D01*
X9450Y42661D01*
X9590Y42672D01*
X9905Y42680D01*
X10038Y42681D01*
Y41981D01*
D02*
G37*
G36*
X49039Y40939D02*
X49031Y41005D01*
X49005Y41063D01*
X48963Y41115D01*
X48905Y41160D01*
X48829Y41198D01*
X48737Y41229D01*
X48628Y41253D01*
X48502Y41271D01*
X48359Y41281D01*
X48199Y41284D01*
Y41984D01*
X48359Y41988D01*
X48628Y42015D01*
X48737Y42040D01*
X48829Y42071D01*
X48905Y42109D01*
X48963Y42154D01*
X49005Y42206D01*
X49031Y42264D01*
X49039Y42330D01*
Y40939D01*
D02*
G37*
G36*
X18321Y42056D02*
X18872Y41823D01*
X19022Y41778D01*
X19154Y41748D01*
X19270Y41736D01*
X19369Y41739D01*
X19451Y41758D01*
X19515Y41794D01*
X18320Y40860D01*
X18369Y40911D01*
X18393Y40966D01*
X18393Y41026D01*
X18369Y41091D01*
X18319Y41161D01*
X18246Y41235D01*
X18147Y41315D01*
X18024Y41399D01*
X17877Y41489D01*
X17705Y41583D01*
X18104Y42167D01*
X18321Y42056D01*
D02*
G37*
G36*
X9345Y38459D02*
X9366Y38399D01*
X9401Y38347D01*
X9450Y38302D01*
X9513Y38263D01*
X9590Y38232D01*
X9681Y38207D01*
X9786Y38190D01*
X9905Y38179D01*
X10038Y38175D01*
Y37475D01*
X9905Y37476D01*
X9366Y37511D01*
X9345Y37521D01*
X9338Y37531D01*
Y38526D01*
X9345Y38459D01*
D02*
G37*
G36*
X49039Y35940D02*
X49030Y36005D01*
X49005Y36063D01*
X48963Y36112D01*
X48905Y36153D01*
X48830Y36186D01*
X48738Y36210D01*
X48629Y36227D01*
X48504Y36235D01*
X48361Y36235D01*
X48202Y36227D01*
X48200Y36931D01*
X48360Y36945D01*
X48629Y36992D01*
X48738Y37024D01*
X48830Y37062D01*
X48906Y37105D01*
X48965Y37154D01*
X49007Y37208D01*
X49032Y37269D01*
X49041Y37334D01*
X49039Y35940D01*
D02*
G37*
G36*
X10038Y36075D02*
X9905Y36072D01*
X9786Y36061D01*
X9681Y36044D01*
X9590Y36020D01*
X9513Y35988D01*
X9450Y35950D01*
X9401Y35904D01*
X9366Y35851D01*
X9345Y35792D01*
X9338Y35726D01*
Y36720D01*
X9345Y36730D01*
X9366Y36740D01*
X9401Y36748D01*
X9450Y36755D01*
X9590Y36767D01*
X9905Y36775D01*
X10038Y36775D01*
Y36075D01*
D02*
G37*
G36*
X55614Y33439D02*
X55605Y33505D01*
X55580Y33563D01*
X55538Y33615D01*
X55479Y33660D01*
X55404Y33698D01*
X55312Y33729D01*
X55202Y33753D01*
X55076Y33771D01*
X54934Y33781D01*
X54774Y33784D01*
Y34484D01*
X54934Y34488D01*
X55202Y34516D01*
X55312Y34540D01*
X55404Y34571D01*
X55479Y34609D01*
X55538Y34654D01*
X55580Y34705D01*
X55605Y34764D01*
X55614Y34830D01*
Y33439D01*
D02*
G37*
G36*
X19515Y32456D02*
X19451Y32492D01*
X19369Y32512D01*
X19270Y32515D01*
X19154Y32503D01*
X19022Y32473D01*
X18872Y32428D01*
X18706Y32367D01*
X18321Y32195D01*
X18104Y32084D01*
X17705Y32668D01*
X17877Y32762D01*
X18147Y32936D01*
X18246Y33016D01*
X18319Y33090D01*
X18369Y33160D01*
X18393Y33225D01*
X18393Y33285D01*
X18369Y33340D01*
X18320Y33391D01*
X19515Y32456D01*
D02*
G37*
G36*
X22317Y33340D02*
X22293Y33285D01*
X22293Y33225D01*
X22317Y33160D01*
X22367Y33090D01*
X22440Y33016D01*
X22539Y32936D01*
X22662Y32852D01*
X22809Y32762D01*
X22981Y32668D01*
X22582Y32084D01*
X22364Y32195D01*
X21814Y32428D01*
X21664Y32473D01*
X21531Y32503D01*
X21416Y32515D01*
X21317Y32512D01*
X21235Y32492D01*
X21170Y32456D01*
X22366Y33391D01*
X22317Y33340D01*
D02*
G37*
G36*
X9345Y32553D02*
X9366Y32494D01*
X9401Y32441D01*
X9450Y32396D01*
X9513Y32357D01*
X9590Y32326D01*
X9681Y32302D01*
X9786Y32284D01*
X9905Y32274D01*
X10038Y32270D01*
Y31570D01*
X9905Y31571D01*
X9366Y31606D01*
X9345Y31615D01*
X9338Y31626D01*
Y32620D01*
X9345Y32553D01*
D02*
G37*
G36*
X22981Y29772D02*
X22809Y29678D01*
X22539Y29504D01*
X22440Y29424D01*
X22367Y29350D01*
X22317Y29280D01*
X22293Y29215D01*
X22293Y29155D01*
X22317Y29100D01*
X22366Y29049D01*
X21170Y29983D01*
X21235Y29948D01*
X21317Y29928D01*
X21416Y29924D01*
X21531Y29937D01*
X21664Y29966D01*
X21814Y30012D01*
X21980Y30073D01*
X22364Y30245D01*
X22582Y30356D01*
X22981Y29772D01*
D02*
G37*
G36*
X10038Y30170D02*
X9905Y30167D01*
X9786Y30156D01*
X9681Y30138D01*
X9590Y30114D01*
X9513Y30082D01*
X9450Y30044D01*
X9401Y29998D01*
X9366Y29946D01*
X9345Y29886D01*
X9338Y29820D01*
Y30814D01*
X9345Y30825D01*
X9366Y30834D01*
X9401Y30843D01*
X9450Y30850D01*
X9590Y30861D01*
X9905Y30869D01*
X10038Y30870D01*
Y30170D01*
D02*
G37*
G36*
X18321Y30245D02*
X18872Y30012D01*
X19022Y29966D01*
X19154Y29937D01*
X19270Y29924D01*
X19369Y29928D01*
X19451Y29948D01*
X19515Y29983D01*
X18320Y29049D01*
X18369Y29100D01*
X18393Y29155D01*
X18393Y29215D01*
X18369Y29280D01*
X18319Y29350D01*
X18246Y29424D01*
X18147Y29504D01*
X18024Y29588D01*
X17877Y29678D01*
X17705Y29772D01*
X18104Y30356D01*
X18321Y30245D01*
D02*
G37*
G36*
X55614Y28439D02*
X55605Y28505D01*
X55580Y28563D01*
X55538Y28615D01*
X55479Y28660D01*
X55404Y28698D01*
X55312Y28729D01*
X55202Y28753D01*
X55076Y28771D01*
X54934Y28781D01*
X54774Y28784D01*
Y29484D01*
X54934Y29488D01*
X55202Y29515D01*
X55312Y29540D01*
X55404Y29571D01*
X55479Y29609D01*
X55538Y29654D01*
X55580Y29706D01*
X55605Y29764D01*
X55614Y29830D01*
Y28439D01*
D02*
G37*
G36*
X49039Y25939D02*
X49031Y26005D01*
X49005Y26063D01*
X48963Y26115D01*
X48905Y26160D01*
X48829Y26198D01*
X48737Y26229D01*
X48628Y26253D01*
X48502Y26271D01*
X48359Y26281D01*
X48199Y26284D01*
Y26984D01*
X48359Y26988D01*
X48628Y27016D01*
X48737Y27040D01*
X48829Y27071D01*
X48905Y27109D01*
X48963Y27154D01*
X49005Y27206D01*
X49031Y27264D01*
X49039Y27330D01*
Y25939D01*
D02*
G37*
G36*
X9345Y26648D02*
X9366Y26588D01*
X9401Y26536D01*
X9450Y26491D01*
X9513Y26452D01*
X9590Y26421D01*
X9681Y26396D01*
X9786Y26379D01*
X9905Y26368D01*
X10038Y26364D01*
Y25664D01*
X9905Y25665D01*
X9366Y25700D01*
X9345Y25710D01*
X9338Y25720D01*
Y26715D01*
X9345Y26648D01*
D02*
G37*
G36*
X10038Y24264D02*
X9905Y24261D01*
X9786Y24250D01*
X9681Y24233D01*
X9590Y24208D01*
X9513Y24177D01*
X9450Y24138D01*
X9401Y24093D01*
X9366Y24040D01*
X9345Y23981D01*
X9338Y23914D01*
Y24909D01*
X9345Y24919D01*
X9366Y24929D01*
X9401Y24937D01*
X9450Y24944D01*
X9590Y24956D01*
X9905Y24964D01*
X10038Y24964D01*
Y24264D01*
D02*
G37*
G36*
X19515Y20646D02*
X19451Y20681D01*
X19369Y20701D01*
X19270Y20704D01*
X19154Y20692D01*
X19022Y20662D01*
X18872Y20617D01*
X18706Y20556D01*
X18321Y20384D01*
X18104Y20273D01*
X17705Y20857D01*
X17877Y20951D01*
X18147Y21125D01*
X18246Y21205D01*
X18319Y21279D01*
X18369Y21349D01*
X18393Y21414D01*
X18393Y21474D01*
X18369Y21529D01*
X18320Y21580D01*
X19515Y20646D01*
D02*
G37*
G36*
X22317Y21529D02*
X22293Y21474D01*
X22293Y21414D01*
X22317Y21349D01*
X22367Y21279D01*
X22440Y21205D01*
X22539Y21125D01*
X22662Y21041D01*
X22809Y20951D01*
X22981Y20857D01*
X22582Y20273D01*
X22364Y20384D01*
X21814Y20617D01*
X21664Y20662D01*
X21531Y20692D01*
X21416Y20704D01*
X21317Y20701D01*
X21235Y20681D01*
X21170Y20646D01*
X22366Y21580D01*
X22317Y21529D01*
D02*
G37*
G36*
X9345Y20742D02*
X9366Y20683D01*
X9401Y20630D01*
X9450Y20585D01*
X9513Y20547D01*
X9590Y20515D01*
X9681Y20491D01*
X9786Y20473D01*
X9905Y20462D01*
X10038Y20459D01*
Y19759D01*
X9905Y19760D01*
X9366Y19795D01*
X9345Y19804D01*
X9338Y19815D01*
Y20809D01*
X9345Y20742D01*
D02*
G37*
G36*
X55614Y18439D02*
X55605Y18505D01*
X55580Y18563D01*
X55538Y18615D01*
X55479Y18660D01*
X55404Y18698D01*
X55312Y18729D01*
X55202Y18753D01*
X55076Y18771D01*
X54934Y18781D01*
X54774Y18784D01*
Y19484D01*
X54934Y19488D01*
X55202Y19515D01*
X55312Y19540D01*
X55404Y19571D01*
X55479Y19609D01*
X55538Y19654D01*
X55580Y19705D01*
X55605Y19764D01*
X55614Y19830D01*
Y18439D01*
D02*
G37*
G36*
X22981Y17961D02*
X22809Y17867D01*
X22539Y17693D01*
X22440Y17613D01*
X22367Y17539D01*
X22317Y17469D01*
X22293Y17404D01*
X22293Y17344D01*
X22317Y17289D01*
X22366Y17238D01*
X21170Y18172D01*
X21235Y18136D01*
X21317Y18117D01*
X21416Y18113D01*
X21531Y18126D01*
X21664Y18155D01*
X21814Y18201D01*
X21980Y18262D01*
X22364Y18434D01*
X22582Y18544D01*
X22981Y17961D01*
D02*
G37*
G36*
X10038Y18359D02*
X9905Y18356D01*
X9786Y18345D01*
X9681Y18327D01*
X9590Y18303D01*
X9513Y18271D01*
X9450Y18233D01*
X9401Y18188D01*
X9366Y18135D01*
X9345Y18076D01*
X9338Y18009D01*
Y19003D01*
X9345Y19014D01*
X9366Y19023D01*
X9401Y19032D01*
X9450Y19039D01*
X9590Y19050D01*
X9905Y19058D01*
X10038Y19059D01*
Y18359D01*
D02*
G37*
G36*
X18321Y18434D02*
X18872Y18201D01*
X19022Y18155D01*
X19154Y18126D01*
X19270Y18113D01*
X19369Y18117D01*
X19451Y18136D01*
X19515Y18172D01*
X18320Y17238D01*
X18369Y17289D01*
X18393Y17344D01*
X18393Y17404D01*
X18369Y17469D01*
X18319Y17539D01*
X18246Y17613D01*
X18147Y17693D01*
X18024Y17777D01*
X17877Y17867D01*
X17705Y17961D01*
X18104Y18544D01*
X18321Y18434D01*
D02*
G37*
G36*
X49039Y15939D02*
X49031Y16005D01*
X49005Y16063D01*
X48963Y16115D01*
X48905Y16160D01*
X48829Y16198D01*
X48737Y16229D01*
X48628Y16253D01*
X48502Y16271D01*
X48359Y16281D01*
X48199Y16284D01*
Y16984D01*
X48359Y16988D01*
X48628Y17016D01*
X48737Y17040D01*
X48829Y17071D01*
X48905Y17109D01*
X48963Y17154D01*
X49005Y17206D01*
X49031Y17264D01*
X49039Y17330D01*
Y15939D01*
D02*
G37*
G36*
X9345Y14837D02*
X9366Y14777D01*
X9401Y14725D01*
X9450Y14680D01*
X9513Y14641D01*
X9590Y14609D01*
X9681Y14585D01*
X9786Y14568D01*
X9905Y14557D01*
X10038Y14554D01*
Y13853D01*
X9905Y13854D01*
X9366Y13889D01*
X9345Y13899D01*
X9338Y13909D01*
Y14904D01*
X9345Y14837D01*
D02*
G37*
G36*
X10038Y12454D02*
X9905Y12450D01*
X9786Y12439D01*
X9681Y12422D01*
X9590Y12398D01*
X9513Y12366D01*
X9450Y12327D01*
X9401Y12282D01*
X9366Y12229D01*
X9345Y12170D01*
X9338Y12104D01*
Y13098D01*
X9345Y13108D01*
X9366Y13118D01*
X9401Y13126D01*
X9450Y13133D01*
X9590Y13145D01*
X9905Y13153D01*
X10038Y13153D01*
Y12454D01*
D02*
G37*
G36*
X49039Y10939D02*
X49031Y11005D01*
X49005Y11063D01*
X48963Y11115D01*
X48905Y11160D01*
X48829Y11198D01*
X48737Y11229D01*
X48628Y11253D01*
X48502Y11271D01*
X48359Y11281D01*
X48199Y11284D01*
Y11984D01*
X48359Y11988D01*
X48628Y12015D01*
X48737Y12040D01*
X48829Y12071D01*
X48905Y12109D01*
X48963Y12154D01*
X49005Y12206D01*
X49031Y12264D01*
X49039Y12330D01*
Y10939D01*
D02*
G37*
G36*
X19515Y8835D02*
X19451Y8870D01*
X19369Y8890D01*
X19270Y8893D01*
X19154Y8881D01*
X19022Y8851D01*
X18872Y8806D01*
X18706Y8745D01*
X18321Y8573D01*
X18104Y8462D01*
X17705Y9046D01*
X17877Y9140D01*
X18147Y9314D01*
X18246Y9394D01*
X18319Y9468D01*
X18369Y9538D01*
X18393Y9603D01*
X18393Y9663D01*
X18369Y9718D01*
X18320Y9769D01*
X19515Y8835D01*
D02*
G37*
G36*
X22317Y9718D02*
X22293Y9663D01*
X22293Y9603D01*
X22317Y9538D01*
X22367Y9468D01*
X22440Y9394D01*
X22539Y9314D01*
X22662Y9230D01*
X22809Y9140D01*
X22981Y9046D01*
X22582Y8462D01*
X22364Y8573D01*
X21814Y8806D01*
X21664Y8851D01*
X21531Y8881D01*
X21416Y8893D01*
X21317Y8890D01*
X21235Y8870D01*
X21170Y8835D01*
X22366Y9769D01*
X22317Y9718D01*
D02*
G37*
G36*
X55614Y8439D02*
X55605Y8505D01*
X55580Y8563D01*
X55538Y8615D01*
X55479Y8660D01*
X55404Y8698D01*
X55312Y8729D01*
X55202Y8753D01*
X55076Y8771D01*
X54934Y8781D01*
X54774Y8784D01*
Y9484D01*
X54934Y9488D01*
X55202Y9516D01*
X55312Y9540D01*
X55404Y9571D01*
X55479Y9609D01*
X55538Y9654D01*
X55580Y9706D01*
X55605Y9764D01*
X55614Y9830D01*
Y8439D01*
D02*
G37*
G36*
X9345Y8931D02*
X9366Y8872D01*
X9401Y8820D01*
X9450Y8774D01*
X9513Y8736D01*
X9590Y8704D01*
X9681Y8679D01*
X9786Y8662D01*
X9905Y8651D01*
X10038Y8648D01*
Y7948D01*
X9905Y7948D01*
X9366Y7984D01*
X9345Y7993D01*
X9338Y8004D01*
Y8998D01*
X9345Y8931D01*
D02*
G37*
G36*
X22981Y6150D02*
X22809Y6056D01*
X22539Y5882D01*
X22440Y5802D01*
X22367Y5728D01*
X22317Y5658D01*
X22293Y5593D01*
X22293Y5533D01*
X22317Y5477D01*
X22366Y5427D01*
X21170Y6361D01*
X21235Y6325D01*
X21317Y6306D01*
X21416Y6302D01*
X21531Y6315D01*
X21664Y6344D01*
X21814Y6390D01*
X21980Y6451D01*
X22364Y6623D01*
X22582Y6734D01*
X22981Y6150D01*
D02*
G37*
G36*
X10038Y6548D02*
X9905Y6544D01*
X9786Y6534D01*
X9681Y6516D01*
X9590Y6492D01*
X9513Y6460D01*
X9450Y6422D01*
X9401Y6376D01*
X9366Y6324D01*
X9345Y6265D01*
X9338Y6198D01*
Y7192D01*
X9345Y7203D01*
X9366Y7212D01*
X9401Y7221D01*
X9450Y7228D01*
X9590Y7239D01*
X9905Y7247D01*
X10038Y7248D01*
Y6548D01*
D02*
G37*
G36*
X18321Y6623D02*
X18872Y6390D01*
X19022Y6344D01*
X19154Y6315D01*
X19270Y6302D01*
X19369Y6306D01*
X19451Y6325D01*
X19515Y6361D01*
X18320Y5427D01*
X18369Y5477D01*
X18393Y5533D01*
X18393Y5593D01*
X18369Y5658D01*
X18319Y5728D01*
X18246Y5802D01*
X18147Y5882D01*
X18024Y5966D01*
X17877Y6056D01*
X17705Y6150D01*
X18104Y6734D01*
X18321Y6623D01*
D02*
G37*
G36*
X55614Y3439D02*
X55605Y3505D01*
X55580Y3563D01*
X55538Y3615D01*
X55479Y3660D01*
X55404Y3698D01*
X55312Y3729D01*
X55202Y3753D01*
X55076Y3771D01*
X54934Y3781D01*
X54774Y3784D01*
Y4484D01*
X54934Y4488D01*
X55202Y4515D01*
X55312Y4540D01*
X55404Y4571D01*
X55479Y4609D01*
X55538Y4654D01*
X55580Y4705D01*
X55605Y4764D01*
X55614Y4830D01*
Y3439D01*
D02*
G37*
G36*
X48959Y1131D02*
X48953Y1160D01*
X48935Y1186D01*
X48904Y1209D01*
X48861Y1229D01*
X48806Y1246D01*
X48738Y1260D01*
X48658Y1271D01*
X48462Y1283D01*
X48345Y1284D01*
Y1984D01*
X48462Y1986D01*
X48738Y2009D01*
X48806Y2023D01*
X48861Y2040D01*
X48904Y2059D01*
X48935Y2083D01*
X48953Y2108D01*
X48959Y2138D01*
Y1131D01*
D02*
G37*
%LPC*%
G36*
X58776Y83620D02*
X57004D01*
X56195Y83459D01*
X55509Y83000D01*
X55050Y82314D01*
X54889Y81504D01*
X55050Y80695D01*
X55509Y80009D01*
X56195Y79550D01*
X57004Y79389D01*
X58776D01*
X59585Y79550D01*
X60272Y80009D01*
X60730Y80695D01*
X60891Y81504D01*
X60730Y82314D01*
X60272Y83000D01*
X59585Y83459D01*
X58776Y83620D01*
D02*
G37*
G36*
X52201Y81120D02*
X50429D01*
X49620Y80959D01*
X48934Y80500D01*
X48475Y79814D01*
X48314Y79004D01*
X48475Y78195D01*
X48934Y77509D01*
X49620Y77050D01*
X50429Y76889D01*
X52201D01*
X53011Y77050D01*
X53697Y77509D01*
X54156Y78195D01*
X54317Y79004D01*
X54156Y79814D01*
X53697Y80500D01*
X53011Y80959D01*
X52201Y81120D01*
D02*
G37*
G36*
X58776Y78620D02*
X57004D01*
X56195Y78459D01*
X55509Y78000D01*
X55050Y77314D01*
X54889Y76504D01*
X55050Y75695D01*
X55509Y75009D01*
X56195Y74550D01*
X57004Y74389D01*
X58776D01*
X59585Y74550D01*
X60272Y75009D01*
X60730Y75695D01*
X60891Y76504D01*
X60730Y77314D01*
X60272Y78000D01*
X59585Y78459D01*
X58776Y78620D01*
D02*
G37*
%LPD*%
D13*
X21603Y17409D02*
D03*
X19083D02*
D03*
X21603Y29220D02*
D03*
X19083D02*
D03*
X21603Y9598D02*
D03*
X19083D02*
D03*
X21603Y5598D02*
D03*
X19083D02*
D03*
X21603Y21409D02*
D03*
X19083D02*
D03*
X21603Y41031D02*
D03*
X19083D02*
D03*
X21603Y45031D02*
D03*
X19083D02*
D03*
X21603Y33220D02*
D03*
X19083D02*
D03*
D14*
X5413Y69606D02*
D03*
Y71574D02*
D03*
Y73543D02*
D03*
X5413Y57795D02*
D03*
X5413Y75511D02*
D03*
X5413Y55826D02*
D03*
Y53858D02*
D03*
Y51889D02*
D03*
Y49921D02*
D03*
Y47952D02*
D03*
Y45984D02*
D03*
Y44015D02*
D03*
Y42047D02*
D03*
Y40078D02*
D03*
Y38110D02*
D03*
Y36141D02*
D03*
Y34173D02*
D03*
Y32204D02*
D03*
Y30236D02*
D03*
Y28267D02*
D03*
Y26299D02*
D03*
Y24330D02*
D03*
Y22362D02*
D03*
Y20393D02*
D03*
Y18425D02*
D03*
Y16456D02*
D03*
Y14488D02*
D03*
Y12519D02*
D03*
Y10551D02*
D03*
Y8582D02*
D03*
Y6614D02*
D03*
Y4645D02*
D03*
Y2677D02*
D03*
D20*
X41603Y12134D02*
G03*
X48845Y9134I7243J7243D01*
G01*
X41603Y12134D02*
G03*
X39987Y12803I-1615J-1615D01*
G01*
X6099D02*
G03*
X5413Y12519I0J-970D01*
G01*
X42593Y13124D02*
G03*
X46190Y11634I3597J3597D01*
G01*
X42593Y13124D02*
G03*
X39987Y14203I-2605J-2605D01*
G01*
X5413Y14488D02*
G03*
X6099Y14203I686J686D01*
G01*
X40773Y18224D02*
G03*
X39603Y18709I-1170J-1170D01*
G01*
X40773Y18224D02*
G03*
X44611Y16634I3839J3839D01*
G01*
X42593Y19624D02*
G03*
X41423Y20109I-1170J-1170D01*
G01*
X42593Y19624D02*
G03*
X43775Y19134I1183J1183D01*
G01*
X24741Y18709D02*
G03*
X21603Y17409I0J-4439D01*
G01*
Y21409D02*
G03*
X24741Y20109I3139J3139D01*
G01*
X41103Y4634D02*
G03*
X48345Y1634I7243J7243D01*
G01*
X41103Y4634D02*
G03*
X35638Y6898I-5465J-5465D01*
G01*
X24741D02*
G03*
X21603Y5598I0J-4439D01*
G01*
X42093Y5624D02*
G03*
X45690Y4134I3597J3597D01*
G01*
X42093Y5624D02*
G03*
X35638Y8298I-6455J-6455D01*
G01*
X21603Y9598D02*
G03*
X24741Y8298I3139J3139D01*
G01*
X48031Y56504D02*
G03*
X41103Y53634I0J-9799D01*
G01*
X27057Y43731D02*
G03*
X34128Y46660I0J10000D01*
G01*
X21603Y45031D02*
G03*
X24741Y43731I3139J3139D01*
G01*
X45376Y54004D02*
G03*
X42093Y52644I0J-4643D01*
G01*
X27057Y42331D02*
G03*
X35118Y45670I0J11400D01*
G01*
X24741Y42331D02*
G03*
X21603Y41031I0J-4439D01*
G01*
X47138Y29134D02*
G03*
X41103Y26634I0J-8535D01*
G01*
X39606Y26015D02*
G03*
X41103Y26634I0J2117D01*
G01*
X5413Y26299D02*
G03*
X6099Y26015I686J686D01*
G01*
X44483Y26634D02*
G03*
X42093Y25644I0J-3380D01*
G01*
X39606Y24614D02*
G03*
X42093Y25644I0J3517D01*
G01*
X6099Y24614D02*
G03*
X5413Y24330I0J-970D01*
G01*
X19083Y5598D02*
G03*
X15945Y6898I-3139J-3139D01*
G01*
X6099D02*
G03*
X5413Y6614I0J-970D01*
G01*
X15945Y8298D02*
G03*
X19083Y9598I0J4439D01*
G01*
X5413Y8582D02*
G03*
X6099Y8298I686J686D01*
G01*
X19083Y17409D02*
G03*
X15945Y18709I-3139J-3139D01*
G01*
X6099D02*
G03*
X5413Y18425I0J-970D01*
G01*
X15945Y20109D02*
G03*
X19083Y21409I0J4438D01*
G01*
X5413Y20393D02*
G03*
X6099Y20109I686J686D01*
G01*
X19083Y29220D02*
G03*
X15945Y30520I-3139J-3139D01*
G01*
X6099D02*
G03*
X5413Y30236I0J-970D01*
G01*
X15945Y31920D02*
G03*
X19083Y33220I0J4438D01*
G01*
X5413Y32204D02*
G03*
X6099Y31920I686J686D01*
G01*
X19083Y41031D02*
G03*
X15945Y42331I-3139J-3139D01*
G01*
X6099D02*
G03*
X5413Y42047I0J-970D01*
G01*
X15945Y43731D02*
G03*
X19083Y45031I0J4438D01*
G01*
X5413Y44015D02*
G03*
X6099Y43731I686J686D01*
G01*
X49695Y64004D02*
G03*
X41634Y60665I0J-11400D01*
G01*
X26463Y49637D02*
G03*
X33534Y52565I0J10000D01*
G01*
X5413Y49921D02*
G03*
X6099Y49637I686J686D01*
G01*
X47790Y61504D02*
G03*
X42093Y59144I0J-8057D01*
G01*
X26463Y48237D02*
G03*
X34524Y51575I0J11400D01*
G01*
X6099Y48237D02*
G03*
X5413Y47952I0J-970D01*
G01*
X50695Y71504D02*
G03*
X42634Y68165I0J-11400D01*
G01*
X25868Y55542D02*
G03*
X32939Y58471I0J10000D01*
G01*
X5413Y55826D02*
G03*
X6099Y55542I686J686D01*
G01*
X49595Y69004D02*
G03*
X42524Y66075I0J-10000D01*
G01*
X25868Y54142D02*
G03*
X33929Y57481I0J11400D01*
G01*
X6099Y54142D02*
G03*
X5413Y53858I0J-970D01*
G01*
X49325Y44134D02*
G03*
X41264Y40795I0J-11400D01*
G01*
X34321Y37826D02*
G03*
X41103Y40634I0J9590D01*
G01*
X5413Y38110D02*
G03*
X6099Y37826I686J686D01*
G01*
X46897Y41634D02*
G03*
X42093Y39645I0J-6794D01*
G01*
X34321Y36426D02*
G03*
X42093Y39645I0J10990D01*
G01*
X6099Y36426D02*
G03*
X5413Y36141I0J-970D01*
G01*
X49325Y36634D02*
G03*
X41264Y33295I0J-11400D01*
G01*
X38171Y31920D02*
G03*
X41103Y33134I0J4146D01*
G01*
X21603Y33220D02*
G03*
X24741Y31920I3139J3139D01*
G01*
X46897Y34134D02*
G03*
X42093Y32144I0J-6794D01*
G01*
X38171Y30520D02*
G03*
X42093Y32144I0J5546D01*
G01*
X24741Y30520D02*
G03*
X21603Y29220I0J-4439D01*
G01*
X6099Y12803D02*
X39987D01*
X6099Y14203D02*
X39987D01*
X48845Y9134D02*
X57103D01*
X46190Y11634D02*
X52103D01*
X44611Y16634D02*
X52103D01*
X43775Y19134D02*
X57103D01*
X24741Y18709D02*
X39603D01*
X24741Y20109D02*
X41423D01*
X48345Y1634D02*
X52103D01*
X24741Y6898D02*
X35638D01*
X45690Y4134D02*
X57103D01*
X24741Y8298D02*
X35638D01*
X48031Y56504D02*
X57103D01*
X34128Y46660D02*
X41103Y53634D01*
X24741Y43731D02*
X27057D01*
X45376Y54004D02*
X52103D01*
X35118Y45670D02*
X42093Y52644D01*
X24741Y42331D02*
X27057D01*
X47138Y29134D02*
X57103D01*
X6099Y26015D02*
X39606D01*
X44483Y26634D02*
X52103D01*
X6099Y24614D02*
X39606D01*
X6099Y6898D02*
X15945D01*
X6099Y8298D02*
X15945D01*
X6099Y18709D02*
X15945D01*
X6099Y20109D02*
X15945D01*
X6099Y30520D02*
X15945D01*
X6099Y31920D02*
X15945D01*
X6099Y42331D02*
X15945D01*
X6099Y43731D02*
X15945D01*
X49695Y64004D02*
X52103D01*
X6099Y49637D02*
X26463D01*
X47790Y61504D02*
X57103D01*
X6099Y48237D02*
X26463D01*
X33534Y52565D02*
X41634Y60665D01*
X34524Y51575D02*
X42093Y59144D01*
X50695Y71504D02*
X57103D01*
X6099Y55542D02*
X25868D01*
X49595Y69004D02*
X52103D01*
X33929Y57481D02*
X42524Y66075D01*
X6099Y54142D02*
X25868D01*
X32939Y58471D02*
X42634Y68165D01*
X49325Y44134D02*
X57103D01*
X6099Y37826D02*
X34321D01*
X46897Y41634D02*
X52103D01*
X6099Y36426D02*
X34321D01*
X41103Y40634D02*
X41264Y40795D01*
X49325Y36634D02*
X52103D01*
X24741Y31920D02*
X38171D01*
X46897Y34134D02*
X57103D01*
X24741Y30520D02*
X38171D01*
X41103Y33134D02*
X41264Y33295D01*
D21*
X51315Y36634D02*
D03*
X57890Y34134D02*
D03*
Y29134D02*
D03*
Y24134D02*
D03*
Y19134D02*
D03*
Y14134D02*
D03*
Y9134D02*
D03*
Y4134D02*
D03*
Y-866D02*
D03*
Y51504D02*
D03*
Y39134D02*
D03*
Y44134D02*
D03*
Y71504D02*
D03*
Y66504D02*
D03*
Y61504D02*
D03*
Y76504D02*
D03*
X51315Y79004D02*
D03*
X57890Y81504D02*
D03*
X51315Y69004D02*
D03*
Y64004D02*
D03*
Y59004D02*
D03*
Y54004D02*
D03*
Y74004D02*
D03*
Y41634D02*
D03*
Y31634D02*
D03*
Y26634D02*
D03*
Y21634D02*
D03*
Y16634D02*
D03*
Y6634D02*
D03*
Y1634D02*
D03*
Y11634D02*
D03*
Y46634D02*
D03*
X57890Y56504D02*
D03*
D22*
X118603Y39134D02*
D03*
D23*
X20603Y62134D02*
D03*
X16603D02*
D03*
X12603Y58134D02*
D03*
X16603D02*
D03*
X102603Y9134D02*
D03*
Y16634D02*
D03*
Y24134D02*
D03*
Y31634D02*
D03*
Y76634D02*
D03*
Y69134D02*
D03*
Y61634D02*
D03*
Y54134D02*
D03*
Y46634D02*
D03*
Y39134D02*
D03*
X69603Y33634D02*
D03*
X65603D02*
D03*
X73603D02*
D03*
X69603Y41134D02*
D03*
X65603D02*
D03*
X73603D02*
D03*
X69603Y48634D02*
D03*
X65603D02*
D03*
X73603D02*
D03*
X69603Y56134D02*
D03*
X65603D02*
D03*
X73603D02*
D03*
Y63634D02*
D03*
Y71134D02*
D03*
X69603D02*
D03*
X65603D02*
D03*
Y63634D02*
D03*
X69603D02*
D03*
M02*
