M48
;Layer_Color=9474304
;FILE_FORMAT=2:5
INCH,LZ
;TYPE=PLATED
T1F00S00C0.01400
T2F00S00C0.02362
T3F00S00C0.13386
%
T01
X0102603Y0009134
Y0016634
Y0024134
Y0031634
Y0039134
Y0046634
Y0054134
Y0061634
Y0069134
Y0076634
X0073603Y0071134
X0069603
X0065603
Y0063634
X0069603
X0073603
Y0056134
X0069603
X0065603
Y0048634
X0069603
X0073603
Y0041134
X0069603
X0065603
Y0033634
X0069603
X0073603
X0020603Y0062134
X0016603
Y0058134
X0012603
T02
X0052103Y0001634
Y0006634
Y0011634
Y0016634
Y0021634
Y0026634
X0057103Y0024134
Y0019134
Y0014134
Y0009134
Y0004134
Y-0000866
Y0029134
Y0034134
Y0039134
Y0044134
Y0051504
Y0056504
Y0061504
Y0066504
Y0071504
Y0076504
Y0081504
X0052103Y0079004
Y0074004
Y0069004
Y0064004
Y0059004
Y0054004
Y0046634
Y0041634
Y0036634
Y0031634
T03
X0118603Y0039134
M30
