G04*
G04 #@! TF.GenerationSoftware,Altium Limited,Altium Designer,22.3.1 (43)*
G04*
G04 Layer_Color=255*
%FSLAX25Y25*%
%MOIN*%
G70*
G04*
G04 #@! TF.SameCoordinates,698DBC82-D8F4-4E88-83ED-E0681CBDB87E*
G04*
G04*
G04 #@! TF.FilePolarity,Positive*
G04*
G01*
G75*
%ADD13R,0.01575X0.01575*%
%ADD14R,0.07874X0.01181*%
%ADD21O,0.04921X0.03150*%
%ADD22O,0.20866X0.20866*%
D13*
X21603Y17409D02*
D03*
X19083D02*
D03*
X21603Y29220D02*
D03*
X19083D02*
D03*
X21603Y9598D02*
D03*
X19083D02*
D03*
X21603Y5598D02*
D03*
X19083D02*
D03*
X21603Y21409D02*
D03*
X19083D02*
D03*
X21603Y41031D02*
D03*
X19083D02*
D03*
X21603Y45031D02*
D03*
X19083D02*
D03*
X21603Y33220D02*
D03*
X19083D02*
D03*
D14*
X5413Y69606D02*
D03*
Y71574D02*
D03*
Y73543D02*
D03*
X5413Y57795D02*
D03*
X5413Y75511D02*
D03*
X5413Y55826D02*
D03*
Y53858D02*
D03*
Y51889D02*
D03*
Y49921D02*
D03*
Y47952D02*
D03*
Y45984D02*
D03*
Y44015D02*
D03*
Y42047D02*
D03*
Y40078D02*
D03*
Y38110D02*
D03*
Y36141D02*
D03*
Y34173D02*
D03*
Y32204D02*
D03*
Y30236D02*
D03*
Y28267D02*
D03*
Y26299D02*
D03*
Y24330D02*
D03*
Y22362D02*
D03*
Y20393D02*
D03*
Y18425D02*
D03*
Y16456D02*
D03*
Y14488D02*
D03*
Y12519D02*
D03*
Y10551D02*
D03*
Y8582D02*
D03*
Y6614D02*
D03*
Y4645D02*
D03*
Y2677D02*
D03*
D21*
X51315Y36634D02*
D03*
X57890Y34134D02*
D03*
Y29134D02*
D03*
Y24134D02*
D03*
Y19134D02*
D03*
Y14134D02*
D03*
Y9134D02*
D03*
Y4134D02*
D03*
Y-866D02*
D03*
Y51504D02*
D03*
Y39134D02*
D03*
Y44134D02*
D03*
Y71504D02*
D03*
Y66504D02*
D03*
Y61504D02*
D03*
Y76504D02*
D03*
X51315Y79004D02*
D03*
X57890Y81504D02*
D03*
X51315Y69004D02*
D03*
Y64004D02*
D03*
Y59004D02*
D03*
Y54004D02*
D03*
Y74004D02*
D03*
Y41634D02*
D03*
Y31634D02*
D03*
Y26634D02*
D03*
Y21634D02*
D03*
Y16634D02*
D03*
Y6634D02*
D03*
Y1634D02*
D03*
Y11634D02*
D03*
Y46634D02*
D03*
X57890Y56504D02*
D03*
D22*
X118603Y39134D02*
D03*
M02*
