G04*
G04 #@! TF.GenerationSoftware,Altium Limited,Altium Designer,22.3.1 (43)*
G04*
G04 Layer_Color=128*
%FSLAX25Y25*%
%MOIN*%
G70*
G04*
G04 #@! TF.SameCoordinates,698DBC82-D8F4-4E88-83ED-E0681CBDB87E*
G04*
G04*
G04 #@! TF.FilePolarity,Positive*
G04*
G01*
G75*
%ADD28C,0.00200*%
D28*
X50922Y36634D02*
X53284D01*
X52103Y35453D02*
Y37815D01*
X111910Y39134D02*
X125296D01*
X118603Y32441D02*
Y45827D01*
X55922Y34134D02*
X58284D01*
X57103Y32953D02*
Y35315D01*
X55922Y29134D02*
X58284D01*
X57103Y27953D02*
Y30316D01*
X55922Y24134D02*
X58284D01*
X57103Y22953D02*
Y25315D01*
X55922Y19134D02*
X58284D01*
X57103Y17953D02*
Y20315D01*
X55922Y14134D02*
X58284D01*
X57103Y12953D02*
Y15315D01*
X55922Y9134D02*
X58284D01*
X57103Y7953D02*
Y10316D01*
X55922Y4134D02*
X58284D01*
X57103Y2953D02*
Y5316D01*
X55922Y-866D02*
X58284D01*
X57103Y-2047D02*
Y316D01*
X55922Y51504D02*
X58284D01*
X57103Y50323D02*
Y52685D01*
X55922Y39134D02*
X58284D01*
X57103Y37953D02*
Y40315D01*
X55922Y44134D02*
X58284D01*
X57103Y42953D02*
Y45316D01*
X55922Y71504D02*
X58284D01*
X57103Y70323D02*
Y72685D01*
X55922Y66504D02*
X58284D01*
X57103Y65323D02*
Y67686D01*
X55922Y61504D02*
X58284D01*
X57103Y60323D02*
Y62686D01*
X55922Y76504D02*
X58284D01*
X57103Y75323D02*
Y77685D01*
X50922Y79004D02*
X53284D01*
X52103Y77823D02*
Y80186D01*
X55922Y81504D02*
X58284D01*
X57103Y80323D02*
Y82686D01*
X50922Y69004D02*
X53284D01*
X52103Y67823D02*
Y70186D01*
X50922Y64004D02*
X53284D01*
X52103Y62823D02*
Y65185D01*
X50922Y59004D02*
X53284D01*
X52103Y57823D02*
Y60185D01*
X50922Y54004D02*
X53284D01*
X52103Y52823D02*
Y55186D01*
X50922Y74004D02*
X53284D01*
X52103Y72823D02*
Y75186D01*
X50922Y41634D02*
X53284D01*
X52103Y40453D02*
Y42816D01*
X50922Y31634D02*
X53284D01*
X52103Y30453D02*
Y32816D01*
X50922Y26634D02*
X53284D01*
X52103Y25453D02*
Y27815D01*
X50922Y21634D02*
X53284D01*
X52103Y20453D02*
Y22816D01*
X50922Y16634D02*
X53284D01*
X52103Y15453D02*
Y17816D01*
X50922Y6634D02*
X53284D01*
X52103Y5453D02*
Y7816D01*
X50922Y1634D02*
X53284D01*
X52103Y453D02*
Y2816D01*
X50922Y11634D02*
X53284D01*
X52103Y10453D02*
Y12815D01*
X50922Y46634D02*
X53284D01*
X52103Y45453D02*
Y47815D01*
X55922Y56504D02*
X58284D01*
X57103Y55323D02*
Y57686D01*
X19903Y62134D02*
X21303D01*
X20603Y61434D02*
Y62834D01*
X15903Y62134D02*
X17303D01*
X16603Y61434D02*
Y62834D01*
X11903Y58134D02*
X13303D01*
X12603Y57434D02*
Y58834D01*
X15903Y58134D02*
X17303D01*
X16603Y57434D02*
Y58834D01*
X101903Y9134D02*
X103303D01*
X102603Y8434D02*
Y9834D01*
X101903Y16634D02*
X103303D01*
X102603Y15934D02*
Y17334D01*
X101903Y24134D02*
X103303D01*
X102603Y23434D02*
Y24834D01*
X101903Y31634D02*
X103303D01*
X102603Y30934D02*
Y32334D01*
X101903Y76634D02*
X103303D01*
X102603Y75934D02*
Y77334D01*
X101903Y69134D02*
X103303D01*
X102603Y68434D02*
Y69834D01*
X101903Y61634D02*
X103303D01*
X102603Y60934D02*
Y62334D01*
X101903Y54134D02*
X103303D01*
X102603Y53434D02*
Y54834D01*
X101903Y46634D02*
X103303D01*
X102603Y45934D02*
Y47334D01*
X101903Y39134D02*
X103303D01*
X102603Y38434D02*
Y39834D01*
X68903Y33634D02*
X70303D01*
X69603Y32934D02*
Y34334D01*
X64903Y33634D02*
X66303D01*
X65603Y32934D02*
Y34334D01*
X72903Y33634D02*
X74303D01*
X73603Y32934D02*
Y34334D01*
X68903Y41134D02*
X70303D01*
X69603Y40434D02*
Y41834D01*
X64903Y41134D02*
X66303D01*
X65603Y40434D02*
Y41834D01*
X72903Y41134D02*
X74303D01*
X73603Y40434D02*
Y41834D01*
X68903Y48634D02*
X70303D01*
X69603Y47934D02*
Y49334D01*
X64903Y48634D02*
X66303D01*
X65603Y47934D02*
Y49334D01*
X72903Y48634D02*
X74303D01*
X73603Y47934D02*
Y49334D01*
X68903Y56134D02*
X70303D01*
X69603Y55434D02*
Y56834D01*
X64903Y56134D02*
X66303D01*
X65603Y55434D02*
Y56834D01*
X72903Y56134D02*
X74303D01*
X73603Y55434D02*
Y56834D01*
X72903Y63634D02*
X74303D01*
X73603Y62934D02*
Y64334D01*
X72903Y71134D02*
X74303D01*
X73603Y70434D02*
Y71834D01*
X68903Y71134D02*
X70303D01*
X69603Y70434D02*
Y71834D01*
X64903Y71134D02*
X66303D01*
X65603Y70434D02*
Y71834D01*
X64903Y63634D02*
X66303D01*
X65603Y62934D02*
Y64334D01*
X68903Y63634D02*
X70303D01*
X69603Y62934D02*
Y64334D01*
M02*
