G04*
G04 #@! TF.GenerationSoftware,Altium Limited,Altium Designer,22.3.1 (43)*
G04*
G04 Layer_Color=2752767*
%FSLAX25Y25*%
%MOIN*%
G70*
G04*
G04 #@! TF.SameCoordinates,698DBC82-D8F4-4E88-83ED-E0681CBDB87E*
G04*
G04*
G04 #@! TF.FilePolarity,Positive*
G04*
G01*
G75*
%ADD28C,0.00200*%
%ADD29C,0.00267*%
D28*
X51303Y35834D02*
Y37434D01*
X52903D01*
Y35834D01*
X51303D01*
X56303Y33334D02*
Y34934D01*
X57903D01*
Y33334D01*
X56303D01*
Y28334D02*
Y29934D01*
X57903D01*
Y28334D01*
X56303D01*
Y23334D02*
Y24934D01*
X57903D01*
Y23334D01*
X56303D01*
Y18334D02*
Y19934D01*
X57903D01*
Y18334D01*
X56303D01*
Y13334D02*
Y14934D01*
X57903D01*
Y13334D01*
X56303D01*
Y8334D02*
Y9934D01*
X57903D01*
Y8334D01*
X56303D01*
Y3334D02*
Y4934D01*
X57903D01*
Y3334D01*
X56303D01*
Y-1666D02*
Y-66D01*
X57903D01*
Y-1666D01*
X56303D01*
Y50704D02*
Y52304D01*
X57903D01*
Y50704D01*
X56303D01*
Y38334D02*
Y39934D01*
X57903D01*
Y38334D01*
X56303D01*
Y43334D02*
Y44934D01*
X57903D01*
Y43334D01*
X56303D01*
Y70704D02*
Y72304D01*
X57903D01*
Y70704D01*
X56303D01*
Y65704D02*
Y67304D01*
X57903D01*
Y65704D01*
X56303D01*
Y60704D02*
Y62304D01*
X57903D01*
Y60704D01*
X56303D01*
Y75704D02*
Y77304D01*
X57903D01*
Y75704D01*
X56303D01*
X51303Y78204D02*
Y79804D01*
X52903D01*
Y78204D01*
X51303D01*
X56303Y80704D02*
Y82304D01*
X57903D01*
Y80704D01*
X56303D01*
X51303Y68204D02*
Y69804D01*
X52903D01*
Y68204D01*
X51303D01*
Y63204D02*
Y64804D01*
X52903D01*
Y63204D01*
X51303D01*
Y58204D02*
Y59804D01*
X52903D01*
Y58204D01*
X51303D01*
Y53204D02*
Y54804D01*
X52903D01*
Y53204D01*
X51303D01*
Y73204D02*
Y74804D01*
X52903D01*
Y73204D01*
X51303D01*
Y40834D02*
Y42434D01*
X52903D01*
Y40834D01*
X51303D01*
Y30834D02*
Y32434D01*
X52903D01*
Y30834D01*
X51303D01*
Y25834D02*
Y27434D01*
X52903D01*
Y25834D01*
X51303D01*
Y20834D02*
Y22434D01*
X52903D01*
Y20834D01*
X51303D01*
Y15834D02*
Y17434D01*
X52903D01*
Y15834D01*
X51303D01*
Y5834D02*
Y7434D01*
X52903D01*
Y5834D01*
X51303D01*
Y834D02*
Y2434D01*
X52903D01*
Y834D01*
X51303D01*
Y10834D02*
Y12434D01*
X52903D01*
Y10834D01*
X51303D01*
Y45834D02*
Y47434D01*
X52903D01*
Y45834D01*
X51303D01*
X56303Y55704D02*
Y57304D01*
X57903D01*
Y55704D01*
X56303D01*
X20603Y61334D02*
X19803Y62934D01*
X21403D01*
X20603Y61334D01*
X16603D02*
X15803Y62934D01*
X17403D01*
X16603Y61334D01*
X12603Y57334D02*
X11803Y58934D01*
X13403D01*
X12603Y57334D01*
X16603D02*
X15803Y58934D01*
X17403D01*
X16603Y57334D01*
X102603Y8334D02*
X101803Y9934D01*
X103403D01*
X102603Y8334D01*
Y15834D02*
X101803Y17434D01*
X103403D01*
X102603Y15834D01*
Y23334D02*
X101803Y24934D01*
X103403D01*
X102603Y23334D01*
Y30834D02*
X101803Y32434D01*
X103403D01*
X102603Y30834D01*
Y75834D02*
X101803Y77434D01*
X103403D01*
X102603Y75834D01*
Y68334D02*
X101803Y69934D01*
X103403D01*
X102603Y68334D01*
Y60834D02*
X101803Y62434D01*
X103403D01*
X102603Y60834D01*
Y53334D02*
X101803Y54934D01*
X103403D01*
X102603Y53334D01*
Y45834D02*
X101803Y47434D01*
X103403D01*
X102603Y45834D01*
Y38334D02*
X101803Y39934D01*
X103403D01*
X102603Y38334D01*
X69603Y32834D02*
X68803Y34434D01*
X70403D01*
X69603Y32834D01*
X65603D02*
X64803Y34434D01*
X66403D01*
X65603Y32834D01*
X73603D02*
X72803Y34434D01*
X74403D01*
X73603Y32834D01*
X69603Y40334D02*
X68803Y41934D01*
X70403D01*
X69603Y40334D01*
X65603D02*
X64803Y41934D01*
X66403D01*
X65603Y40334D01*
X73603D02*
X72803Y41934D01*
X74403D01*
X73603Y40334D01*
X69603Y47834D02*
X68803Y49434D01*
X70403D01*
X69603Y47834D01*
X65603D02*
X64803Y49434D01*
X66403D01*
X65603Y47834D01*
X73603D02*
X72803Y49434D01*
X74403D01*
X73603Y47834D01*
X69603Y55334D02*
X68803Y56934D01*
X70403D01*
X69603Y55334D01*
X65603D02*
X64803Y56934D01*
X66403D01*
X65603Y55334D01*
X73603D02*
X72803Y56934D01*
X74403D01*
X73603Y55334D01*
Y62834D02*
X72803Y64434D01*
X74403D01*
X73603Y62834D01*
Y70334D02*
X72803Y71934D01*
X74403D01*
X73603Y70334D01*
X69603D02*
X68803Y71934D01*
X70403D01*
X69603Y70334D01*
X65603D02*
X64803Y71934D01*
X66403D01*
X65603Y70334D01*
Y62834D02*
X64803Y64434D01*
X66403D01*
X65603Y62834D01*
X69603D02*
X68803Y64434D01*
X70403D01*
X69603Y62834D01*
D29*
X119403Y39134D02*
G03*
X119403Y39134I-800J0D01*
G01*
M02*
