G04*
G04 #@! TF.GenerationSoftware,Altium Limited,Altium Designer,22.3.1 (43)*
G04*
G04 Layer_Color=65535*
%FSLAX25Y25*%
%MOIN*%
G70*
G04*
G04 #@! TF.SameCoordinates,698DBC82-D8F4-4E88-83ED-E0681CBDB87E*
G04*
G04*
G04 #@! TF.FilePolarity,Positive*
G04*
G01*
G75*
%ADD10C,0.00150*%
%ADD11C,0.00591*%
%ADD12C,0.00500*%
D10*
X68800Y8200D02*
Y8800D01*
Y27550D02*
Y28300D01*
Y34150D02*
Y34750D01*
Y46450D02*
Y47050D01*
Y67150D02*
Y67750D01*
Y77200D02*
Y78100D01*
X68950Y8050D02*
Y8950D01*
Y26950D02*
Y28300D01*
Y34000D02*
Y35050D01*
Y46450D02*
Y47350D01*
Y66700D02*
Y67900D01*
Y77200D02*
Y78250D01*
X69100Y7900D02*
Y9100D01*
Y26050D02*
Y28450D01*
Y29500D02*
Y29950D01*
Y34000D02*
Y35200D01*
Y46300D02*
Y47800D01*
Y65950D02*
Y67900D01*
Y77200D02*
Y78400D01*
X69250Y7900D02*
Y9550D01*
Y25600D02*
Y29650D01*
Y33850D02*
Y35500D01*
Y46300D02*
Y48100D01*
Y65050D02*
Y68050D01*
Y77050D02*
Y78850D01*
X69400Y7750D02*
Y9700D01*
Y25300D02*
Y29650D01*
Y33850D02*
Y35800D01*
Y46150D02*
Y48250D01*
Y64600D02*
Y68200D01*
Y76900D02*
Y79000D01*
X69550Y7600D02*
Y10150D01*
Y23950D02*
Y25150D01*
Y25300D02*
Y29500D01*
Y33700D02*
Y36100D01*
Y46150D02*
Y48700D01*
Y64000D02*
Y68200D01*
Y76900D02*
Y79450D01*
X69700Y7600D02*
Y10150D01*
Y23500D02*
Y29350D01*
Y33550D02*
Y36250D01*
Y46150D02*
Y48850D01*
Y63700D02*
Y68350D01*
Y76900D02*
Y79450D01*
X69850Y7450D02*
Y10450D01*
Y22000D02*
Y28600D01*
Y28750D02*
Y29050D01*
Y33550D02*
Y36550D01*
Y46150D02*
Y49300D01*
Y62800D02*
Y68500D01*
Y76750D02*
Y79750D01*
X70000Y7300D02*
Y10600D01*
Y21850D02*
Y28000D01*
Y28300D02*
Y28450D01*
Y33550D02*
Y36550D01*
Y46150D02*
Y49450D01*
Y62500D02*
Y68650D01*
Y76600D02*
Y79750D01*
X70150Y7300D02*
Y10750D01*
Y20050D02*
Y27550D01*
Y28300D02*
Y28600D01*
Y33250D02*
Y36700D01*
Y46150D02*
Y50050D01*
Y56950D02*
Y57400D01*
Y61750D02*
Y68800D01*
Y76450D02*
Y79900D01*
X70300Y7300D02*
Y10750D01*
Y19750D02*
Y27400D01*
Y28450D02*
Y28600D01*
Y33250D02*
Y36700D01*
Y46150D02*
Y50200D01*
Y56950D02*
Y57550D01*
Y57850D02*
Y58000D01*
Y61600D02*
Y68800D01*
Y76450D02*
Y80050D01*
X70450Y7150D02*
Y11050D01*
Y18550D02*
Y28000D01*
Y33250D02*
Y37000D01*
Y46150D02*
Y50500D01*
Y56950D02*
Y58300D01*
Y60850D02*
Y65500D01*
Y66100D02*
Y68950D01*
Y76300D02*
Y80200D01*
X70600Y7000D02*
Y11050D01*
Y18250D02*
Y27850D01*
Y33100D02*
Y37150D01*
Y46000D02*
Y50650D01*
Y56950D02*
Y58450D01*
Y60550D02*
Y65350D01*
Y66100D02*
Y69100D01*
Y76300D02*
Y80350D01*
X70750Y7000D02*
Y11500D01*
Y16600D02*
Y25900D01*
Y26050D02*
Y27400D01*
Y32950D02*
Y37450D01*
Y46000D02*
Y50800D01*
Y56950D02*
Y58750D01*
Y59950D02*
Y64750D01*
Y66400D02*
Y69100D01*
Y76150D02*
Y80650D01*
X70900Y6850D02*
Y11650D01*
Y16450D02*
Y25750D01*
Y26200D02*
Y27400D01*
Y32950D02*
Y37600D01*
Y46000D02*
Y50650D01*
Y56950D02*
Y58900D01*
Y59650D02*
Y64600D01*
Y66250D02*
Y69250D01*
Y76150D02*
Y80800D01*
X71050Y6850D02*
Y11800D01*
Y16300D02*
Y25750D01*
Y27100D02*
Y27400D01*
Y32800D02*
Y37750D01*
Y46000D02*
Y50500D01*
Y56950D02*
Y64600D01*
Y66250D02*
Y69400D01*
Y76150D02*
Y81100D01*
X71200Y6700D02*
Y11950D01*
Y16300D02*
Y25600D01*
Y32800D02*
Y38050D01*
Y46000D02*
Y50350D01*
Y56950D02*
Y64450D01*
Y66100D02*
Y69400D01*
Y76000D02*
Y81250D01*
X71350Y6700D02*
Y12100D01*
Y16450D02*
Y24850D01*
Y32650D02*
Y38200D01*
Y46000D02*
Y50200D01*
Y56950D02*
Y63550D01*
Y65950D02*
Y69400D01*
Y75850D02*
Y81400D01*
X71500Y6550D02*
Y12400D01*
Y16300D02*
Y24550D01*
Y32650D02*
Y38350D01*
Y45850D02*
Y50200D01*
Y56950D02*
Y63250D01*
Y65950D02*
Y69550D01*
Y75850D02*
Y81550D01*
X71650Y6550D02*
Y12400D01*
Y16300D02*
Y23950D01*
Y32500D02*
Y38350D01*
Y45850D02*
Y50050D01*
Y56950D02*
Y62950D01*
Y65800D02*
Y69700D01*
Y75850D02*
Y81700D01*
X71800Y6550D02*
Y12550D01*
Y16300D02*
Y23200D01*
Y32500D02*
Y38650D01*
Y45700D02*
Y49750D01*
Y56950D02*
Y62350D01*
Y65650D02*
Y69700D01*
Y75550D02*
Y81700D01*
X71950Y6400D02*
Y12700D01*
Y16300D02*
Y22900D01*
Y32350D02*
Y38650D01*
Y45700D02*
Y49600D01*
Y56950D02*
Y61450D01*
Y65650D02*
Y69700D01*
Y75550D02*
Y81850D01*
X72100Y6250D02*
Y12700D01*
Y16300D02*
Y22900D01*
Y32350D02*
Y38650D01*
Y45700D02*
Y49450D01*
Y56950D02*
Y61300D01*
Y65350D02*
Y69700D01*
Y75550D02*
Y81850D01*
X72250Y6250D02*
Y12700D01*
Y16450D02*
Y22900D01*
Y32350D02*
Y38650D01*
Y45700D02*
Y49300D01*
Y56950D02*
Y61150D01*
Y65350D02*
Y69700D01*
Y75550D02*
Y82000D01*
X72400Y6250D02*
Y12700D01*
Y16450D02*
Y22900D01*
Y32200D02*
Y38650D01*
Y45700D02*
Y49300D01*
Y56800D02*
Y60850D01*
Y65200D02*
Y69700D01*
Y75400D02*
Y82000D01*
X72550Y6100D02*
Y12700D01*
Y16300D02*
Y23050D01*
Y32200D02*
Y38650D01*
Y45550D02*
Y49150D01*
Y56800D02*
Y60700D01*
Y65050D02*
Y69550D01*
Y75400D02*
Y82000D01*
X72700Y5950D02*
Y12700D01*
Y16300D02*
Y23350D01*
Y32050D02*
Y38650D01*
Y45400D02*
Y49150D01*
Y56650D02*
Y60400D01*
Y64900D02*
Y69550D01*
Y75250D02*
Y79300D01*
Y79450D02*
Y82000D01*
X72850Y5950D02*
Y10000D01*
Y10150D02*
Y12700D01*
Y16300D02*
Y23500D01*
Y32050D02*
Y36100D01*
Y36250D02*
Y38650D01*
Y45400D02*
Y49000D01*
Y56650D02*
Y60250D01*
Y64750D02*
Y69400D01*
Y75250D02*
Y79150D01*
Y79450D02*
Y82000D01*
X73000Y5950D02*
Y9700D01*
Y10300D02*
Y12700D01*
Y16150D02*
Y23650D01*
Y31900D02*
Y35800D01*
Y36400D02*
Y38650D01*
Y45400D02*
Y48850D01*
Y56650D02*
Y60100D01*
Y64600D02*
Y69400D01*
Y75100D02*
Y79000D01*
Y79450D02*
Y82000D01*
X73150Y5800D02*
Y9700D01*
Y10450D02*
Y12700D01*
Y16150D02*
Y23800D01*
Y31900D02*
Y35650D01*
Y36400D02*
Y38650D01*
Y45400D02*
Y48850D01*
Y56650D02*
Y59950D01*
Y64450D02*
Y69250D01*
Y74950D02*
Y78850D01*
Y79450D02*
Y82000D01*
X73300Y5650D02*
Y9550D01*
Y10450D02*
Y12700D01*
Y16150D02*
Y23950D01*
Y31900D02*
Y35500D01*
Y36400D02*
Y38650D01*
Y45400D02*
Y48850D01*
Y56650D02*
Y59800D01*
Y64300D02*
Y69100D01*
Y74950D02*
Y78700D01*
Y79600D02*
Y82000D01*
X73450Y5650D02*
Y9400D01*
Y10450D02*
Y12700D01*
Y16150D02*
Y23950D01*
Y31750D02*
Y35500D01*
Y36400D02*
Y38650D01*
Y45250D02*
Y48850D01*
Y56650D02*
Y59800D01*
Y64300D02*
Y68950D01*
Y74950D02*
Y78550D01*
Y79600D02*
Y81850D01*
X73600Y5650D02*
Y9400D01*
Y10450D02*
Y12700D01*
Y16150D02*
Y18850D01*
Y19750D02*
Y23800D01*
Y31600D02*
Y35200D01*
Y36400D02*
Y38650D01*
Y45100D02*
Y48850D01*
Y56650D02*
Y59800D01*
Y64300D02*
Y68800D01*
Y74950D02*
Y78400D01*
Y79750D02*
Y81850D01*
X73750Y5650D02*
Y9250D01*
Y10450D02*
Y12700D01*
Y16300D02*
Y18700D01*
Y19750D02*
Y23800D01*
Y31600D02*
Y35200D01*
Y36400D02*
Y38650D01*
Y45100D02*
Y48700D01*
Y56650D02*
Y59800D01*
Y64150D02*
Y68650D01*
Y74800D02*
Y78400D01*
Y79750D02*
Y81850D01*
X73900Y5500D02*
Y8950D01*
Y10450D02*
Y12700D01*
Y16300D02*
Y18400D01*
Y19750D02*
Y23650D01*
Y31600D02*
Y35050D01*
Y36550D02*
Y38650D01*
Y45100D02*
Y48700D01*
Y56650D02*
Y59650D01*
Y64000D02*
Y68500D01*
Y74650D02*
Y78250D01*
Y79750D02*
Y81850D01*
X74050Y5350D02*
Y8800D01*
Y10450D02*
Y12700D01*
Y16300D02*
Y17950D01*
Y19750D02*
Y23500D01*
Y31450D02*
Y34900D01*
Y36550D02*
Y38650D01*
Y45100D02*
Y48550D01*
Y56650D02*
Y59650D01*
Y63850D02*
Y67900D01*
Y74650D02*
Y78100D01*
Y79750D02*
Y81850D01*
X74200Y5350D02*
Y8800D01*
Y10450D02*
Y12700D01*
Y16300D02*
Y17800D01*
Y19750D02*
Y23350D01*
Y31300D02*
Y34750D01*
Y36550D02*
Y38650D01*
Y45100D02*
Y48550D01*
Y56650D02*
Y59500D01*
Y63700D02*
Y66550D01*
Y67000D02*
Y67600D01*
Y74650D02*
Y77950D01*
Y79750D02*
Y81850D01*
X74350Y5350D02*
Y8650D01*
Y10600D02*
Y12700D01*
Y16300D02*
Y17350D01*
Y19750D02*
Y23350D01*
Y31300D02*
Y34750D01*
Y36700D02*
Y38650D01*
Y44950D02*
Y48400D01*
Y56650D02*
Y59500D01*
Y63550D02*
Y66550D01*
Y66850D02*
Y67150D01*
Y74500D02*
Y77800D01*
Y79750D02*
Y81850D01*
X74500Y5200D02*
Y8500D01*
Y10600D02*
Y12700D01*
Y16450D02*
Y17050D01*
Y19750D02*
Y23200D01*
Y31300D02*
Y34600D01*
Y36700D02*
Y38650D01*
Y44950D02*
Y48250D01*
Y56650D02*
Y59350D01*
Y63400D02*
Y66550D01*
Y66850D02*
Y67150D01*
Y74350D02*
Y77800D01*
Y79750D02*
Y81850D01*
X74650Y5050D02*
Y8500D01*
Y10750D02*
Y12550D01*
Y19750D02*
Y23200D01*
Y31150D02*
Y34300D01*
Y36700D02*
Y38650D01*
Y44800D02*
Y48100D01*
Y56500D02*
Y59050D01*
Y63100D02*
Y66400D01*
Y66550D02*
Y66850D01*
Y67000D02*
Y67300D01*
Y74350D02*
Y77350D01*
Y77500D02*
Y77800D01*
Y79750D02*
Y81850D01*
X74800Y5050D02*
Y8050D01*
Y10750D02*
Y12400D01*
Y19750D02*
Y23050D01*
Y31150D02*
Y34150D01*
Y36700D02*
Y38650D01*
Y44800D02*
Y47950D01*
Y56500D02*
Y58900D01*
Y63100D02*
Y66250D01*
Y66550D02*
Y66850D01*
Y67000D02*
Y67450D01*
Y74350D02*
Y77200D01*
Y79750D02*
Y81700D01*
X74950Y5050D02*
Y7900D01*
Y10750D02*
Y12400D01*
Y19600D02*
Y22900D01*
Y31000D02*
Y33850D01*
Y36700D02*
Y38500D01*
Y44800D02*
Y47950D01*
Y56350D02*
Y58750D01*
Y62800D02*
Y66100D01*
Y66550D02*
Y67000D01*
Y74200D02*
Y77200D01*
Y79900D02*
Y81700D01*
X75100Y5050D02*
Y7900D01*
Y10750D02*
Y12400D01*
Y19600D02*
Y22900D01*
Y31000D02*
Y33850D01*
Y36700D02*
Y38500D01*
Y44800D02*
Y47800D01*
Y56350D02*
Y58600D01*
Y62800D02*
Y66550D01*
Y74200D02*
Y77050D01*
Y79900D02*
Y81700D01*
X75250Y4900D02*
Y7750D01*
Y10750D02*
Y12400D01*
Y19450D02*
Y22900D01*
Y31000D02*
Y33700D01*
Y36700D02*
Y38350D01*
Y44800D02*
Y47650D01*
Y56350D02*
Y58600D01*
Y62500D02*
Y65200D01*
Y65650D02*
Y66550D01*
Y74050D02*
Y76900D01*
Y79900D02*
Y81550D01*
X75400Y4750D02*
Y7600D01*
Y10750D02*
Y12400D01*
Y19450D02*
Y22900D01*
Y30850D02*
Y33550D01*
Y36700D02*
Y38350D01*
Y44650D02*
Y47650D01*
Y56350D02*
Y58600D01*
Y62350D02*
Y65200D01*
Y65500D02*
Y66550D01*
Y74050D02*
Y76750D01*
Y79900D02*
Y81550D01*
X75550Y4750D02*
Y7450D01*
Y10750D02*
Y12250D01*
Y19450D02*
Y22900D01*
Y30700D02*
Y33550D01*
Y36700D02*
Y38200D01*
Y44500D02*
Y47500D01*
Y56350D02*
Y58600D01*
Y62200D02*
Y65050D01*
Y65350D02*
Y66100D01*
Y74050D02*
Y76750D01*
Y79900D02*
Y81400D01*
X75700Y4750D02*
Y7300D01*
Y10750D02*
Y12100D01*
Y19450D02*
Y22750D01*
Y30700D02*
Y33400D01*
Y36700D02*
Y38200D01*
Y44500D02*
Y47350D01*
Y56350D02*
Y58600D01*
Y62050D02*
Y64900D01*
Y65500D02*
Y65950D01*
Y73900D02*
Y76600D01*
Y79900D02*
Y81400D01*
X75850Y4600D02*
Y7300D01*
Y10750D02*
Y12100D01*
Y19450D02*
Y22750D01*
Y30700D02*
Y33250D01*
Y36700D02*
Y38200D01*
Y44500D02*
Y47350D01*
Y56350D02*
Y58600D01*
Y61900D02*
Y64900D01*
Y73900D02*
Y76450D01*
Y79900D02*
Y81400D01*
X76000Y4600D02*
Y7150D01*
Y10750D02*
Y12100D01*
Y19450D02*
Y22600D01*
Y30550D02*
Y33250D01*
Y36700D02*
Y38200D01*
Y44500D02*
Y47350D01*
Y56350D02*
Y58600D01*
Y61750D02*
Y64900D01*
Y73750D02*
Y76450D01*
Y79900D02*
Y81400D01*
X76150Y4450D02*
Y7150D01*
Y10750D02*
Y12100D01*
Y19450D02*
Y22600D01*
Y30400D02*
Y33100D01*
Y36700D02*
Y38200D01*
Y44500D02*
Y47050D01*
Y56350D02*
Y58450D01*
Y61450D02*
Y64900D01*
Y73750D02*
Y76300D01*
Y79900D02*
Y81400D01*
X76300Y4450D02*
Y7000D01*
Y10750D02*
Y12100D01*
Y19450D02*
Y22450D01*
Y30400D02*
Y32950D01*
Y36700D02*
Y38200D01*
Y44500D02*
Y47050D01*
Y56350D02*
Y58450D01*
Y61300D02*
Y64900D01*
Y73600D02*
Y76150D01*
Y80050D02*
Y81400D01*
X76450Y4300D02*
Y7000D01*
Y10750D02*
Y12100D01*
Y19450D02*
Y22300D01*
Y30400D02*
Y32950D01*
Y36850D02*
Y38200D01*
Y44500D02*
Y47050D01*
Y56350D02*
Y58300D01*
Y61150D02*
Y64150D01*
Y64450D02*
Y64750D01*
Y73600D02*
Y76150D01*
Y80050D02*
Y81400D01*
X76600Y4300D02*
Y6850D01*
Y10750D02*
Y12100D01*
Y19450D02*
Y22300D01*
Y30250D02*
Y32950D01*
Y36850D02*
Y38200D01*
Y44350D02*
Y47050D01*
Y56350D02*
Y58300D01*
Y61000D02*
Y64000D01*
Y64300D02*
Y64750D01*
Y73600D02*
Y76150D01*
Y80050D02*
Y81400D01*
X76750Y4300D02*
Y6850D01*
Y10750D02*
Y12100D01*
Y19450D02*
Y22300D01*
Y30250D02*
Y32800D01*
Y36850D02*
Y38200D01*
Y44350D02*
Y46900D01*
Y56350D02*
Y58300D01*
Y60850D02*
Y64000D01*
Y64300D02*
Y64750D01*
Y73450D02*
Y76000D01*
Y80050D02*
Y81400D01*
X76900Y4150D02*
Y6700D01*
Y10750D02*
Y12100D01*
Y19450D02*
Y22300D01*
Y30100D02*
Y32800D01*
Y36850D02*
Y38200D01*
Y44200D02*
Y46900D01*
Y56350D02*
Y58300D01*
Y60700D02*
Y63850D01*
Y73300D02*
Y75850D01*
Y80050D02*
Y81400D01*
X77050Y4000D02*
Y6550D01*
Y10900D02*
Y12100D01*
Y19450D02*
Y22300D01*
Y30100D02*
Y32650D01*
Y36850D02*
Y38200D01*
Y44200D02*
Y46750D01*
Y56200D02*
Y58300D01*
Y60550D02*
Y63700D01*
Y73300D02*
Y75850D01*
Y80050D02*
Y81400D01*
X77200Y4000D02*
Y6550D01*
Y10900D02*
Y12100D01*
Y19450D02*
Y21550D01*
Y21700D02*
Y22000D01*
Y29950D02*
Y32500D01*
Y36850D02*
Y38200D01*
Y44200D02*
Y46750D01*
Y56200D02*
Y58300D01*
Y60400D02*
Y63400D01*
Y64000D02*
Y64150D01*
Y73300D02*
Y75850D01*
Y80050D02*
Y81400D01*
X77350Y4000D02*
Y6550D01*
Y10900D02*
Y12100D01*
Y19300D02*
Y21400D01*
Y21850D02*
Y22000D01*
Y29950D02*
Y32500D01*
Y36850D02*
Y38350D01*
Y44200D02*
Y46750D01*
Y56050D02*
Y58300D01*
Y60250D02*
Y63400D01*
Y73150D02*
Y75700D01*
Y79900D02*
Y81550D01*
X77500Y3850D02*
Y6400D01*
Y10450D02*
Y12250D01*
Y19150D02*
Y21400D01*
Y29950D02*
Y32500D01*
Y36550D02*
Y38350D01*
Y44050D02*
Y46600D01*
Y56050D02*
Y58150D01*
Y60250D02*
Y62650D01*
Y62800D02*
Y63100D01*
Y73000D02*
Y75550D01*
Y79750D02*
Y81550D01*
X77650Y3850D02*
Y6250D01*
Y10300D02*
Y12400D01*
Y19150D02*
Y21400D01*
Y29800D02*
Y32350D01*
Y36250D02*
Y38500D01*
Y44050D02*
Y46600D01*
Y56050D02*
Y58150D01*
Y60100D02*
Y62650D01*
Y62800D02*
Y63100D01*
Y73000D02*
Y75550D01*
Y79450D02*
Y81700D01*
X77800Y3700D02*
Y6250D01*
Y9550D02*
Y12700D01*
Y19150D02*
Y21250D01*
Y29650D02*
Y32200D01*
Y35650D02*
Y38650D01*
Y43900D02*
Y46600D01*
Y56050D02*
Y58150D01*
Y59800D02*
Y62350D01*
Y62500D02*
Y62800D01*
Y63100D02*
Y63550D01*
Y73000D02*
Y75550D01*
Y78850D02*
Y81700D01*
X77950Y3700D02*
Y6100D01*
Y9550D02*
Y12850D01*
Y19150D02*
Y21250D01*
Y29650D02*
Y32200D01*
Y35500D02*
Y38800D01*
Y43900D02*
Y46600D01*
Y56050D02*
Y58150D01*
Y59650D02*
Y62200D01*
Y62650D02*
Y62950D01*
Y63100D02*
Y63400D01*
Y72850D02*
Y75400D01*
Y78700D02*
Y82000D01*
X78100Y3550D02*
Y5950D01*
Y9250D02*
Y13000D01*
Y19150D02*
Y21250D01*
Y29650D02*
Y32200D01*
Y35200D02*
Y39100D01*
Y43900D02*
Y46600D01*
Y56050D02*
Y58150D01*
Y59500D02*
Y62050D01*
Y62800D02*
Y63100D01*
Y72700D02*
Y75250D01*
Y78550D02*
Y82300D01*
X78250Y3400D02*
Y5950D01*
Y8350D02*
Y13150D01*
Y19150D02*
Y21250D01*
Y29500D02*
Y32050D01*
Y34300D02*
Y39250D01*
Y43900D02*
Y46450D01*
Y56050D02*
Y58000D01*
Y59350D02*
Y61900D01*
Y62800D02*
Y63100D01*
Y72700D02*
Y75250D01*
Y77500D02*
Y82450D01*
X78400Y3400D02*
Y5950D01*
Y8050D02*
Y13300D01*
Y19150D02*
Y21250D01*
Y29350D02*
Y31750D01*
Y34000D02*
Y39250D01*
Y43750D02*
Y46300D01*
Y56050D02*
Y58000D01*
Y59200D02*
Y61600D01*
Y62650D02*
Y62800D01*
Y72550D02*
Y75250D01*
Y77350D02*
Y82600D01*
X78550Y3250D02*
Y5800D01*
Y7300D02*
Y13300D01*
Y19150D02*
Y21250D01*
Y29200D02*
Y31900D01*
Y33250D02*
Y39400D01*
Y43750D02*
Y46300D01*
Y56050D02*
Y58000D01*
Y59050D02*
Y61450D01*
Y72400D02*
Y74950D01*
Y76600D02*
Y82600D01*
X78700Y3100D02*
Y5500D01*
Y7000D02*
Y13450D01*
Y19000D02*
Y21250D01*
Y29050D02*
Y31900D01*
Y33100D02*
Y39550D01*
Y43750D02*
Y46300D01*
Y55900D02*
Y57850D01*
Y58900D02*
Y61150D01*
Y72400D02*
Y74800D01*
Y76300D02*
Y82600D01*
X78850Y3100D02*
Y5650D01*
Y6250D02*
Y13300D01*
Y19000D02*
Y21250D01*
Y29050D02*
Y31900D01*
Y32200D02*
Y39400D01*
Y43750D02*
Y46300D01*
Y55900D02*
Y57850D01*
Y58750D02*
Y61000D01*
Y61900D02*
Y62200D01*
Y72250D02*
Y74950D01*
Y75700D02*
Y82600D01*
X79000Y2950D02*
Y13300D01*
Y18850D02*
Y21250D01*
Y29050D02*
Y31450D01*
Y31600D02*
Y39250D01*
Y43750D02*
Y46150D01*
Y55750D02*
Y57850D01*
Y58600D02*
Y60850D01*
Y61750D02*
Y62200D01*
Y72100D02*
Y82450D01*
X79150Y2800D02*
Y13000D01*
Y18850D02*
Y21250D01*
Y28900D02*
Y38950D01*
Y43600D02*
Y46000D01*
Y55750D02*
Y57550D01*
Y57700D02*
Y58000D01*
Y58300D02*
Y60700D01*
Y72100D02*
Y82300D01*
X79300Y2800D02*
Y12850D01*
Y18850D02*
Y21400D01*
Y28750D02*
Y38950D01*
Y43600D02*
Y46000D01*
Y55750D02*
Y57550D01*
Y57850D02*
Y60550D01*
Y72100D02*
Y82000D01*
X79450Y2800D02*
Y12550D01*
Y18850D02*
Y20950D01*
Y21100D02*
Y21400D01*
Y28750D02*
Y38650D01*
Y43600D02*
Y46000D01*
Y55750D02*
Y57550D01*
Y57700D02*
Y60400D01*
Y71950D02*
Y81850D01*
X79600Y2650D02*
Y12400D01*
Y18850D02*
Y20950D01*
Y21100D02*
Y21400D01*
Y28750D02*
Y38500D01*
Y43450D02*
Y46000D01*
Y55750D02*
Y57550D01*
Y57700D02*
Y60250D01*
Y71800D02*
Y81700D01*
X79750Y2500D02*
Y12400D01*
Y18850D02*
Y20800D01*
Y28600D02*
Y38350D01*
Y43450D02*
Y46000D01*
Y55750D02*
Y60100D01*
Y71800D02*
Y81700D01*
X79900Y2500D02*
Y12400D01*
Y18850D02*
Y20800D01*
Y28450D02*
Y38350D01*
Y43450D02*
Y46000D01*
Y55750D02*
Y59950D01*
Y71800D02*
Y81700D01*
X80050Y2500D02*
Y9850D01*
Y11200D02*
Y12400D01*
Y18850D02*
Y20950D01*
Y28450D02*
Y35650D01*
Y37150D02*
Y38350D01*
Y43450D02*
Y45850D01*
Y55750D02*
Y59800D01*
Y71650D02*
Y79150D01*
Y80500D02*
Y81700D01*
X80200Y2350D02*
Y9700D01*
Y11350D02*
Y12400D01*
Y18700D02*
Y20950D01*
Y28450D02*
Y35650D01*
Y37300D02*
Y38350D01*
Y43450D02*
Y45700D01*
Y55750D02*
Y60100D01*
Y71650D02*
Y79000D01*
Y80500D02*
Y81700D01*
X80350Y2350D02*
Y7000D01*
Y7600D02*
Y8500D01*
Y9250D02*
Y9700D01*
Y11350D02*
Y12400D01*
Y18550D02*
Y20800D01*
Y28300D02*
Y32950D01*
Y33550D02*
Y34450D01*
Y35200D02*
Y35800D01*
Y37300D02*
Y38350D01*
Y43450D02*
Y45700D01*
Y55750D02*
Y60400D01*
Y71500D02*
Y76150D01*
Y76750D02*
Y77800D01*
Y78400D02*
Y79000D01*
Y80500D02*
Y81700D01*
X80500Y1600D02*
Y6700D01*
Y7450D02*
Y8350D01*
Y9400D02*
Y9550D01*
Y11350D02*
Y12400D01*
Y18550D02*
Y20650D01*
Y27550D02*
Y32650D01*
Y33400D02*
Y34300D01*
Y35350D02*
Y35500D01*
Y37300D02*
Y38500D01*
Y43300D02*
Y45700D01*
Y55750D02*
Y60700D01*
Y70750D02*
Y76000D01*
Y76600D02*
Y77500D01*
Y78550D02*
Y78850D01*
Y80650D02*
Y81700D01*
X80650Y1300D02*
Y6400D01*
Y7300D02*
Y8050D01*
Y9100D02*
Y9250D01*
Y11350D02*
Y12400D01*
Y18550D02*
Y20050D01*
Y27400D02*
Y32350D01*
Y33250D02*
Y34150D01*
Y35050D02*
Y35200D01*
Y37300D02*
Y38500D01*
Y43300D02*
Y45700D01*
Y55600D02*
Y60850D01*
Y70450D02*
Y75550D01*
Y76450D02*
Y77200D01*
Y78100D02*
Y78400D01*
Y80650D02*
Y81700D01*
X80800Y1150D02*
Y6100D01*
Y7300D02*
Y7750D01*
Y11350D02*
Y12400D01*
Y18700D02*
Y20050D01*
Y27400D02*
Y32200D01*
Y33250D02*
Y33850D01*
Y37300D02*
Y38650D01*
Y43300D02*
Y45550D01*
Y55600D02*
Y61150D01*
Y70450D02*
Y75400D01*
Y76450D02*
Y77050D01*
Y80650D02*
Y81700D01*
X80950Y1150D02*
Y5950D01*
Y7150D02*
Y7300D01*
Y11350D02*
Y12400D01*
Y18700D02*
Y20050D01*
Y27400D02*
Y31900D01*
Y37300D02*
Y38650D01*
Y43150D02*
Y45400D01*
Y55600D02*
Y57550D01*
Y58300D02*
Y61300D01*
Y70450D02*
Y75250D01*
Y76450D02*
Y76600D01*
Y80650D02*
Y81700D01*
X81100Y1300D02*
Y5800D01*
Y11350D02*
Y12400D01*
Y18700D02*
Y20050D01*
Y27400D02*
Y31750D01*
Y37300D02*
Y38650D01*
Y43150D02*
Y45400D01*
Y55450D02*
Y57400D01*
Y57850D02*
Y58000D01*
Y58600D02*
Y61450D01*
Y70600D02*
Y74950D01*
Y80500D02*
Y81700D01*
X81250Y1450D02*
Y5500D01*
Y11350D02*
Y12400D01*
Y18550D02*
Y20050D01*
Y27400D02*
Y31600D01*
Y37300D02*
Y38650D01*
Y43150D02*
Y45400D01*
Y55450D02*
Y57250D01*
Y58750D02*
Y61600D01*
Y70750D02*
Y74800D01*
Y80500D02*
Y81700D01*
X81400Y1450D02*
Y5200D01*
Y11350D02*
Y12550D01*
Y18700D02*
Y20050D01*
Y27550D02*
Y31150D01*
Y37300D02*
Y38650D01*
Y43150D02*
Y45400D01*
Y55450D02*
Y57250D01*
Y59050D02*
Y61750D01*
Y70750D02*
Y74500D01*
Y80500D02*
Y81700D01*
X81550Y1450D02*
Y5050D01*
Y11350D02*
Y12550D01*
Y18700D02*
Y20050D01*
Y27550D02*
Y31000D01*
Y37300D02*
Y38650D01*
Y43150D02*
Y45400D01*
Y55450D02*
Y57250D01*
Y59200D02*
Y61900D01*
Y70750D02*
Y74200D01*
Y80500D02*
Y81700D01*
X81700Y1450D02*
Y4600D01*
Y11350D02*
Y12400D01*
Y18550D02*
Y19900D01*
Y27550D02*
Y30700D01*
Y37300D02*
Y38650D01*
Y43000D02*
Y45250D01*
Y55450D02*
Y57400D01*
Y59350D02*
Y62050D01*
Y70750D02*
Y73900D01*
Y80500D02*
Y81700D01*
X81850Y1450D02*
Y4450D01*
Y11350D02*
Y12400D01*
Y18400D02*
Y19900D01*
Y27550D02*
Y30400D01*
Y37300D02*
Y38650D01*
Y43000D02*
Y45100D01*
Y55450D02*
Y57400D01*
Y59500D02*
Y62200D01*
Y70750D02*
Y73750D01*
Y80650D02*
Y81700D01*
X82000Y1450D02*
Y4000D01*
Y11350D02*
Y12400D01*
Y18400D02*
Y19750D01*
Y27400D02*
Y30100D01*
Y37300D02*
Y38650D01*
Y42850D02*
Y45100D01*
Y55450D02*
Y57400D01*
Y59650D02*
Y62500D01*
Y70750D02*
Y73300D01*
Y80650D02*
Y81700D01*
X82150Y1300D02*
Y4000D01*
Y11350D02*
Y12400D01*
Y18550D02*
Y19750D01*
Y27400D02*
Y29950D01*
Y37300D02*
Y38650D01*
Y42850D02*
Y45100D01*
Y55450D02*
Y57250D01*
Y59800D02*
Y62500D01*
Y70600D02*
Y73150D01*
Y80650D02*
Y81700D01*
X82300Y1150D02*
Y3250D01*
Y11350D02*
Y12550D01*
Y18550D02*
Y19750D01*
Y27250D02*
Y29500D01*
Y37300D02*
Y38650D01*
Y42850D02*
Y44950D01*
Y55300D02*
Y57250D01*
Y59950D02*
Y62800D01*
Y70450D02*
Y72550D01*
Y80650D02*
Y81700D01*
X82450Y1150D02*
Y3250D01*
Y11350D02*
Y12400D01*
Y18550D02*
Y19750D01*
Y27250D02*
Y29200D01*
Y37450D02*
Y38650D01*
Y42850D02*
Y44800D01*
Y55300D02*
Y57100D01*
Y60100D02*
Y62800D01*
Y70450D02*
Y72550D01*
Y80650D02*
Y81700D01*
X82600Y1150D02*
Y3100D01*
Y11350D02*
Y12400D01*
Y18550D02*
Y19750D01*
Y27100D02*
Y29050D01*
Y37450D02*
Y38500D01*
Y42850D02*
Y44650D01*
Y55300D02*
Y56950D01*
Y60250D02*
Y62950D01*
Y70150D02*
Y72400D01*
Y80650D02*
Y81700D01*
X82750Y1000D02*
Y3100D01*
Y11350D02*
Y12400D01*
Y18550D02*
Y19750D01*
Y26950D02*
Y29050D01*
Y37450D02*
Y38350D01*
Y42850D02*
Y44500D01*
Y55300D02*
Y56950D01*
Y60250D02*
Y63250D01*
Y70150D02*
Y72250D01*
Y80650D02*
Y81700D01*
X82900Y850D02*
Y2950D01*
Y11350D02*
Y12400D01*
Y18550D02*
Y19750D01*
Y26950D02*
Y29050D01*
Y37450D02*
Y38350D01*
Y42700D02*
Y44500D01*
Y55300D02*
Y56950D01*
Y60400D02*
Y63400D01*
Y70150D02*
Y72250D01*
Y80650D02*
Y81550D01*
X83050Y850D02*
Y2950D01*
Y11350D02*
Y12400D01*
Y18400D02*
Y19300D01*
Y26800D02*
Y28900D01*
Y37450D02*
Y38350D01*
Y42700D02*
Y44500D01*
Y55300D02*
Y56950D01*
Y60550D02*
Y63550D01*
Y70000D02*
Y72100D01*
Y80650D02*
Y81550D01*
X83200Y700D02*
Y2800D01*
Y11350D02*
Y12400D01*
Y18400D02*
Y19300D01*
Y26800D02*
Y28750D01*
Y37450D02*
Y38350D01*
Y42550D02*
Y44500D01*
Y55300D02*
Y56950D01*
Y60550D02*
Y63700D01*
Y69850D02*
Y71950D01*
Y80650D02*
Y81550D01*
X83350Y550D02*
Y2650D01*
Y11350D02*
Y12400D01*
Y18400D02*
Y19150D01*
Y21550D02*
Y22300D01*
Y26650D02*
Y28750D01*
Y37450D02*
Y38350D01*
Y42550D02*
Y44800D01*
Y55300D02*
Y56950D01*
Y60700D02*
Y63700D01*
Y69850D02*
Y71950D01*
Y80650D02*
Y81550D01*
X83500Y550D02*
Y2650D01*
Y11350D02*
Y12400D01*
Y18400D02*
Y18700D01*
Y18850D02*
Y19150D01*
Y21400D02*
Y22450D01*
Y26500D02*
Y28600D01*
Y37450D02*
Y38350D01*
Y42550D02*
Y44800D01*
Y55150D02*
Y56950D01*
Y60850D02*
Y63850D01*
Y69700D02*
Y71800D01*
Y80650D02*
Y81550D01*
X83650Y400D02*
Y2500D01*
Y11350D02*
Y12400D01*
Y18400D02*
Y18700D01*
Y18850D02*
Y19150D01*
Y20500D02*
Y22750D01*
Y26350D02*
Y28450D01*
Y37450D02*
Y38350D01*
Y42550D02*
Y44800D01*
Y55150D02*
Y56650D01*
Y60850D02*
Y64150D01*
Y69550D02*
Y71650D01*
Y80650D02*
Y81550D01*
X83800Y250D02*
Y2350D01*
Y11350D02*
Y12400D01*
Y18400D02*
Y19300D01*
Y20350D02*
Y22750D01*
Y26350D02*
Y28450D01*
Y37450D02*
Y38350D01*
Y42550D02*
Y44650D01*
Y55000D02*
Y56650D01*
Y57250D02*
Y57550D01*
Y61000D02*
Y64300D01*
Y69550D02*
Y71650D01*
Y80650D02*
Y81700D01*
X83950Y100D02*
Y2200D01*
Y8800D02*
Y8950D01*
Y11350D02*
Y12400D01*
Y18250D02*
Y19750D01*
Y20350D02*
Y22900D01*
Y26200D02*
Y28300D01*
Y37450D02*
Y38500D01*
Y42550D02*
Y44650D01*
Y51400D02*
Y52600D01*
Y55000D02*
Y56650D01*
Y57400D02*
Y58300D01*
Y61150D02*
Y64300D01*
Y69400D02*
Y71500D01*
Y78100D02*
Y78250D01*
Y80650D02*
Y81700D01*
X84100Y100D02*
Y2200D01*
Y8800D02*
Y9100D01*
Y11500D02*
Y12400D01*
Y18250D02*
Y20050D01*
Y20200D02*
Y23050D01*
Y26200D02*
Y28150D01*
Y37450D02*
Y38650D01*
Y42550D02*
Y44500D01*
Y50950D02*
Y52750D01*
Y55000D02*
Y56500D01*
Y57400D02*
Y58600D01*
Y61150D02*
Y64300D01*
Y69250D02*
Y71350D01*
Y78100D02*
Y78250D01*
Y80650D02*
Y81700D01*
X84250Y-50D02*
Y2050D01*
Y9100D02*
Y9250D01*
Y11500D02*
Y12550D01*
Y18100D02*
Y23350D01*
Y25900D02*
Y28000D01*
Y34900D02*
Y35200D01*
Y37450D02*
Y38650D01*
Y42550D02*
Y44500D01*
Y49600D02*
Y52750D01*
Y55000D02*
Y56500D01*
Y57100D02*
Y64600D01*
Y69100D02*
Y71350D01*
Y80650D02*
Y81700D01*
X84400Y-50D02*
Y1900D01*
Y9100D02*
Y9400D01*
Y11500D02*
Y12550D01*
Y17950D02*
Y23500D01*
Y25900D02*
Y28000D01*
Y35050D02*
Y35350D01*
Y37450D02*
Y38650D01*
Y42400D02*
Y44500D01*
Y49450D02*
Y52900D01*
Y55000D02*
Y56500D01*
Y57250D02*
Y64600D01*
Y69100D02*
Y71200D01*
Y78400D02*
Y78550D01*
Y80650D02*
Y81700D01*
X84550Y-200D02*
Y1750D01*
Y9250D02*
Y9550D01*
Y11500D02*
Y12400D01*
Y17950D02*
Y23500D01*
Y25750D02*
Y27850D01*
Y35200D02*
Y35500D01*
Y37450D02*
Y38650D01*
Y42400D02*
Y44500D01*
Y47950D02*
Y53050D01*
Y55000D02*
Y56500D01*
Y57550D02*
Y64750D01*
Y68950D02*
Y71050D01*
Y78400D02*
Y78700D01*
Y80650D02*
Y81700D01*
X84700Y-350D02*
Y1750D01*
Y9250D02*
Y9700D01*
Y11500D02*
Y12400D01*
Y16450D02*
Y23650D01*
Y25600D02*
Y27700D01*
Y35350D02*
Y35650D01*
Y37450D02*
Y38500D01*
Y42250D02*
Y44500D01*
Y47500D02*
Y53050D01*
Y55000D02*
Y56500D01*
Y57700D02*
Y64900D01*
Y68950D02*
Y70900D01*
Y78400D02*
Y78850D01*
Y80650D02*
Y81700D01*
X84850Y-500D02*
Y1600D01*
Y9400D02*
Y10150D01*
Y11500D02*
Y12400D01*
Y15700D02*
Y23800D01*
Y25600D02*
Y27700D01*
Y35500D02*
Y36250D01*
Y37450D02*
Y38350D01*
Y42250D02*
Y44500D01*
Y46600D02*
Y53350D01*
Y55000D02*
Y56500D01*
Y58000D02*
Y64900D01*
Y68800D02*
Y70750D01*
Y78550D02*
Y79450D01*
Y80650D02*
Y81700D01*
X85000Y-500D02*
Y1450D01*
Y9400D02*
Y10300D01*
Y11500D02*
Y12550D01*
Y14950D02*
Y23950D01*
Y25450D02*
Y27550D01*
Y35500D02*
Y36400D01*
Y37450D02*
Y38500D01*
Y42250D02*
Y44500D01*
Y45850D02*
Y53350D01*
Y55000D02*
Y56500D01*
Y58300D02*
Y64900D01*
Y68650D02*
Y70750D01*
Y78700D02*
Y79600D01*
Y80800D02*
Y81700D01*
X85150Y-650D02*
Y1450D01*
Y9550D02*
Y10600D01*
Y11500D02*
Y12700D01*
Y14200D02*
Y23950D01*
Y25300D02*
Y27400D01*
Y35500D02*
Y36700D01*
Y37450D02*
Y38650D01*
Y42250D02*
Y44500D01*
Y45400D02*
Y53200D01*
Y54850D02*
Y56350D01*
Y59200D02*
Y65050D01*
Y68500D02*
Y70600D01*
Y78850D02*
Y79750D01*
Y80800D02*
Y81700D01*
X85300Y-800D02*
Y1300D01*
Y9700D02*
Y12550D01*
Y14200D02*
Y23950D01*
Y25300D02*
Y27400D01*
Y35650D02*
Y38650D01*
Y42100D02*
Y44650D01*
Y44800D02*
Y53050D01*
Y54850D02*
Y56350D01*
Y59500D02*
Y65200D01*
Y68500D02*
Y70450D01*
Y79000D02*
Y81700D01*
X85450Y-800D02*
Y400D01*
Y550D02*
Y1150D01*
Y9850D02*
Y12550D01*
Y14050D02*
Y23800D01*
Y25150D02*
Y26350D01*
Y26500D02*
Y27250D01*
Y35800D02*
Y38650D01*
Y42100D02*
Y52600D01*
Y54700D02*
Y56350D01*
Y60550D02*
Y65200D01*
Y68350D02*
Y70450D01*
Y79150D02*
Y81700D01*
X85600Y-950D02*
Y1150D01*
Y10000D02*
Y12700D01*
Y14050D02*
Y23500D01*
Y25000D02*
Y27100D01*
Y35950D02*
Y38650D01*
Y41950D02*
Y52150D01*
Y54700D02*
Y56350D01*
Y61150D02*
Y65350D01*
Y68200D02*
Y70300D01*
Y79150D02*
Y81850D01*
X85750Y-1100D02*
Y1000D01*
Y10150D02*
Y12700D01*
Y14050D02*
Y20650D01*
Y20800D02*
Y23200D01*
Y24850D02*
Y27100D01*
Y36100D02*
Y38650D01*
Y41950D02*
Y51850D01*
Y54700D02*
Y56350D01*
Y61600D02*
Y65350D01*
Y68200D02*
Y70150D01*
Y79300D02*
Y81850D01*
X85900Y-1250D02*
Y850D01*
Y10300D02*
Y12700D01*
Y14200D02*
Y20050D01*
Y20350D02*
Y22450D01*
Y24850D02*
Y26950D01*
Y36250D02*
Y38650D01*
Y41950D02*
Y51250D01*
Y54700D02*
Y56200D01*
Y62200D02*
Y65350D01*
Y68050D02*
Y70150D01*
Y79450D02*
Y81850D01*
X86050Y-1400D02*
Y850D01*
Y10300D02*
Y12700D01*
Y14350D02*
Y19900D01*
Y20350D02*
Y22150D01*
Y24700D02*
Y26800D01*
Y36400D02*
Y38650D01*
Y41950D02*
Y48550D01*
Y48700D02*
Y51100D01*
Y54700D02*
Y56200D01*
Y62350D02*
Y65200D01*
Y67900D02*
Y70000D01*
Y79450D02*
Y81850D01*
X86200Y-1400D02*
Y700D01*
Y10450D02*
Y12700D01*
Y14350D02*
Y19450D01*
Y20200D02*
Y21250D01*
Y24550D02*
Y26650D01*
Y36550D02*
Y38650D01*
Y41950D02*
Y47500D01*
Y48550D02*
Y50500D01*
Y54700D02*
Y56200D01*
Y62650D02*
Y64600D01*
Y67750D02*
Y70000D01*
Y79750D02*
Y82000D01*
X86350Y-1550D02*
Y550D01*
Y10600D02*
Y12700D01*
Y14350D02*
Y19000D01*
Y20050D02*
Y21100D01*
Y24550D02*
Y25750D01*
Y25900D02*
Y26650D01*
Y36700D02*
Y38650D01*
Y41950D02*
Y47350D01*
Y48400D02*
Y50200D01*
Y54700D02*
Y56200D01*
Y62800D02*
Y64600D01*
Y67600D02*
Y69850D01*
Y79750D02*
Y82000D01*
X86500Y-1700D02*
Y550D01*
Y10750D02*
Y12700D01*
Y14350D02*
Y18550D01*
Y20200D02*
Y20800D01*
Y24250D02*
Y26500D01*
Y36850D02*
Y38650D01*
Y41950D02*
Y47200D01*
Y48100D02*
Y49750D01*
Y54700D02*
Y56200D01*
Y63850D02*
Y64300D01*
Y67600D02*
Y69700D01*
Y80050D02*
Y82000D01*
X86650Y-1700D02*
Y400D01*
Y10900D02*
Y12700D01*
Y14500D02*
Y18250D01*
Y24250D02*
Y26500D01*
Y37000D02*
Y38800D01*
Y41950D02*
Y47050D01*
Y47800D02*
Y49600D01*
Y54550D02*
Y56050D01*
Y67450D02*
Y69550D01*
Y80050D02*
Y82000D01*
X86800Y-1850D02*
Y250D01*
Y11200D02*
Y12850D01*
Y14650D02*
Y17650D01*
Y24250D02*
Y26350D01*
Y37150D02*
Y38950D01*
Y41950D02*
Y46300D01*
Y46450D02*
Y46900D01*
Y47650D02*
Y48250D01*
Y54550D02*
Y56050D01*
Y67300D02*
Y69400D01*
Y80350D02*
Y82000D01*
X86950Y-1850D02*
Y100D01*
Y11200D02*
Y13000D01*
Y14800D02*
Y17500D01*
Y24250D02*
Y26200D01*
Y37300D02*
Y38950D01*
Y41950D02*
Y46300D01*
Y46600D02*
Y46750D01*
Y47650D02*
Y48100D01*
Y54550D02*
Y56050D01*
Y67450D02*
Y69400D01*
Y80500D02*
Y82000D01*
X87100Y-1700D02*
Y100D01*
Y11350D02*
Y13000D01*
Y15250D02*
Y15550D01*
Y16150D02*
Y16900D01*
Y24100D02*
Y26050D01*
Y37450D02*
Y38950D01*
Y41950D02*
Y46150D01*
Y47200D02*
Y47650D01*
Y54400D02*
Y56050D01*
Y67600D02*
Y69400D01*
Y80650D02*
Y82150D01*
X87250Y-1700D02*
Y-50D01*
Y11500D02*
Y13000D01*
Y24100D02*
Y25900D01*
Y37600D02*
Y38950D01*
Y41950D02*
Y45850D01*
Y54400D02*
Y55900D01*
Y67600D02*
Y69100D01*
Y80650D02*
Y82000D01*
X87400Y-1850D02*
Y-1250D01*
Y-950D02*
Y-200D01*
Y11800D02*
Y12850D01*
Y24250D02*
Y25750D01*
Y37750D02*
Y38950D01*
Y41950D02*
Y45100D01*
Y46600D02*
Y47050D01*
Y54400D02*
Y55750D01*
Y67450D02*
Y68200D01*
Y68350D02*
Y69100D01*
Y80950D02*
Y82000D01*
X87550Y-1550D02*
Y-1250D01*
Y-800D02*
Y-350D01*
Y11950D02*
Y12850D01*
Y24400D02*
Y24700D01*
Y25000D02*
Y25750D01*
Y37900D02*
Y38950D01*
Y41950D02*
Y44650D01*
Y46300D02*
Y46600D01*
Y54400D02*
Y55600D01*
Y67750D02*
Y68950D01*
Y81100D02*
Y82000D01*
X87700Y-800D02*
Y-350D01*
Y12100D02*
Y12700D01*
Y25000D02*
Y25750D01*
Y38050D02*
Y38950D01*
Y41950D02*
Y44050D01*
Y46150D02*
Y46600D01*
Y54400D02*
Y55600D01*
Y68200D02*
Y68800D01*
Y81250D02*
Y82000D01*
X87850Y-1100D02*
Y-500D01*
Y12400D02*
Y12700D01*
Y25000D02*
Y25450D01*
Y38500D02*
Y38650D01*
Y42100D02*
Y43900D01*
Y45700D02*
Y45850D01*
Y54400D02*
Y55600D01*
Y68200D02*
Y68650D01*
Y81700D02*
Y81850D01*
X88000Y-2450D02*
Y-2300D01*
Y-1100D02*
Y-650D01*
Y24850D02*
Y25450D01*
Y42250D02*
Y43450D01*
Y45700D02*
Y46000D01*
Y54400D02*
Y55450D01*
Y66850D02*
Y67000D01*
Y68200D02*
Y68500D01*
X88150Y42250D02*
Y43300D01*
Y45100D02*
Y45400D01*
Y54400D02*
Y55000D01*
X88300Y42400D02*
Y43150D01*
Y45100D02*
Y45400D01*
Y54400D02*
Y55000D01*
X88450Y54250D02*
Y55150D01*
X88600Y54250D02*
Y55150D01*
X88750Y54250D02*
Y55300D01*
X88900Y54250D02*
Y55150D01*
X89050Y54100D02*
Y54700D01*
X89200Y54100D02*
Y54700D01*
X89350Y54100D02*
Y54700D01*
X89500Y54100D02*
Y54700D01*
X89650Y54100D02*
Y54400D01*
D11*
X17390Y19181D02*
X19556D01*
X17390Y15637D02*
Y19181D01*
X23296Y15637D02*
Y19181D01*
X17390Y15637D02*
X19556D01*
X21130D02*
X23296D01*
X21130Y19181D02*
X23296D01*
X17390Y30992D02*
X19556D01*
X17390Y27448D02*
Y30992D01*
X23296Y27448D02*
Y30992D01*
X17390Y27448D02*
X19556D01*
X21130D02*
X23296D01*
X21130Y30992D02*
X23296D01*
X17390Y11370D02*
X19556D01*
X17390Y7826D02*
Y11370D01*
X23296Y7826D02*
Y11370D01*
X17390Y7826D02*
X19556D01*
X21130D02*
X23296D01*
X21130Y11370D02*
X23296D01*
X17390Y7370D02*
X19556D01*
X17390Y3826D02*
Y7370D01*
X23296Y3826D02*
Y7370D01*
X17390Y3826D02*
X19556D01*
X21130D02*
X23296D01*
X21130Y7370D02*
X23296D01*
X17390Y23181D02*
X19556D01*
X17390Y19637D02*
Y23181D01*
X23296Y19637D02*
Y23181D01*
X17390Y19637D02*
X19556D01*
X21130D02*
X23296D01*
X21130Y23181D02*
X23296D01*
X17390Y42803D02*
X19556D01*
X17390Y39259D02*
Y42803D01*
X23296Y39259D02*
Y42803D01*
X17390Y39259D02*
X19556D01*
X21130D02*
X23296D01*
X21130Y42803D02*
X23296D01*
X17390Y46803D02*
X19556D01*
X17390Y43259D02*
Y46803D01*
X23296Y43259D02*
Y46803D01*
X17390Y43259D02*
X19556D01*
X21130D02*
X23296D01*
X21130Y46803D02*
X23296D01*
X17390Y34992D02*
X19556D01*
X17390Y31448D02*
Y34992D01*
X23296Y31448D02*
Y34992D01*
X17390Y31448D02*
X19556D01*
X21130D02*
X23296D01*
X21130Y34992D02*
X23296D01*
D12*
X33403Y6634D02*
Y4635D01*
X32070Y6634D01*
Y4635D01*
X31403Y6634D02*
Y4635D01*
X30404D01*
X30070Y4968D01*
Y5635D01*
X30404Y5968D01*
X31403D01*
X28071Y4968D02*
X28404Y4635D01*
X29071D01*
X29404Y4968D01*
Y6301D01*
X29071Y6634D01*
X28404D01*
X28071Y6301D01*
X27405Y4968D02*
X27071Y4635D01*
X26405D01*
X26072Y4968D01*
Y5302D01*
X26405Y5635D01*
X26072Y5968D01*
Y6301D01*
X26405Y6634D01*
X27071D01*
X27405Y6301D01*
Y5968D01*
X27071Y5635D01*
X27405Y5302D01*
Y4968D01*
X27071Y5635D02*
X26405D01*
X33403Y10634D02*
Y8635D01*
X32070Y10634D01*
Y8635D01*
X31403Y10634D02*
Y8635D01*
X30404D01*
X30070Y8968D01*
Y9635D01*
X30404Y9968D01*
X31403D01*
X28071Y8968D02*
X28404Y8635D01*
X29071D01*
X29404Y8968D01*
Y10301D01*
X29071Y10634D01*
X28404D01*
X28071Y10301D01*
X27405Y8635D02*
X26072D01*
Y8968D01*
X27405Y10301D01*
Y10634D01*
X33403Y18434D02*
Y16435D01*
X32070Y18434D01*
Y16435D01*
X31403Y18434D02*
Y16435D01*
X30404D01*
X30070Y16768D01*
Y17435D01*
X30404Y17768D01*
X31403D01*
X28071Y16768D02*
X28404Y16435D01*
X29071D01*
X29404Y16768D01*
Y18101D01*
X29071Y18434D01*
X28404D01*
X28071Y18101D01*
X26072Y16435D02*
X26738Y16768D01*
X27405Y17435D01*
Y18101D01*
X27071Y18434D01*
X26405D01*
X26072Y18101D01*
Y17768D01*
X26405Y17435D01*
X27405D01*
X33403Y22434D02*
Y20435D01*
X32070Y22434D01*
Y20435D01*
X31403Y22434D02*
Y20435D01*
X30404D01*
X30070Y20768D01*
Y21435D01*
X30404Y21768D01*
X31403D01*
X28071Y20768D02*
X28404Y20435D01*
X29071D01*
X29404Y20768D01*
Y22101D01*
X29071Y22434D01*
X28404D01*
X28071Y22101D01*
X26072Y20435D02*
X27405D01*
Y21435D01*
X26738Y21102D01*
X26405D01*
X26072Y21435D01*
Y22101D01*
X26405Y22434D01*
X27071D01*
X27405Y22101D01*
X33403Y30234D02*
Y28235D01*
X32070Y30234D01*
Y28235D01*
X31403Y30234D02*
Y28235D01*
X30404D01*
X30070Y28568D01*
Y29235D01*
X30404Y29568D01*
X31403D01*
X28071Y28568D02*
X28404Y28235D01*
X29071D01*
X29404Y28568D01*
Y29901D01*
X29071Y30234D01*
X28404D01*
X28071Y29901D01*
X26405Y30234D02*
Y28235D01*
X27405Y29235D01*
X26072D01*
X33403Y34234D02*
Y32235D01*
X32070Y34234D01*
Y32235D01*
X31403Y34234D02*
Y32235D01*
X30404D01*
X30070Y32568D01*
Y33235D01*
X30404Y33568D01*
X31403D01*
X28071Y32568D02*
X28404Y32235D01*
X29071D01*
X29404Y32568D01*
Y33901D01*
X29071Y34234D01*
X28404D01*
X28071Y33901D01*
X27405Y32568D02*
X27071Y32235D01*
X26405D01*
X26072Y32568D01*
Y32901D01*
X26405Y33235D01*
X26738D01*
X26405D01*
X26072Y33568D01*
Y33901D01*
X26405Y34234D01*
X27071D01*
X27405Y33901D01*
X33403Y42034D02*
Y40035D01*
X32070Y42034D01*
Y40035D01*
X31403Y42034D02*
Y40035D01*
X30404D01*
X30070Y40368D01*
Y41035D01*
X30404Y41368D01*
X31403D01*
X28071Y40368D02*
X28404Y40035D01*
X29071D01*
X29404Y40368D01*
Y41701D01*
X29071Y42034D01*
X28404D01*
X28071Y41701D01*
X26072Y42034D02*
X27405D01*
X26072Y40701D01*
Y40368D01*
X26405Y40035D01*
X27071D01*
X27405Y40368D01*
X32803Y46034D02*
Y44035D01*
X31470Y46034D01*
Y44035D01*
X30803Y46034D02*
Y44035D01*
X29804D01*
X29471Y44368D01*
Y45035D01*
X29804Y45368D01*
X30803D01*
X27471Y44368D02*
X27804Y44035D01*
X28471D01*
X28804Y44368D01*
Y45701D01*
X28471Y46034D01*
X27804D01*
X27471Y45701D01*
X26805Y46034D02*
X26138D01*
X26471D01*
Y44035D01*
X26805Y44368D01*
X64570Y39335D02*
X65236D01*
X64903D01*
Y41001D01*
X65236Y41334D01*
X65570D01*
X65903Y41001D01*
X63903Y41334D02*
X63237D01*
X63570D01*
Y39335D01*
X63903Y39668D01*
X15102Y73968D02*
X15436Y73635D01*
X16102D01*
X16435Y73968D01*
Y75301D01*
X16102Y75634D01*
X15436D01*
X15102Y75301D01*
X14436Y75634D02*
Y73635D01*
X13103Y75634D01*
Y73635D01*
X12437Y75634D02*
X11770D01*
X12103D01*
Y73635D01*
X12437Y73968D01*
M02*
