G04*
G04 #@! TF.GenerationSoftware,Altium Limited,Altium Designer,22.3.1 (43)*
G04*
G04 Layer_Physical_Order=2*
G04 Layer_Color=16711680*
%FSLAX25Y25*%
%MOIN*%
G70*
G04*
G04 #@! TF.SameCoordinates,698DBC82-D8F4-4E88-83ED-E0681CBDB87E*
G04*
G04*
G04 #@! TF.FilePolarity,Positive*
G04*
G01*
G75*
%ADD20C,0.00700*%
%ADD21O,0.04921X0.03150*%
%ADD22O,0.20866X0.20866*%
%ADD23C,0.01400*%
%ADD24R,0.07874X0.01181*%
G36*
X56582Y75001D02*
X56528Y75039D01*
X56467Y75061D01*
X56399Y75066D01*
X56324Y75055D01*
X56243Y75027D01*
X56155Y74983D01*
X56059Y74922D01*
X55957Y74844D01*
X55848Y74750D01*
X55733Y74639D01*
X55223Y75119D01*
X55332Y75234D01*
X55501Y75441D01*
X55559Y75534D01*
X55602Y75620D01*
X55627Y75699D01*
X55635Y75771D01*
X55626Y75835D01*
X55601Y75893D01*
X55558Y75943D01*
X56582Y75001D01*
D02*
G37*
G36*
X74952Y76072D02*
X75804Y75903D01*
X76594Y75576D01*
X77316Y75093D01*
X77624Y74814D01*
X77825Y74592D01*
X78181Y74059D01*
X78421Y73480D01*
X78546Y72852D01*
X78562Y72538D01*
Y35290D01*
X78516Y34363D01*
X78152Y32532D01*
X78152Y32531D01*
Y32531D01*
X77442Y30819D01*
X76405Y29267D01*
X76405Y29267D01*
X76405Y29267D01*
X76102Y28932D01*
X76102Y28932D01*
X76102Y28932D01*
X75782Y28579D01*
X75438Y28235D01*
X75438Y28235D01*
X75438Y28235D01*
X73658Y26455D01*
X72971Y25832D01*
X71418Y24795D01*
X69706Y24085D01*
X67874Y23721D01*
X66947Y23676D01*
X60677D01*
X60612Y23649D01*
X60586Y23658D01*
X60580Y23655D01*
X60561Y23658D01*
X60510Y23648D01*
X60431Y23595D01*
X60377Y23584D01*
X60366Y23577D01*
X60347Y23548D01*
X60329Y23547D01*
X60314Y23540D01*
X60294Y23518D01*
X60212Y23479D01*
X60160Y23420D01*
X60148Y23386D01*
X60098Y23352D01*
X59882Y23029D01*
X59374Y22690D01*
X58723Y22560D01*
X57058D01*
X56406Y22690D01*
X55899Y23029D01*
X55899Y23029D01*
X55668Y23373D01*
X55620Y23406D01*
X55618Y23417D01*
X55603Y23427D01*
X55589Y23460D01*
X55589Y23460D01*
X55550Y23499D01*
X55550Y23499D01*
X55550Y23499D01*
X55465Y23535D01*
X55434Y23569D01*
X55433Y23569D01*
X55429Y23569D01*
X55426Y23573D01*
X55418Y23576D01*
X55381Y23614D01*
X55381Y23614D01*
X55322Y23615D01*
X55273Y23648D01*
X55219Y23658D01*
X55184Y23651D01*
X55168Y23658D01*
X55168Y23658D01*
X55168Y23658D01*
X55157Y23653D01*
X55103Y23676D01*
X54392D01*
X54320Y23646D01*
X54311Y23650D01*
X54297Y23644D01*
X54232Y23650D01*
X54154Y23627D01*
X54073Y23560D01*
X54048Y23552D01*
X54046Y23551D01*
X54046Y23551D01*
X54045D01*
X54043Y23550D01*
X54025Y23531D01*
X53928Y23491D01*
X53870Y23434D01*
X53846Y23374D01*
X53834Y23364D01*
X53833Y23354D01*
X53773Y23305D01*
X53596Y22974D01*
X53589Y22897D01*
X53581Y22891D01*
X53579Y22876D01*
X53544Y22822D01*
X53527Y22742D01*
X53548Y22639D01*
X53543Y22614D01*
X53543Y22611D01*
X53543Y22608D01*
X53551Y22583D01*
X53540Y22479D01*
X53564Y22400D01*
X53605Y22350D01*
X53608Y22335D01*
X53617Y22330D01*
X53632Y22254D01*
X53646Y22233D01*
X53765Y21634D01*
X53646Y21036D01*
X53307Y20529D01*
X52800Y20190D01*
X52148Y20060D01*
X50483D01*
X49831Y20190D01*
X49324Y20529D01*
X48985Y21036D01*
X48866Y21634D01*
X48985Y22233D01*
X48999Y22254D01*
X49014Y22330D01*
X49022Y22335D01*
X49025Y22350D01*
X49067Y22400D01*
X49090Y22479D01*
X49080Y22583D01*
X49088Y22607D01*
X49087Y22611D01*
X49087Y22611D01*
X49087Y22611D01*
X49088Y22614D01*
X49083Y22639D01*
X49103Y22741D01*
X49087Y22822D01*
X49051Y22876D01*
X49050Y22891D01*
X49042Y22897D01*
X49034Y22974D01*
X48858Y23305D01*
X48798Y23354D01*
X48797Y23364D01*
X48785Y23374D01*
X48760Y23434D01*
X48702Y23491D01*
X48606Y23531D01*
X48588Y23550D01*
X48585Y23551D01*
X48585D01*
X48583Y23552D01*
X48558Y23560D01*
X48477Y23627D01*
X48398Y23650D01*
X48334Y23644D01*
X48320Y23650D01*
X48310Y23646D01*
X48239Y23676D01*
X10350D01*
X10350Y50032D01*
X12225D01*
Y50015D01*
X13928Y50150D01*
X15588Y50548D01*
X17166Y51202D01*
X18622Y52094D01*
X19921Y53203D01*
X19909Y53215D01*
X34670Y67976D01*
X34690Y68006D01*
X36048Y69121D01*
X37629Y69965D01*
X39344Y70486D01*
X41092Y70658D01*
X41128Y70651D01*
X48433D01*
X48700Y70151D01*
X48475Y69814D01*
X48314Y69004D01*
X48475Y68195D01*
X48934Y67509D01*
X49620Y67050D01*
X50429Y66889D01*
X52201D01*
X53011Y67050D01*
X53697Y67509D01*
X54156Y68195D01*
X54317Y69004D01*
X54156Y69814D01*
X53748Y70424D01*
X53801Y70986D01*
X53900Y71027D01*
X54399Y71411D01*
X54745Y71346D01*
X54942Y71236D01*
X55050Y70695D01*
X55509Y70009D01*
X56195Y69550D01*
X57004Y69389D01*
X58776D01*
X59585Y69550D01*
X60272Y70009D01*
X60730Y70695D01*
X60891Y71504D01*
X60730Y72314D01*
X60272Y73000D01*
X59585Y73459D01*
X58776Y73620D01*
X57004D01*
X56530Y73526D01*
X56033Y73906D01*
X56017Y74157D01*
X56147Y74287D01*
X56213Y74350D01*
X56298Y74424D01*
X56370Y74478D01*
X56414Y74506D01*
X56554Y74479D01*
X56605Y74460D01*
X56618Y74466D01*
X57004Y74389D01*
X58776D01*
X59585Y74550D01*
X60272Y75009D01*
X60730Y75695D01*
X60803Y76060D01*
X60866Y76093D01*
X74525D01*
X74952Y76072D01*
D02*
G37*
G36*
X49039Y73309D02*
X49031Y73375D01*
X49005Y73433D01*
X48963Y73485D01*
X48905Y73530D01*
X48829Y73568D01*
X48737Y73599D01*
X48628Y73623D01*
X48502Y73641D01*
X48359Y73651D01*
X48199Y73654D01*
Y74354D01*
X48359Y74358D01*
X48628Y74385D01*
X48737Y74410D01*
X48829Y74441D01*
X48905Y74479D01*
X48963Y74524D01*
X49005Y74576D01*
X49031Y74634D01*
X49039Y74700D01*
Y73309D01*
D02*
G37*
G36*
X23067Y63997D02*
X23025Y63975D01*
X25064D01*
X25256Y63513D01*
X16990Y55247D01*
X16971Y55219D01*
X15926Y54417D01*
X14677Y53900D01*
X13370Y53728D01*
X13337Y53734D01*
X10350D01*
Y55134D01*
Y59959D01*
X11407D01*
X11539Y59941D01*
X12390Y60053D01*
X13183Y60382D01*
X13863Y60904D01*
X14386Y61585D01*
X14714Y62378D01*
X14826Y63228D01*
X15146Y63593D01*
X21054D01*
X21105Y63614D01*
X21159Y63604D01*
X23025Y63975D01*
X23066Y64002D01*
X23067Y63997D01*
D02*
G37*
G36*
X123879Y92699D02*
X131416Y92699D01*
X131916Y92699D01*
X132381Y92614D01*
X132795Y92532D01*
X133541Y92034D01*
X134039Y91289D01*
X134120Y90878D01*
X134206Y90409D01*
X134206Y90409D01*
X134206Y89921D01*
Y-10142D01*
X134210Y-10161D01*
X134039Y-11021D01*
X133541Y-11766D01*
X132795Y-12264D01*
X131936Y-12435D01*
X131916Y-12431D01*
X123879D01*
X123859Y-12435D01*
X123000Y-12264D01*
X122255Y-11766D01*
X121756Y-11021D01*
X121586Y-10161D01*
X121590Y-10142D01*
Y21634D01*
X121601D01*
X121499Y22411D01*
X121200Y23134D01*
X120723Y23755D01*
X120102Y24231D01*
X119379Y24531D01*
X118603Y24633D01*
X117827Y24531D01*
X117103Y24231D01*
X116482Y23755D01*
X116006Y23134D01*
X115706Y22411D01*
X115604Y21634D01*
X115616D01*
Y9376D01*
X98106Y-8134D01*
X97781Y-7999D01*
X97644Y-7889D01*
Y88210D01*
X98106Y88402D01*
X115616Y70891D01*
X115616Y56634D01*
X115604D01*
X115706Y55858D01*
X116006Y55135D01*
X116482Y54514D01*
X117103Y54037D01*
X117827Y53738D01*
X118603Y53636D01*
X119379Y53738D01*
X120102Y54037D01*
X120723Y54514D01*
X121200Y55135D01*
X121499Y55858D01*
X121601Y56634D01*
X121589D01*
Y90409D01*
X121586Y90429D01*
X121756Y91289D01*
X122255Y92034D01*
X123000Y92532D01*
X123859Y92703D01*
X123879Y92699D01*
D02*
G37*
G36*
X8754Y53466D02*
X8775Y53414D01*
X8810Y53368D01*
X8859Y53328D01*
X8922Y53294D01*
X8999Y53267D01*
X9090Y53245D01*
X9195Y53230D01*
X9314Y53221D01*
X9447Y53218D01*
Y52518D01*
X9314Y52514D01*
X9195Y52505D01*
X9090Y52490D01*
X8999Y52468D01*
X8922Y52441D01*
X8859Y52407D01*
X8810Y52367D01*
X8775Y52321D01*
X8754Y52269D01*
X8747Y52210D01*
Y53525D01*
X8754Y53466D01*
D02*
G37*
G36*
Y51498D02*
X8775Y51446D01*
X8810Y51400D01*
X8859Y51360D01*
X8922Y51326D01*
X8999Y51298D01*
X9090Y51277D01*
X9195Y51261D01*
X9314Y51252D01*
X9447Y51249D01*
Y50549D01*
X9314Y50546D01*
X9195Y50537D01*
X9090Y50521D01*
X8999Y50500D01*
X8922Y50472D01*
X8859Y50438D01*
X8810Y50398D01*
X8775Y50352D01*
X8754Y50300D01*
X8747Y50242D01*
Y51556D01*
X8754Y51498D01*
D02*
G37*
G36*
X93809Y92699D02*
X97103Y89405D01*
Y-7942D01*
Y-9137D01*
X93809Y-12431D01*
X16459Y-12431D01*
X16459Y-4437D01*
X16485Y-3937D01*
X16485D01*
X16326Y-2728D01*
X15859Y-1600D01*
X15116Y-632D01*
X14148Y110D01*
X13021Y577D01*
X12296Y673D01*
X11811Y736D01*
X11322Y710D01*
X10350Y710D01*
Y3064D01*
X5413D01*
Y4246D01*
X10350D01*
Y5033D01*
X5413D01*
Y6214D01*
X10350D01*
Y7214D01*
X10350D01*
Y11828D01*
X10350Y11828D01*
X10350Y11907D01*
X10350D01*
X10350Y12328D01*
Y12907D01*
X5413D01*
Y14088D01*
X10350D01*
Y14875D01*
X5413D01*
Y16057D01*
X10350D01*
Y16844D01*
X5413D01*
Y18025D01*
X10350D01*
Y18812D01*
X5413D01*
Y19994D01*
X10350Y19994D01*
Y20994D01*
X10350D01*
Y23134D01*
X48238D01*
X48239Y23134D01*
X48241Y23133D01*
X48312Y23111D01*
X48462Y22871D01*
X48555Y22673D01*
X48549Y22559D01*
X48549Y22558D01*
Y22558D01*
X48549Y22557D01*
X48549Y22555D01*
Y22555D01*
X48475Y22444D01*
X48314Y21634D01*
X48475Y20825D01*
X48934Y20139D01*
X49620Y19680D01*
X50429Y19519D01*
X52201D01*
X53011Y19680D01*
X53697Y20139D01*
X54156Y20825D01*
X54317Y21634D01*
X54156Y22444D01*
X54082Y22554D01*
X54082Y22555D01*
X54082Y22558D01*
X54058Y22636D01*
X54058Y22637D01*
X54074Y22716D01*
X54074Y22716D01*
X54074Y22716D01*
X54074Y22719D01*
X54074Y22719D01*
X54250Y23050D01*
X54253Y23051D01*
X54311Y23108D01*
X54311Y23109D01*
X54389Y23133D01*
X54391Y23134D01*
X54392Y23134D01*
X55103D01*
X55114Y23128D01*
X55168Y23117D01*
X55168Y23117D01*
X55168D01*
X55207Y23078D01*
X55207Y23078D01*
X55207D01*
X55211Y23076D01*
X55211Y23076D01*
X55218Y23073D01*
X55509Y22639D01*
X55598Y22579D01*
X55598Y22579D01*
X55883Y22388D01*
X56195Y22180D01*
X57004Y22019D01*
X58776D01*
X59585Y22180D01*
X60272Y22639D01*
X60548Y23052D01*
X60548Y23052D01*
X60563Y23059D01*
X60615Y23117D01*
X60667Y23128D01*
X60677Y23134D01*
X66961D01*
X67941Y23183D01*
X69863Y23565D01*
X71675Y24315D01*
X73304Y25404D01*
X74032Y26063D01*
X75820Y27852D01*
X75820Y27852D01*
X76164Y28196D01*
X76174Y28205D01*
X76180Y28212D01*
X76183Y28215D01*
X76503Y28569D01*
X76833Y28933D01*
X76855Y28966D01*
X76855Y28966D01*
X77922Y30563D01*
X77942Y30612D01*
X77942Y30612D01*
X78652Y32324D01*
Y32324D01*
X78672Y32374D01*
X79055Y34296D01*
X79103Y35276D01*
Y72552D01*
X79085Y72918D01*
X78942Y73638D01*
X78661Y74316D01*
X78253Y74926D01*
X78007Y75198D01*
X77987Y75215D01*
X77987Y75216D01*
X77650Y75521D01*
X77617Y75543D01*
X77617Y75543D01*
X76850Y76055D01*
X75962Y76423D01*
X75019Y76611D01*
X74538Y76634D01*
X60866D01*
X60730Y77314D01*
X60272Y78000D01*
X59585Y78459D01*
X58776Y78620D01*
X57004D01*
X56195Y78459D01*
X55509Y78000D01*
X55050Y77314D01*
X54915Y76634D01*
X39431D01*
X38762Y76601D01*
X37449Y76340D01*
X36212Y75828D01*
X35099Y75084D01*
X34603Y74634D01*
X26931Y66963D01*
X26259Y66290D01*
X24677Y65233D01*
X22920Y64505D01*
X21054Y64134D01*
X14691D01*
X14386Y64872D01*
X13863Y65552D01*
X13183Y66075D01*
X12390Y66403D01*
X11539Y66515D01*
X11407Y66498D01*
X10350D01*
X10350Y68134D01*
X10350D01*
Y68993D01*
X10350Y68994D01*
X10350D01*
Y69994D01*
X5413D01*
Y71175D01*
X10350D01*
Y71963D01*
X5413D01*
Y73144D01*
X10350D01*
Y73931D01*
X5413D01*
Y75003D01*
X10350Y75003D01*
Y76112D01*
X10350D01*
Y77478D01*
X11811D01*
Y77452D01*
X13021Y77611D01*
X14148Y78078D01*
X15116Y78821D01*
X15859Y79789D01*
X16326Y80916D01*
X16421Y81641D01*
X16485Y82125D01*
X16485Y82126D01*
X16459Y82615D01*
X16459Y92699D01*
X93809Y92699D01*
D02*
G37*
%LPC*%
G36*
X52201Y66120D02*
X50429D01*
X49620Y65959D01*
X48934Y65500D01*
X48475Y64814D01*
X48314Y64004D01*
X48475Y63195D01*
X48934Y62509D01*
X49620Y62050D01*
X50429Y61889D01*
X52201D01*
X53011Y62050D01*
X53697Y62509D01*
X54156Y63195D01*
X54317Y64004D01*
X54156Y64814D01*
X53697Y65500D01*
X53011Y65959D01*
X52201Y66120D01*
D02*
G37*
G36*
X58776Y63620D02*
X57004D01*
X56195Y63459D01*
X55509Y63000D01*
X55050Y62314D01*
X54889Y61504D01*
X55050Y60695D01*
X55509Y60009D01*
X56195Y59550D01*
X57004Y59389D01*
X58776D01*
X59585Y59550D01*
X60272Y60009D01*
X60730Y60695D01*
X60891Y61504D01*
X60730Y62314D01*
X60272Y63000D01*
X59585Y63459D01*
X58776Y63620D01*
D02*
G37*
G36*
Y58620D02*
X57004D01*
X56195Y58459D01*
X55509Y58000D01*
X55050Y57314D01*
X54889Y56504D01*
X55050Y55695D01*
X55509Y55009D01*
X56195Y54550D01*
X57004Y54389D01*
X58776D01*
X59585Y54550D01*
X60272Y55009D01*
X60730Y55695D01*
X60891Y56504D01*
X60730Y57314D01*
X60272Y58000D01*
X59585Y58459D01*
X58776Y58620D01*
D02*
G37*
G36*
X52201Y56120D02*
X50429D01*
X49620Y55959D01*
X48934Y55500D01*
X48475Y54814D01*
X48314Y54004D01*
X48475Y53195D01*
X48934Y52509D01*
X49620Y52050D01*
X50429Y51889D01*
X52201D01*
X53011Y52050D01*
X53697Y52509D01*
X54156Y53195D01*
X54317Y54004D01*
X54156Y54814D01*
X53697Y55500D01*
X53011Y55959D01*
X52201Y56120D01*
D02*
G37*
G36*
X58776Y46250D02*
X57004D01*
X56195Y46089D01*
X55509Y45630D01*
X55050Y44944D01*
X54889Y44134D01*
X55050Y43325D01*
X55509Y42638D01*
X56195Y42180D01*
X57004Y42019D01*
X58776D01*
X59585Y42180D01*
X60272Y42638D01*
X60730Y43325D01*
X60891Y44134D01*
X60730Y44944D01*
X60272Y45630D01*
X59585Y46089D01*
X58776Y46250D01*
D02*
G37*
G36*
X52201Y43750D02*
X50429D01*
X49620Y43589D01*
X48934Y43130D01*
X48475Y42444D01*
X48314Y41634D01*
X48475Y40825D01*
X48934Y40139D01*
X49620Y39680D01*
X50429Y39519D01*
X52201D01*
X53011Y39680D01*
X53697Y40139D01*
X54156Y40825D01*
X54317Y41634D01*
X54156Y42444D01*
X53697Y43130D01*
X53011Y43589D01*
X52201Y43750D01*
D02*
G37*
G36*
Y38750D02*
X50429D01*
X49620Y38589D01*
X48934Y38130D01*
X48475Y37444D01*
X48314Y36634D01*
X48475Y35825D01*
X48934Y35138D01*
X49620Y34680D01*
X50429Y34519D01*
X52201D01*
X53011Y34680D01*
X53697Y35138D01*
X54156Y35825D01*
X54317Y36634D01*
X54156Y37444D01*
X53697Y38130D01*
X53011Y38589D01*
X52201Y38750D01*
D02*
G37*
G36*
X58776Y36250D02*
X57004D01*
X56195Y36089D01*
X55509Y35630D01*
X55050Y34944D01*
X54889Y34134D01*
X55050Y33325D01*
X55509Y32638D01*
X56195Y32180D01*
X57004Y32019D01*
X58776D01*
X59585Y32180D01*
X60272Y32638D01*
X60730Y33325D01*
X60891Y34134D01*
X60730Y34944D01*
X60272Y35630D01*
X59585Y36089D01*
X58776Y36250D01*
D02*
G37*
G36*
Y31250D02*
X57004D01*
X56195Y31089D01*
X55509Y30630D01*
X55050Y29944D01*
X54889Y29134D01*
X55050Y28325D01*
X55509Y27639D01*
X56195Y27180D01*
X57004Y27019D01*
X58776D01*
X59585Y27180D01*
X60272Y27639D01*
X60730Y28325D01*
X60891Y29134D01*
X60730Y29944D01*
X60272Y30630D01*
X59585Y31089D01*
X58776Y31250D01*
D02*
G37*
G36*
X52201Y28750D02*
X50429D01*
X49620Y28589D01*
X48934Y28130D01*
X48475Y27444D01*
X48314Y26634D01*
X48475Y25825D01*
X48934Y25139D01*
X49620Y24680D01*
X50429Y24519D01*
X52201D01*
X53011Y24680D01*
X53697Y25139D01*
X54156Y25825D01*
X54317Y26634D01*
X54156Y27444D01*
X53697Y28130D01*
X53011Y28589D01*
X52201Y28750D01*
D02*
G37*
G36*
X58776Y21250D02*
X57004D01*
X56195Y21089D01*
X55509Y20630D01*
X55050Y19944D01*
X54889Y19134D01*
X55050Y18325D01*
X55509Y17639D01*
X56195Y17180D01*
X57004Y17019D01*
X58776D01*
X59585Y17180D01*
X60272Y17639D01*
X60730Y18325D01*
X60891Y19134D01*
X60730Y19944D01*
X60272Y20630D01*
X59585Y21089D01*
X58776Y21250D01*
D02*
G37*
G36*
X52201Y18750D02*
X50429D01*
X49620Y18589D01*
X48934Y18130D01*
X48475Y17444D01*
X48314Y16634D01*
X48475Y15825D01*
X48934Y15139D01*
X49620Y14680D01*
X50429Y14519D01*
X52201D01*
X53011Y14680D01*
X53697Y15139D01*
X54156Y15825D01*
X54317Y16634D01*
X54156Y17444D01*
X53697Y18130D01*
X53011Y18589D01*
X52201Y18750D01*
D02*
G37*
G36*
X58776Y16250D02*
X57004D01*
X56195Y16089D01*
X55509Y15630D01*
X55050Y14944D01*
X54889Y14134D01*
X55050Y13325D01*
X55509Y12639D01*
X56195Y12180D01*
X57004Y12019D01*
X58776D01*
X59585Y12180D01*
X60272Y12639D01*
X60730Y13325D01*
X60891Y14134D01*
X60730Y14944D01*
X60272Y15630D01*
X59585Y16089D01*
X58776Y16250D01*
D02*
G37*
G36*
X52201Y13750D02*
X50429D01*
X49620Y13589D01*
X48934Y13130D01*
X48475Y12444D01*
X48314Y11634D01*
X48475Y10825D01*
X48934Y10138D01*
X49620Y9680D01*
X50429Y9519D01*
X52201D01*
X53011Y9680D01*
X53697Y10138D01*
X54156Y10825D01*
X54317Y11634D01*
X54156Y12444D01*
X53697Y13130D01*
X53011Y13589D01*
X52201Y13750D01*
D02*
G37*
G36*
X58776Y11250D02*
X57004D01*
X56195Y11089D01*
X55509Y10630D01*
X55050Y9944D01*
X54889Y9134D01*
X55050Y8325D01*
X55509Y7638D01*
X56195Y7180D01*
X57004Y7019D01*
X58776D01*
X59585Y7180D01*
X60272Y7638D01*
X60730Y8325D01*
X60891Y9134D01*
X60730Y9944D01*
X60272Y10630D01*
X59585Y11089D01*
X58776Y11250D01*
D02*
G37*
G36*
X52201Y8750D02*
X50429D01*
X49620Y8589D01*
X48934Y8130D01*
X48475Y7444D01*
X48314Y6634D01*
X48475Y5825D01*
X48934Y5139D01*
X49620Y4680D01*
X50429Y4519D01*
X52201D01*
X53011Y4680D01*
X53697Y5139D01*
X54156Y5825D01*
X54317Y6634D01*
X54156Y7444D01*
X53697Y8130D01*
X53011Y8589D01*
X52201Y8750D01*
D02*
G37*
G36*
X58776Y6250D02*
X57004D01*
X56195Y6089D01*
X55509Y5630D01*
X55050Y4944D01*
X54889Y4134D01*
X55050Y3325D01*
X55509Y2639D01*
X56195Y2180D01*
X57004Y2019D01*
X58776D01*
X59585Y2180D01*
X60272Y2639D01*
X60730Y3325D01*
X60891Y4134D01*
X60730Y4944D01*
X60272Y5630D01*
X59585Y6089D01*
X58776Y6250D01*
D02*
G37*
G36*
X52201Y3750D02*
X50429D01*
X49620Y3589D01*
X48934Y3130D01*
X48475Y2444D01*
X48314Y1634D01*
X48475Y825D01*
X48934Y138D01*
X49620Y-320D01*
X50429Y-481D01*
X52201D01*
X53011Y-320D01*
X53697Y138D01*
X54156Y825D01*
X54317Y1634D01*
X54156Y2444D01*
X53697Y3130D01*
X53011Y3589D01*
X52201Y3750D01*
D02*
G37*
G36*
X58776Y1250D02*
X57004D01*
X56195Y1089D01*
X55509Y630D01*
X55050Y-56D01*
X54889Y-866D01*
X55050Y-1675D01*
X55509Y-2361D01*
X56195Y-2820D01*
X57004Y-2981D01*
X58776D01*
X59585Y-2820D01*
X60272Y-2361D01*
X60730Y-1675D01*
X60891Y-866D01*
X60730Y-56D01*
X60272Y630D01*
X59585Y1089D01*
X58776Y1250D01*
D02*
G37*
%LPD*%
D20*
X55163Y74564D02*
G03*
X54869Y73855I710J-710D01*
G01*
X53875Y72101D02*
G03*
X53875Y72102I-1410J1411D01*
G01*
X52465Y71517D02*
G03*
X53875Y72101I0J1994D01*
G01*
X54331Y72558D02*
G03*
X54869Y73855I-1297J1297D01*
G01*
X41128Y71517D02*
G03*
X34057Y68589I0J-10000D01*
G01*
X12225Y50899D02*
G03*
X19296Y53828I0J10000D01*
G01*
X41115Y74004D02*
G03*
X34044Y71075I0J-10000D01*
G01*
X13337Y52868D02*
G03*
X17603Y54634I0J6032D01*
G01*
X55163Y74564D02*
X57103Y76504D01*
X53875Y72102D02*
X54331Y72558D01*
X53875Y72101D02*
X53875Y72102D01*
X41128Y71517D02*
X52465D01*
X19296Y53828D02*
X34057Y68589D01*
X5413Y50899D02*
X12225D01*
X41115Y74004D02*
X52103D01*
X17603Y54634D02*
X34044Y71075D01*
X5413Y52868D02*
X13337D01*
D21*
X51315Y36634D02*
D03*
X57890Y34134D02*
D03*
Y29134D02*
D03*
Y24134D02*
D03*
Y19134D02*
D03*
Y14134D02*
D03*
Y9134D02*
D03*
Y4134D02*
D03*
Y-866D02*
D03*
Y51504D02*
D03*
Y39134D02*
D03*
Y44134D02*
D03*
Y71504D02*
D03*
Y66504D02*
D03*
Y61504D02*
D03*
Y76504D02*
D03*
X51315Y79004D02*
D03*
X57890Y81504D02*
D03*
X51315Y69004D02*
D03*
Y64004D02*
D03*
Y59004D02*
D03*
Y54004D02*
D03*
Y74004D02*
D03*
Y41634D02*
D03*
Y31634D02*
D03*
Y26634D02*
D03*
Y21634D02*
D03*
Y16634D02*
D03*
Y6634D02*
D03*
Y1634D02*
D03*
Y11634D02*
D03*
Y46634D02*
D03*
X57890Y56504D02*
D03*
D22*
X118603Y39134D02*
D03*
D23*
X20603Y62134D02*
D03*
X16603D02*
D03*
X12603Y58134D02*
D03*
X16603D02*
D03*
X102603Y9134D02*
D03*
Y16634D02*
D03*
Y24134D02*
D03*
Y31634D02*
D03*
Y76634D02*
D03*
Y69134D02*
D03*
Y61634D02*
D03*
Y54134D02*
D03*
Y46634D02*
D03*
Y39134D02*
D03*
X69603Y33634D02*
D03*
X65603D02*
D03*
X73603D02*
D03*
X69603Y41134D02*
D03*
X65603D02*
D03*
X73603D02*
D03*
X69603Y48634D02*
D03*
X65603D02*
D03*
X73603D02*
D03*
X69603Y56134D02*
D03*
X65603D02*
D03*
X73603D02*
D03*
Y63634D02*
D03*
Y71134D02*
D03*
X69603D02*
D03*
X65603D02*
D03*
Y63634D02*
D03*
X69603D02*
D03*
D24*
X5413Y39088D02*
D03*
Y3655D02*
D03*
Y5624D02*
D03*
Y11529D02*
D03*
Y13498D02*
D03*
Y15466D02*
D03*
Y17435D02*
D03*
Y19403D02*
D03*
Y50899D02*
D03*
Y52868D02*
D03*
Y54836D02*
D03*
Y74521D02*
D03*
Y72553D02*
D03*
Y70584D02*
D03*
Y68616D02*
D03*
M02*
